<?xml version="1.0" encoding="UTF-8" standalone="no"?>
<svg
   xmlns:dc="http://purl.org/dc/elements/1.1/"
   xmlns:cc="http://creativecommons.org/ns#"
   xmlns:rdf="http://www.w3.org/1999/02/22-rdf-syntax-ns#"
   xmlns:svg="http://www.w3.org/2000/svg"
   xmlns="http://www.w3.org/2000/svg"
   xmlns:sodipodi="http://sodipodi.sourceforge.net/DTD/sodipodi-0.dtd"
   xmlns:inkscape="http://www.inkscape.org/namespaces/inkscape"
   inkscape:version="1.0.2-2 (e86c870879, 2021-01-15)"
   sodipodi:docname="Box out small.svg"
   id="svg8"
   version="1.1"
   viewBox="0 0 594 420"
   height="420mm"
   width="594mm">
  <defs
     id="defs2" />
  <sodipodi:namedview
     id="base"
     pagecolor="#ffffff"
     bordercolor="#666666"
     borderopacity="1.0"
     inkscape:pageopacity="0.0"
     inkscape:pageshadow="2"
     inkscape:zoom="0.88016274"
     inkscape:cx="952.91831"
     inkscape:cy="706.71145"
     inkscape:document-units="mm"
     inkscape:current-layer="g1332"
     inkscape:document-rotation="0"
     showgrid="false"
     inkscape:window-width="2560"
     inkscape:window-height="1417"
     inkscape:window-x="1912"
     inkscape:window-y="-8"
     inkscape:window-maximized="1" />
  <metadata
     id="metadata5">
    <rdf:RDF>
      <cc:Work
         rdf:about="">
        <dc:format>image/svg+xml</dc:format>
        <dc:type
           rdf:resource="http://purl.org/dc/dcmitype/StillImage" />
        <dc:title />
      </cc:Work>
    </rdf:RDF>
  </metadata>
  <g
     inkscape:label="Taso 1"
     inkscape:groupmode="layer"
     id="layer1">
    <g
       id="g1104"
       transform="translate(0,-0.025761)"
       style="stroke-width:0.02;stroke-miterlimit:4;stroke-dasharray:none">
      <path
         id="path922"
         style="fill:none;stroke:#000000;stroke-width:0.02;stroke-linejoin:bevel;stroke-miterlimit:4;stroke-dasharray:none"
         d="m 52,137.04317 v 0.002 c -1.9e-4,24.82415 20.1111,44.95487 44.93524,44.97864 C 72.073235,182.00021 51.979179,161.80847 52,137.04317 Z"
         sodipodi:nodetypes="cscc" />
      <g
         id="panel4635"
         style="stroke-width:0.02;stroke-miterlimit:4;stroke-dasharray:none"
         transform="translate(0,0.02381)">
        <path
           style="fill:none;stroke:#000000;stroke-width:0.02;stroke-miterlimit:4;stroke-dasharray:none"
           d="M 96.935238,52 H 120.393 v 3 h 5.83 v -3 h 6.554 v 3 h 5.83 v -3 h 6.555 v 3 h 5.83 v -3 h 6.555 v 3 h 5.83 v -3 h 6.554 v 3 h 5.83 v -3 h 6.555 v 3 h 5.83 v -3 h 6.554 v 3 h 5.83 V 52 H 207"
           id="path997"
           sodipodi:nodetypes="cccccccccccccccccccccccccccccc" />
        <path
           style="fill:none;stroke:#000000;stroke-width:0.02;stroke-miterlimit:4;stroke-dasharray:none"
           d="m 207,52 v 6.4486 h -3 v 5.83 h 3 v 6.5337 h -3 v 5.83 h 3 v 6.5336 h -3 v 5.83 h 3 v 6.5336 h -3 v 5.8305 h 3 v 6.533 h -3 v 5.83 h 3 v 6.534 h -3 v 5.83 h 3 v 6.533 h -3 v 5.83 h 3 v 6.534 h -3 v 5.83 h 3 v 6.534 h -3 v 5.83 h 3 v 6.533 h -3 v 5.83 h 3 V 182"
           id="path999" />
        <path
           style="fill:none;stroke:#000000;stroke-width:0.02;stroke-miterlimit:4;stroke-dasharray:none"
           d="m 207,182 h -6.47 v -3 h -5.83 v 3 h -6.554 v -3 h -5.83 v 3 h -6.555 v -3 h -5.83 v 3 h -6.554 v -3 h -5.83 v 3 h -6.555 v -3 h -5.83 v 3 h -6.555 v -3 h -5.83 v 3 h -6.554 v -3 h -5.83 v 3 H 96.93524"
           id="path1001"
           sodipodi:nodetypes="cccccccccccccccccccccccccccccc" />
        <path
           style="fill:none;stroke:#000000;stroke-width:0.02;stroke-miterlimit:4;stroke-dasharray:none"
           d="m 52,137.01936 c 0,0 0,-40.043306 0,-35.64936 v -4.393946"
           id="path1003"
           sodipodi:nodetypes="ccc" />
      </g>
    </g>
    <g
       id="panel354"
       style="stroke-width:0.02;stroke-miterlimit:4;stroke-dasharray:none">
      <path
         style="fill:none;stroke:#000000;stroke-width:0.02;stroke-miterlimit:4;stroke-dasharray:none"
         d="M 211 55 L 215.915 55 L 215.915 52 L 222.085 52 L 222.085 55 L 229.915 55 L 229.915 52 L 236.085 52 L 236.085 55 L 243.915 55 L 243.915 52 L 250.085 52 L 250.085 55 L 255 55"
         id="path1006" />
      <path
         style="fill:none;stroke:#000000;stroke-width:0.02;stroke-miterlimit:4;stroke-dasharray:none"
         d="M 255 55 L 255 58.2786 L 258 58.2786 L 258 64.4486 L 255 64.4486 L 255 70.6423 L 258 70.6423 L 258 76.8123 L 255 76.8123 L 255 83.0059 L 258 83.0059 L 258 89.1759 L 255 89.1759 L 255 95.3695 L 258 95.3695 L 258 101.54 L 255 101.54 L 255 107.733 L 258 107.733 L 258 113.903 L 255 113.903 L 255 120.097 L 258 120.097 L 258 126.267 L 255 126.267 L 255 132.46 L 258 132.46 L 258 138.63 L 255 138.63 L 255 144.824 L 258 144.824 L 258 150.994 L 255 150.994 L 255 157.188 L 258 157.188 L 258 163.358 L 255 163.358 L 255 169.551 L 258 169.551 L 258 175.721 L 255 175.721 L 255 179"
         id="path1008" />
      <path
         style="fill:none;stroke:#000000;stroke-width:0.02;stroke-miterlimit:4;stroke-dasharray:none"
         d="M 255 179 L 250.085 179 L 250.085 182 L 243.915 182 L 243.915 179 L 236.085 179 L 236.085 182 L 229.915 182 L 229.915 179 L 222.085 179 L 222.085 182 L 215.915 182 L 215.915 179 L 211 179"
         id="path1010" />
      <path
         style="fill:none;stroke:#000000;stroke-width:0.02;stroke-miterlimit:4;stroke-dasharray:none"
         d="M 211 179 L 211 175.721 L 208 175.721 L 208 169.551 L 211 169.551 L 211 163.358 L 208 163.358 L 208 157.188 L 211 157.188 L 211 150.994 L 208 150.994 L 208 144.824 L 211 144.824 L 211 138.63 L 208 138.63 L 208 132.46 L 211 132.46 L 211 126.267 L 208 126.267 L 208 120.097 L 211 120.097 L 211 113.903 L 208 113.903 L 208 107.733 L 211 107.733 L 211 101.54 L 208 101.54 L 208 95.3695 L 211 95.3695 L 211 89.1759 L 208 89.1759 L 208 83.0059 L 211 83.0059 L 211 76.8123 L 208 76.8123 L 208 70.6423 L 211 70.6423 L 211 64.4486 L 208 64.4486 L 208 58.2786 L 211 58.2786 L 211 55"
         id="path1012" />
    </g>
    <g
       id="g1076"
       style="stroke-width:0.02;stroke-miterlimit:4;stroke-dasharray:none"
       transform="translate(11.812176,-73.846722)">
      <g
         id="g1332"
         transform="rotate(-90,240.16754,123.37662)"
         style="stroke-width:0.02;stroke-miterlimit:4;stroke-dasharray:none">
        <g
           id="panel6162"
           transform="rotate(90,81.847023,193.84702)"
           style="stroke-width:0.02;stroke-miterlimit:4;stroke-dasharray:none">
          <path
             style="fill:none;stroke:#000000;stroke-width:0.02;stroke-miterlimit:4;stroke-dasharray:none"
             d="m 52,186 c 0,0 74.393,0 68.223,0 v -3 h 6.17 v 3 h 6.214 v -3 h 6.17 v 3 h 6.215 v -3 h 6.17 v 3 h 6.215 v -3 h 6.17 v 3 h 6.214 v -3 h 6.17 v 3 h 6.215 v -3 h 6.17 v 3 h 6.214 v -3 h 6.17 v 3 h 6.3"
             id="path979"
             sodipodi:nodetypes="cccccccccccccccccccccccccccccc" />
          <path
             style="fill:none;stroke:#000000;stroke-width:0.02;stroke-miterlimit:4;stroke-dasharray:none"
             d="m 207,186 v 5.085 h -3 v 5.83 h 3 v 8.17 h -3 v 5.83 h 3 v 8.17 h -3 v 5.83 h 3 V 230"
             id="path981" />
          <path
             style="fill:none;stroke:#000000;stroke-width:0.02;stroke-miterlimit:4;stroke-dasharray:none"
             d="m 207,230 h -6.3 v 3 h -6.17 v -3 h -6.214 v 3 h -6.17 v -3 h -6.215 v 3 h -6.17 v -3 h -6.214 v 3 h -6.17 v -3 h -6.215 v 3 h -6.17 v -3 h -6.215 v 3 h -6.17 v -3 h -6.214 v 3 h -6.17 v -3 H 52"
             id="path983"
             sodipodi:nodetypes="cccccccccccccccccccccccccccccc" />
        </g>
        <g
           id="panel2065"
           style="stroke-width:0.02297017;stroke-miterlimit:4;stroke-dasharray:none"
           transform="matrix(1.0000588,0,0,0.75806452,41.692518,28.306455)">
          <path
             style="fill:none;stroke:#000000;stroke-width:0.02297017;stroke-miterlimit:4;stroke-dasharray:none"
             d="M 48,55 V 179"
             id="path990"
             sodipodi:nodetypes="cc" />
          <path
             style="fill:none;stroke:#000000;stroke-width:0.02297017;stroke-miterlimit:4;stroke-dasharray:none"
             d="M 4,179 V 55"
             id="path994"
             sodipodi:nodetypes="cc" />
        </g>
        <g
           id="g1319"
           transform="rotate(-90,-9.1529767,131.15298)"
           style="stroke-width:0.02;stroke-miterlimit:4;stroke-dasharray:none">
          <path
             style="fill:none;stroke:#000000;stroke-width:0.02;stroke-miterlimit:4;stroke-dasharray:none"
             d="m 52,186 c 0,0 74.393,0 68.223,0 v -3 h 6.17 v 3 h 6.214 v -3 h 6.17 v 3 h 6.215 v -3 h 6.17 v 3 h 6.215 v -3 h 6.17 v 3 h 6.214 v -3 h 6.17 v 3 h 6.215 v -3 h 6.17 v 3 h 6.214 v -3 h 6.17 v 3 h 6.3"
             id="path1313"
             sodipodi:nodetypes="cccccccccccccccccccccccccccccc" />
          <path
             style="fill:none;stroke:#000000;stroke-width:0.02;stroke-miterlimit:4;stroke-dasharray:none"
             d="m 207,186 v 5.085 h -3 v 5.83 h 3 v 8.17 h -3 v 5.83 h 3 v 8.17 h -3 v 5.83 h 3 V 230"
             id="path1315" />
          <path
             style="fill:none;stroke:#000000;stroke-width:0.02;stroke-miterlimit:4;stroke-dasharray:none"
             d="m 207,230 h -6.3 v 3 h -6.17 v -3 h -6.214 v 3 h -6.17 v -3 h -6.215 v 3 h -6.17 v -3 h -6.214 v 3 h -6.17 v -3 h -6.215 v 3 h -6.17 v -3 h -6.215 v 3 h -6.17 v -3 h -6.214 v 3 h -6.17 v -3 H 52"
             id="path1317"
             sodipodi:nodetypes="cccccccccccccccccccccccccccccc" />
        </g>
        <circle
           style="fill:none;stroke:#000000;stroke-width:0.02;stroke-linejoin:bevel;stroke-miterlimit:4;stroke-dasharray:none"
           id="path1119"
           cx="2.1424456"
           cy="-59.893318"
           transform="rotate(90)"
           r="2.9930682" />
        <rect
           style="fill:none;stroke:#000000;stroke-width:0.02;stroke-linejoin:bevel;stroke-miterlimit:4;stroke-dasharray:none"
           id="rect1121"
           width="3.9800873"
           height="8.9800873"
           x="-21.709942"
           y="-65.619003"
           transform="rotate(90)" />
        <rect
           style="fill:none;stroke:#000000;stroke-width:0.02;stroke-linejoin:bevel;stroke-miterlimit:4;stroke-dasharray:none"
           id="rect1123"
           width="7.9677386"
           height="7.9677386"
           x="-46.590584"
           y="-65.017372"
           transform="rotate(90)" />
        <path
           style="fill:none;stroke:#000000;stroke-width:0.02;stroke-miterlimit:4;stroke-dasharray:none"
           d="M 45.69875700000001, 136.99086 L 55.94796075000001, 136.99086 M 58.94796075000001, 136.99086 L 76.44636825, 136.99086 M 79.44636825, 136.99086 L 89.69557200000001, 136.99086 M 45.69875700000001, 139.98983704166668 L 55.94796075000001, 139.98983704166668 M 58.94796075000001, 139.98983704166668 L 76.44636825, 139.98983704166668 M 79.44636825, 139.98983704166668 L 89.69557200000001, 139.98983704166668 M 45.69875700000001, 142.98881408333332 L 55.94796075000001, 142.98881408333332 M 58.94796075000001, 142.98881408333332 L 76.44636825, 142.98881408333332 M 79.44636825, 142.98881408333332 L 89.69557200000001, 142.98881408333332 M 45.69875700000001, 145.987791125 L 55.94796075000001, 145.987791125 M 58.94796075000001, 145.987791125 L 76.44636825, 145.987791125 M 79.44636825, 145.987791125 L 89.69557200000001, 145.987791125 M 45.69875700000001, 148.98676816666665 L 55.94796075000001, 148.98676816666665 M 58.94796075000001, 148.98676816666665 L 76.44636825, 148.98676816666665 M 79.44636825, 148.98676816666665 L 89.69557200000001, 148.98676816666665 M 45.69875700000001, 151.98574520833333 L 55.94796075000001, 151.98574520833333 M 58.94796075000001, 151.98574520833333 L 76.44636825, 151.98574520833333 M 79.44636825, 151.98574520833333 L 89.69557200000001, 151.98574520833333 M 45.69875700000001, 154.98472225 L 55.94796075000001, 154.98472225 M 58.94796075000001, 154.98472225 L 76.44636825, 154.98472225 M 79.44636825, 154.98472225 L 89.69557200000001, 154.98472225 M 45.69875700000001, 157.98369929166665 L 55.94796075000001, 157.98369929166665 M 58.94796075000001, 157.98369929166665 L 76.44636825, 157.98369929166665 M 79.44636825, 157.98369929166665 L 89.69557200000001, 157.98369929166665 M 45.69875700000001, 160.98267633333333 L 55.94796075000001, 160.98267633333333 M 58.94796075000001, 160.98267633333333 L 76.44636825, 160.98267633333333 M 79.44636825, 160.98267633333333 L 89.69557200000001, 160.98267633333333 M 45.69875700000001, 163.981653375 L 55.94796075000001, 163.981653375 M 58.94796075000001, 163.981653375 L 76.44636825, 163.981653375 M 79.44636825, 163.981653375 L 89.69557200000001, 163.981653375 M 45.69875700000001, 166.98063041666666 L 55.94796075000001, 166.98063041666666 M 58.94796075000001, 166.98063041666666 L 76.44636825, 166.98063041666666 M 79.44636825, 166.98063041666666 L 89.69557200000001, 166.98063041666666 M 45.69875700000001, 169.97960745833333 L 55.94796075000001, 169.97960745833333 M 58.94796075000001, 169.97960745833333 L 76.44636825, 169.97960745833333 M 79.44636825, 169.97960745833333 L 89.69557200000001, 169.97960745833333 M 45.69875700000001, 172.9785845 L 55.94796075000001, 172.9785845 M 58.94796075000001, 172.9785845 L 76.44636825, 172.9785845 M 79.44636825, 172.9785845 L 89.69557200000001, 172.9785845 M 45.69875700000001, 175.97756154166666 L 55.94796075000001, 175.97756154166666 M 58.94796075000001, 175.97756154166666 L 76.44636825, 175.97756154166666 M 79.44636825, 175.97756154166666 L 89.69557200000001, 175.97756154166666 M 45.69875700000001, 178.9765385833333 L 55.94796075000001, 178.9765385833333 M 58.94796075000001, 178.9765385833333 L 76.44636825, 178.9765385833333 M 79.44636825, 178.9765385833333 L 89.69557200000001, 178.9765385833333 M 45.69875700000001, 181.97551562499999 L 55.94796075000001, 181.97551562499999 M 58.94796075000001, 181.97551562499999 L 76.44636825, 181.97551562499999 M 79.44636825, 181.97551562499999 L 89.69557200000001, 181.97551562499999 M 45.69875700000001, 184.97449266666666 L 55.94796075000001, 184.97449266666666 M 58.94796075000001, 184.97449266666666 L 76.44636825, 184.97449266666666 M 79.44636825, 184.97449266666666 L 89.69557200000001, 184.97449266666666 M 45.69875700000001, 187.9734697083333 L 55.94796075000001, 187.9734697083333 M 58.94796075000001, 187.9734697083333 L 76.44636825, 187.9734697083333 M 79.44636825, 187.9734697083333 L 89.69557200000001, 187.9734697083333 M 45.69875700000001, 190.97244674999996 L 55.94796075000001, 190.97244674999996 M 58.94796075000001, 190.97244674999996 L 76.44636825, 190.97244674999996 M 79.44636825, 190.97244674999996 L 89.69557200000001, 190.97244674999996 M 45.69875700000001, 193.97142379166664 L 55.94796075000001, 193.97142379166664 M 58.94796075000001, 193.97142379166664 L 76.44636825, 193.97142379166664 M 79.44636825, 193.97142379166664 L 89.69557200000001, 193.97142379166664 M 45.69875700000001, 196.97040083333331 L 55.94796075000001, 196.97040083333331 M 58.94796075000001, 196.97040083333331 L 76.44636825, 196.97040083333331 M 79.44636825, 196.97040083333331 L 89.69557200000001, 196.97040083333331 M 45.69875700000001, 199.96937787499996 L 55.94796075000001, 199.96937787499996 M 58.94796075000001, 199.96937787499996 L 76.44636825, 199.96937787499996 M 79.44636825, 199.96937787499996 L 89.69557200000001, 199.96937787499996 M 45.69875700000001, 202.9683549166666 L 55.94796075000001, 202.9683549166666 M 58.94796075000001, 202.9683549166666 L 76.44636825, 202.9683549166666 M 79.44636825, 202.9683549166666 L 89.69557200000001, 202.9683549166666 M 45.69875700000001, 205.9673319583333 L 55.94796075000001, 205.9673319583333 M 58.94796075000001, 205.9673319583333 L 76.44636825, 205.9673319583333 M 79.44636825, 205.9673319583333 L 89.69557200000001, 205.9673319583333 M 45.69875700000001, 208.96630899999997 L 55.94796075000001, 208.96630899999997 M 58.94796075000001, 208.96630899999997 L 76.44636825, 208.96630899999997 M 79.44636825, 208.96630899999997 L 89.69557200000001, 208.96630899999997 M 48.69875700000001, 138.49034852083332 L 66.19716450000001, 138.49034852083332 M 69.19716450000001, 138.49034852083332 L 86.69557200000001, 138.49034852083332 M 48.69875700000001, 141.4893255625 L 66.19716450000001, 141.4893255625 M 69.19716450000001, 141.4893255625 L 86.69557200000001, 141.4893255625 M 48.69875700000001, 144.48830260416668 L 66.19716450000001, 144.48830260416668 M 69.19716450000001, 144.48830260416668 L 86.69557200000001, 144.48830260416668 M 48.69875700000001, 147.48727964583333 L 66.19716450000001, 147.48727964583333 M 69.19716450000001, 147.48727964583333 L 86.69557200000001, 147.48727964583333 M 48.69875700000001, 150.4862566875 L 66.19716450000001, 150.4862566875 M 69.19716450000001, 150.4862566875 L 86.69557200000001, 150.4862566875 M 48.69875700000001, 153.48523372916668 L 66.19716450000001, 153.48523372916668 M 69.19716450000001, 153.48523372916668 L 86.69557200000001, 153.48523372916668 M 48.69875700000001, 156.48421077083333 L 66.19716450000001, 156.48421077083333 M 69.19716450000001, 156.48421077083333 L 86.69557200000001, 156.48421077083333 M 48.69875700000001, 159.4831878125 L 66.19716450000001, 159.4831878125 M 69.19716450000001, 159.4831878125 L 86.69557200000001, 159.4831878125 M 48.69875700000001, 162.48216485416665 L 66.19716450000001, 162.48216485416665 M 69.19716450000001, 162.48216485416665 L 86.69557200000001, 162.48216485416665 M 48.69875700000001, 165.48114189583333 L 66.19716450000001, 165.48114189583333 M 69.19716450000001, 165.48114189583333 L 86.69557200000001, 165.48114189583333 M 48.69875700000001, 168.4801189375 L 66.19716450000001, 168.4801189375 M 69.19716450000001, 168.4801189375 L 86.69557200000001, 168.4801189375 M 48.69875700000001, 171.47909597916666 L 66.19716450000001, 171.47909597916666 M 69.19716450000001, 171.47909597916666 L 86.69557200000001, 171.47909597916666 M 48.69875700000001, 174.47807302083334 L 66.19716450000001, 174.47807302083334 M 69.19716450000001, 174.47807302083334 L 86.69557200000001, 174.47807302083334 M 48.69875700000001, 177.47705006249998 L 66.19716450000001, 177.47705006249998 M 69.19716450000001, 177.47705006249998 L 86.69557200000001, 177.47705006249998 M 48.69875700000001, 180.47602710416666 L 66.19716450000001, 180.47602710416666 M 69.19716450000001, 180.47602710416666 L 86.69557200000001, 180.47602710416666 M 48.69875700000001, 183.47500414583334 L 66.19716450000001, 183.47500414583334 M 69.19716450000001, 183.47500414583334 L 86.69557200000001, 183.47500414583334 M 48.69875700000001, 186.4739811875 L 66.19716450000001, 186.4739811875 M 69.19716450000001, 186.4739811875 L 86.69557200000001, 186.4739811875 M 48.69875700000001, 189.47295822916664 L 66.19716450000001, 189.47295822916664 M 69.19716450000001, 189.47295822916664 L 86.69557200000001, 189.47295822916664 M 48.69875700000001, 192.4719352708333 L 66.19716450000001, 192.4719352708333 M 69.19716450000001, 192.4719352708333 L 86.69557200000001, 192.4719352708333 M 48.69875700000001, 195.4709123125 L 66.19716450000001, 195.4709123125 M 69.19716450000001, 195.4709123125 L 86.69557200000001, 195.4709123125 M 48.69875700000001, 198.46988935416664 L 66.19716450000001, 198.46988935416664 M 69.19716450000001, 198.46988935416664 L 86.69557200000001, 198.46988935416664 M 48.69875700000001, 201.4688663958333 L 66.19716450000001, 201.4688663958333 M 69.19716450000001, 201.4688663958333 L 86.69557200000001, 201.4688663958333 M 48.69875700000001, 204.46784343749997 L 66.19716450000001, 204.46784343749997 M 69.19716450000001, 204.46784343749997 L 86.69557200000001, 204.46784343749997 M 48.69875700000001, 207.46682047916664 L 66.19716450000001, 207.46682047916664 M 69.19716450000001, 207.46682047916664 L 86.69557200000001, 207.46682047916664 "
           id="path1071">
          <desc
             id="desc1069">Hinge cut parameters: actual(requested)
cut length: 17.50 mm (15.00 mm)
gap length: 3.00 mm (3.00 mm)
separation distance: 1.50 mm (1.50 mm)</desc>
        </path>
        <path
           style="fill:none;stroke:#000000;stroke-width:0.02;stroke-miterlimit:4;stroke-dasharray:none"
           d="M 45.698757, 25.03370699999999 L 55.94796075, 25.03370699999999 M 58.94796075, 25.03370699999999 L 76.44636825, 25.03370699999999 M 79.44636825, 25.03370699999999 L 89.695572, 25.03370699999999 M 45.698757, 28.032684041666656 L 55.94796075, 28.032684041666656 M 58.94796075, 28.032684041666656 L 76.44636825, 28.032684041666656 M 79.44636825, 28.032684041666656 L 89.695572, 28.032684041666656 M 45.698757, 31.031661083333322 L 55.94796075, 31.031661083333322 M 58.94796075, 31.031661083333322 L 76.44636825, 31.031661083333322 M 79.44636825, 31.031661083333322 L 89.695572, 31.031661083333322 M 45.698757, 34.03063812499999 L 55.94796075, 34.03063812499999 M 58.94796075, 34.03063812499999 L 76.44636825, 34.03063812499999 M 79.44636825, 34.03063812499999 L 89.695572, 34.03063812499999 M 45.698757, 37.02961516666666 L 55.94796075, 37.02961516666666 M 58.94796075, 37.02961516666666 L 76.44636825, 37.02961516666666 M 79.44636825, 37.02961516666666 L 89.695572, 37.02961516666666 M 45.698757, 40.02859220833332 L 55.94796075, 40.02859220833332 M 58.94796075, 40.02859220833332 L 76.44636825, 40.02859220833332 M 79.44636825, 40.02859220833332 L 89.695572, 40.02859220833332 M 45.698757, 43.027569249999985 L 55.94796075, 43.027569249999985 M 58.94796075, 43.027569249999985 L 76.44636825, 43.027569249999985 M 79.44636825, 43.027569249999985 L 89.695572, 43.027569249999985 M 45.698757, 46.026546291666655 L 55.94796075, 46.026546291666655 M 58.94796075, 46.026546291666655 L 76.44636825, 46.026546291666655 M 79.44636825, 46.026546291666655 L 89.695572, 46.026546291666655 M 45.698757, 49.025523333333325 L 55.94796075, 49.025523333333325 M 58.94796075, 49.025523333333325 L 76.44636825, 49.025523333333325 M 79.44636825, 49.025523333333325 L 89.695572, 49.025523333333325 M 45.698757, 52.02450037499999 L 55.94796075, 52.02450037499999 M 58.94796075, 52.02450037499999 L 76.44636825, 52.02450037499999 M 79.44636825, 52.02450037499999 L 89.695572, 52.02450037499999 M 45.698757, 55.02347741666665 L 55.94796075, 55.02347741666665 M 58.94796075, 55.02347741666665 L 76.44636825, 55.02347741666665 M 79.44636825, 55.02347741666665 L 89.695572, 55.02347741666665 M 45.698757, 58.02245445833333 L 55.94796075, 58.02245445833333 M 58.94796075, 58.02245445833333 L 76.44636825, 58.02245445833333 M 79.44636825, 58.02245445833333 L 89.695572, 58.02245445833333 M 45.698757, 61.02143149999999 L 55.94796075, 61.02143149999999 M 58.94796075, 61.02143149999999 L 76.44636825, 61.02143149999999 M 79.44636825, 61.02143149999999 L 89.695572, 61.02143149999999 M 45.698757, 64.02040854166665 L 55.94796075, 64.02040854166665 M 58.94796075, 64.02040854166665 L 76.44636825, 64.02040854166665 M 79.44636825, 64.02040854166665 L 89.695572, 64.02040854166665 M 45.698757, 67.01938558333332 L 55.94796075, 67.01938558333332 M 58.94796075, 67.01938558333332 L 76.44636825, 67.01938558333332 M 79.44636825, 67.01938558333332 L 89.695572, 67.01938558333332 M 45.698757, 70.01836262499998 L 55.94796075, 70.01836262499998 M 58.94796075, 70.01836262499998 L 76.44636825, 70.01836262499998 M 79.44636825, 70.01836262499998 L 89.695572, 70.01836262499998 M 45.698757, 73.01733966666664 L 55.94796075, 73.01733966666664 M 58.94796075, 73.01733966666664 L 76.44636825, 73.01733966666664 M 79.44636825, 73.01733966666664 L 89.695572, 73.01733966666664 M 45.698757, 76.0163167083333 L 55.94796075, 76.0163167083333 M 58.94796075, 76.0163167083333 L 76.44636825, 76.0163167083333 M 79.44636825, 76.0163167083333 L 89.695572, 76.0163167083333 M 45.698757, 79.01529374999997 L 55.94796075, 79.01529374999997 M 58.94796075, 79.01529374999997 L 76.44636825, 79.01529374999997 M 79.44636825, 79.01529374999997 L 89.695572, 79.01529374999997 M 45.698757, 82.01427079166663 L 55.94796075, 82.01427079166663 M 58.94796075, 82.01427079166663 L 76.44636825, 82.01427079166663 M 79.44636825, 82.01427079166663 L 89.695572, 82.01427079166663 M 45.698757, 85.0132478333333 L 55.94796075, 85.0132478333333 M 58.94796075, 85.0132478333333 L 76.44636825, 85.0132478333333 M 79.44636825, 85.0132478333333 L 89.695572, 85.0132478333333 M 45.698757, 88.01222487499996 L 55.94796075, 88.01222487499996 M 58.94796075, 88.01222487499996 L 76.44636825, 88.01222487499996 M 79.44636825, 88.01222487499996 L 89.695572, 88.01222487499996 M 45.698757, 91.01120191666662 L 55.94796075, 91.01120191666662 M 58.94796075, 91.01120191666662 L 76.44636825, 91.01120191666662 M 79.44636825, 91.01120191666662 L 89.695572, 91.01120191666662 M 45.698757, 94.01017895833328 L 55.94796075, 94.01017895833328 M 58.94796075, 94.01017895833328 L 76.44636825, 94.01017895833328 M 79.44636825, 94.01017895833328 L 89.695572, 94.01017895833328 M 45.698757, 97.00915599999995 L 55.94796075, 97.00915599999995 M 58.94796075, 97.00915599999995 L 76.44636825, 97.00915599999995 M 79.44636825, 97.00915599999995 L 89.695572, 97.00915599999995 M 48.698757, 26.533195520833324 L 66.1971645, 26.533195520833324 M 69.1971645, 26.533195520833324 L 86.695572, 26.533195520833324 M 48.698757, 29.532172562499987 L 66.1971645, 29.532172562499987 M 69.1971645, 29.532172562499987 L 86.695572, 29.532172562499987 M 48.698757, 32.53114960416666 L 66.1971645, 32.53114960416666 M 69.1971645, 32.53114960416666 L 86.695572, 32.53114960416666 M 48.698757, 35.53012664583332 L 66.1971645, 35.53012664583332 M 69.1971645, 35.53012664583332 L 86.695572, 35.53012664583332 M 48.698757, 38.52910368749999 L 66.1971645, 38.52910368749999 M 69.1971645, 38.52910368749999 L 86.695572, 38.52910368749999 M 48.698757, 41.52808072916666 L 66.1971645, 41.52808072916666 M 69.1971645, 41.52808072916666 L 86.695572, 41.52808072916666 M 48.698757, 44.52705777083332 L 66.1971645, 44.52705777083332 M 69.1971645, 44.52705777083332 L 86.695572, 44.52705777083332 M 48.698757, 47.52603481249999 L 66.1971645, 47.52603481249999 M 69.1971645, 47.52603481249999 L 86.695572, 47.52603481249999 M 48.698757, 50.52501185416666 L 66.1971645, 50.52501185416666 M 69.1971645, 50.52501185416666 L 86.695572, 50.52501185416666 M 48.698757, 53.52398889583333 L 66.1971645, 53.52398889583333 M 69.1971645, 53.52398889583333 L 86.695572, 53.52398889583333 M 48.698757, 56.52296593749999 L 66.1971645, 56.52296593749999 M 69.1971645, 56.52296593749999 L 86.695572, 56.52296593749999 M 48.698757, 59.52194297916665 L 66.1971645, 59.52194297916665 M 69.1971645, 59.52194297916665 L 86.695572, 59.52194297916665 M 48.698757, 62.52092002083333 L 66.1971645, 62.52092002083333 M 69.1971645, 62.52092002083333 L 86.695572, 62.52092002083333 M 48.698757, 65.5198970625 L 66.1971645, 65.5198970625 M 69.1971645, 65.5198970625 L 86.695572, 65.5198970625 M 48.698757, 68.51887410416666 L 66.1971645, 68.51887410416666 M 69.1971645, 68.51887410416666 L 86.695572, 68.51887410416666 M 48.698757, 71.51785114583332 L 66.1971645, 71.51785114583332 M 69.1971645, 71.51785114583332 L 86.695572, 71.51785114583332 M 48.698757, 74.51682818749998 L 66.1971645, 74.51682818749998 M 69.1971645, 74.51682818749998 L 86.695572, 74.51682818749998 M 48.698757, 77.51580522916665 L 66.1971645, 77.51580522916665 M 69.1971645, 77.51580522916665 L 86.695572, 77.51580522916665 M 48.698757, 80.51478227083331 L 66.1971645, 80.51478227083331 M 69.1971645, 80.51478227083331 L 86.695572, 80.51478227083331 M 48.698757, 83.51375931249997 L 66.1971645, 83.51375931249997 M 69.1971645, 83.51375931249997 L 86.695572, 83.51375931249997 M 48.698757, 86.51273635416663 L 66.1971645, 86.51273635416663 M 69.1971645, 86.51273635416663 L 86.695572, 86.51273635416663 M 48.698757, 89.5117133958333 L 66.1971645, 89.5117133958333 M 69.1971645, 89.5117133958333 L 86.695572, 89.5117133958333 M 48.698757, 92.51069043749996 L 66.1971645, 92.51069043749996 M 69.1971645, 92.51069043749996 L 86.695572, 92.51069043749996 M 48.698757, 95.50966747916662 L 66.1971645, 95.50966747916662 M 69.1971645, 95.50966747916662 L 86.695572, 95.50966747916662 "
           id="path1126">
          <desc
             id="desc1124">Hinge cut parameters: actual(requested)
cut length: 17.50 mm (15.00 mm)
gap length: 3.00 mm (3.00 mm)
separation distance: 1.50 mm (1.50 mm)</desc>
        </path>
      </g>
    </g>
    <circle
       style="fill:none;stroke:#000000;stroke-width:0.02;stroke-linejoin:bevel;stroke-miterlimit:4;stroke-dasharray:none"
       id="path1106"
       cx="121.48386"
       cy="116.99805"
       r="57.483883" />
    <path
       id="path1101"
       style="fill:none;stroke:#000000;stroke-width:0.02;stroke-linejoin:bevel;stroke-miterlimit:4;stroke-dasharray:none"
       d="M 96.935238,51.998049 C 72.06566,51.985348 52.001238,72.150962 52,96.974103 52.005761,72.185716 72.049469,51.993621 96.935238,51.998049 Z"
       sodipodi:nodetypes="ccc" />
    <g
       id="g1142"
       transform="rotate(180,343.33802,117.8151)"
       style="stroke-width:0.02;stroke-miterlimit:4;stroke-dasharray:none">
      <g
         id="g1120"
         transform="translate(215.86745,2.0666616)"
         style="stroke-width:0.02;stroke-miterlimit:4;stroke-dasharray:none">
        <path
           id="path1108"
           style="fill:none;stroke:#000000;stroke-width:0.02;stroke-linejoin:bevel;stroke-miterlimit:4;stroke-dasharray:none"
           d="m 52,137.04317 v 0.002 c -1.9e-4,24.82415 20.1111,44.95487 44.93524,44.97864 C 72.073235,182.00021 51.979179,161.80847 52,137.04317 Z"
           sodipodi:nodetypes="cscc" />
        <g
           id="g1118"
           style="stroke-width:0.02;stroke-miterlimit:4;stroke-dasharray:none"
           transform="translate(0,0.02381)">
          <path
             style="fill:none;stroke:#000000;stroke-width:0.02;stroke-miterlimit:4;stroke-dasharray:none"
             d="M 96.935238,52 H 120.393 v 3 h 5.83 v -3 h 6.554 v 3 h 5.83 v -3 h 6.555 v 3 h 5.83 v -3 h 6.555 v 3 h 5.83 v -3 h 6.554 v 3 h 5.83 v -3 h 6.555 v 3 h 5.83 v -3 h 6.554 v 3 h 5.83 V 52 H 207"
             id="path1110"
             sodipodi:nodetypes="cccccccccccccccccccccccccccccc" />
          <path
             style="fill:none;stroke:#000000;stroke-width:0.02;stroke-miterlimit:4;stroke-dasharray:none"
             d="m 207,52 v 6.4486 h -3 v 5.83 h 3 v 6.5337 h -3 v 5.83 h 3 v 6.5336 h -3 v 5.83 h 3 v 6.5336 h -3 v 5.8305 h 3 v 6.533 h -3 v 5.83 h 3 v 6.534 h -3 v 5.83 h 3 v 6.533 h -3 v 5.83 h 3 v 6.534 h -3 v 5.83 h 3 v 6.534 h -3 v 5.83 h 3 v 6.533 h -3 v 5.83 h 3 V 182"
             id="path1112" />
          <path
             style="fill:none;stroke:#000000;stroke-width:0.02;stroke-miterlimit:4;stroke-dasharray:none"
             d="m 207,182 h -6.47 v -3 h -5.83 v 3 h -6.554 v -3 h -5.83 v 3 h -6.555 v -3 h -5.83 v 3 h -6.554 v -3 h -5.83 v 3 h -6.555 v -3 h -5.83 v 3 h -6.555 v -3 h -5.83 v 3 h -6.554 v -3 h -5.83 v 3 H 96.93524"
             id="path1114"
             sodipodi:nodetypes="cccccccccccccccccccccccccccccc" />
          <path
             style="fill:none;stroke:#000000;stroke-width:0.02;stroke-miterlimit:4;stroke-dasharray:none"
             d="m 52,137.01936 c -0.04543,-14.863 0,-26.51722 0,-40.043306"
             id="path1116"
             sodipodi:nodetypes="cc" />
        </g>
      </g>
      <path
         id="path1311"
         style="fill:none;stroke:#000000;stroke-width:0.02;stroke-linejoin:bevel;stroke-miterlimit:4;stroke-dasharray:none"
         d="m 312.80269,54.090472 c -24.86957,-0.0127 -44.934,20.152913 -44.93523,44.976057 0.006,-24.78839 20.04947,-44.980485 44.93523,-44.976057 z"
         sodipodi:nodetypes="ccc" />
    </g>
  </g>
</svg>
