<?xml version="1.0" encoding="UTF-8" standalone="no"?>
<svg
   xmlns:dc="http://purl.org/dc/elements/1.1/"
   xmlns:cc="http://creativecommons.org/ns#"
   xmlns:rdf="http://www.w3.org/1999/02/22-rdf-syntax-ns#"
   xmlns:svg="http://www.w3.org/2000/svg"
   xmlns="http://www.w3.org/2000/svg"
   xmlns:sodipodi="http://sodipodi.sourceforge.net/DTD/sodipodi-0.dtd"
   xmlns:inkscape="http://www.inkscape.org/namespaces/inkscape"
   width="420mm"
   height="297mm"
   viewBox="0 0 420 297"
   version="1.1"
   id="svg1196"
   inkscape:version="1.0.2-2 (e86c870879, 2021-01-15)"
   sodipodi:docname="Platform.svg">
  <defs
     id="defs1190" />
  <sodipodi:namedview
     id="base"
     pagecolor="#ffffff"
     bordercolor="#666666"
     borderopacity="1.0"
     inkscape:pageopacity="0.0"
     inkscape:pageshadow="2"
     inkscape:zoom="0.98994949"
     inkscape:cx="713.1885"
     inkscape:cy="501.11782"
     inkscape:document-units="mm"
     inkscape:current-layer="g1810"
     inkscape:document-rotation="0"
     showgrid="false"
     inkscape:window-width="2560"
     inkscape:window-height="1417"
     inkscape:window-x="1912"
     inkscape:window-y="-8"
     inkscape:window-maximized="1" />
  <metadata
     id="metadata1193">
    <rdf:RDF>
      <cc:Work
         rdf:about="">
        <dc:format>image/svg+xml</dc:format>
        <dc:type
           rdf:resource="http://purl.org/dc/dcmitype/StillImage" />
        <dc:title></dc:title>
      </cc:Work>
    </rdf:RDF>
  </metadata>
  <g
     inkscape:label="Taso 1"
     inkscape:groupmode="layer"
     id="layer1">
    <g
       id="g1810"
       style="stroke-width:0.02;stroke-miterlimit:4;stroke-dasharray:none">
      <rect
         style="fill:none;stroke:#000000;stroke-width:0.02;stroke-linejoin:bevel;stroke-miterlimit:4;stroke-dasharray:none"
         id="rect1759"
         width="269.96881"
         height="119.9688"
         x="6.7259936"
         y="15.022573" />
      <circle
         style="fill:none;stroke:#000000;stroke-width:0.02;stroke-linejoin:bevel;stroke-miterlimit:4;stroke-dasharray:none"
         id="path1770"
         cx="131.90318"
         cy="75.006973"
         r="2.4950492" />
      <rect
         style="fill:none;stroke:#000000;stroke-width:0.02;stroke-linejoin:bevel;stroke-miterlimit:4;stroke-dasharray:none"
         id="rect1774"
         width="4.9862785"
         height="10.986279"
         x="42.717258"
         y="69.51384" />
      <rect
         style="fill:none;stroke:#000000;stroke-width:0.02;stroke-linejoin:bevel;stroke-miterlimit:4;stroke-dasharray:none"
         id="rect1781"
         width="9.9757748"
         height="14.975775"
         x="64.726631"
         y="100.01496" />
      <rect
         style="fill:none;stroke:#000000;stroke-width:0.02;stroke-linejoin:bevel;stroke-miterlimit:4;stroke-dasharray:none"
         id="rect1783"
         width="32.982922"
         height="12.982921"
         x="222.71417"
         y="35.014046" />
      <circle
         style="fill:none;stroke:#000000;stroke-width:0.02;stroke-linejoin:bevel;stroke-miterlimit:4;stroke-dasharray:none"
         id="path1795"
         cx="17.670385"
         cy="75.006973"
         r="1.4958879" />
      <circle
         style="fill:none;stroke:#000000;stroke-width:0.02;stroke-linejoin:bevel;stroke-miterlimit:4;stroke-dasharray:none"
         id="circle1797"
         cx="17.670385"
         cy="85.006973"
         r="1.4958879" />
      <circle
         style="fill:none;stroke:#000000;stroke-width:0.02;stroke-linejoin:bevel;stroke-miterlimit:4;stroke-dasharray:none"
         id="circle1799"
         cx="17.670385"
         cy="65.006973"
         r="1.4958879" />
      <path
         id="path1902"
         style="fill:none;stroke:#000000;stroke-width:0.02;stroke-linejoin:bevel;stroke-miterlimit:4;stroke-dasharray:none"
         d="m 20.322015,189.55645 -8.773351,3.63405 a 47.486294,47.486294 0 0 1 0.09869,0.24113 47.486294,47.486294 0 0 1 0.112073,0.27631 47.486294,47.486294 0 0 1 0.109532,0.27698 47.486294,47.486294 0 0 1 0.108511,0.27817 47.486294,47.486294 0 0 1 0.106214,0.27837 47.486294,47.486294 0 0 1 0.104812,0.27891 47.486294,47.486294 0 0 1 0.102825,0.27976 47.486294,47.486294 0 0 1 0.101493,0.28033 47.486294,47.486294 0 0 1 0.09944,0.28115 47.486294,47.486294 0 0 1 0.09762,0.2815 47.486294,47.486294 0 0 1 0.0958,0.28187 47.486294,47.486294 0 0 1 0.09425,0.28292 47.486294,47.486294 0 0 1 0.09221,0.28374 47.486294,47.486294 0 0 1 0.09061,0.28365 47.486294,47.486294 0 0 1 0.08902,0.28465 47.486294,47.486294 0 0 1 0.08675,0.28485 47.486294,47.486294 0 0 1 0.08518,0.28587 47.486294,47.486294 0 0 1 0.08335,0.28623 47.486294,47.486294 0 0 1 0.08154,0.28659 47.486294,47.486294 0 0 1 0.08019,0.28716 47.486294,47.486294 0 0 1 0.07768,0.2878 47.486294,47.486294 0 0 1 0.07653,0.28786 47.486294,47.486294 0 0 1 0.07448,0.28872 47.486294,47.486294 0 0 1 0.07221,0.28889 47.486294,47.486294 0 0 1 0.07066,0.28992 47.486294,47.486294 0 0 1 0.069,0.2898 47.486294,47.486294 0 0 1 0.06699,0.29063 47.486294,47.486294 0 0 1 0.06538,0.29053 47.486294,47.486294 0 0 1 0.0638,0.29156 47.486294,47.486294 0 0 1 0.0617,0.29124 47.486294,47.486294 0 0 1 0.05969,0.2921 47.486294,47.486294 0 0 1 0.05785,0.29244 47.486294,47.486294 0 0 1 0.05603,0.29281 47.486294,47.486294 0 0 1 0.05439,0.29269 47.486294,47.486294 0 0 1 0.05286,0.29373 47.486294,47.486294 0 0 1 0.05053,0.2939 47.486294,47.486294 0 0 1 0.04845,0.29358 47.486294,47.486294 0 0 1 0.04687,0.29462 47.486294,47.486294 0 0 1 0.04526,0.29451 47.486294,47.486294 0 0 1 0.04342,0.29484 47.486294,47.486294 0 0 1 0.04092,0.29551 47.486294,47.486294 0 0 1 0.03999,0.29512 47.486294,47.486294 0 0 1 0.03745,0.29574 47.486294,47.486294 0 0 1 0.03565,0.29612 47.486294,47.486294 0 0 1 0.03402,0.296 47.486294,47.486294 0 0 1 0.03217,0.29636 47.486294,47.486294 0 0 1 0.03035,0.29671 47.486294,47.486294 0 0 1 0.02826,0.29642 47.486294,47.486294 0 0 1 0.02688,0.29695 47.486294,47.486294 0 0 1 0.02459,0.29713 47.486294,47.486294 0 0 1 0.02229,0.2973 47.486294,47.486294 0 0 1 0.02115,0.29738 47.486294,47.486294 0 0 1 0.019,0.29704 47.486294,47.486294 0 0 1 0.01702,0.29791 47.486294,47.486294 0 0 1 0.01557,0.29732 47.486294,47.486294 0 0 1 0.01354,0.29814 47.486294,47.486294 0 0 1 0.01143,0.29783 47.486294,47.486294 0 0 1 0.0098,0.29771 47.486294,47.486294 0 0 1 0.008,0.29808 47.486294,47.486294 0 0 1 0.0059,0.29777 47.486294,47.486294 0 0 1 0.004,0.29812 47.486294,47.486294 0 0 1 0.0024,0.298 47.486294,47.486294 0 0 1 1.22e-4,0.29819 47.486294,47.486294 0 0 1 -0.0015,0.29805 47.486294,47.486294 0 0 1 -0.0032,0.29794 47.486294,47.486294 0 0 1 -0.0055,0.2981 47.486294,47.486294 0 0 1 -0.0071,0.29799 47.486294,47.486294 0 0 1 -0.0092,0.29769 47.486294,47.486294 0 0 1 -0.01055,0.29823 47.486294,47.486294 0 0 1 -0.01312,0.29772 47.486294,47.486294 0 0 1 -0.0143,0.2978 47.486294,47.486294 0 0 1 -0.01639,0.2975 47.486294,47.486294 0 0 1 -0.01899,0.29697 47.486294,47.486294 0 0 1 -0.01985,0.29774 47.486294,47.486294 0 0 1 -0.02245,0.29722 47.486294,47.486294 0 0 1 -0.02357,0.29731 47.486294,47.486294 0 0 1 -0.02618,0.29679 47.486294,47.486294 0 0 1 -0.02729,0.2969 47.486294,47.486294 0 0 1 -0.02943,0.29658 47.486294,47.486294 0 0 1 -0.03157,0.29624 47.486294,47.486294 0 0 1 -0.03315,0.29612 47.486294,47.486294 0 0 1 -0.03529,0.29583 47.486294,47.486294 0 0 1 -0.03661,0.29639 47.486294,47.486294 0 0 1 -0.03901,0.29538 47.486294,47.486294 0 0 1 -0.04115,0.29508 47.486294,47.486294 0 0 1 -0.04227,0.29517 47.486294,47.486294 0 0 1 -0.04468,0.29415 47.486294,47.486294 0 0 1 -0.04599,0.29474 47.486294,47.486294 0 0 1 -0.04814,0.29442 47.486294,47.486294 0 0 1 -0.05007,0.29361 47.486294,47.486294 0 0 1 -0.05165,0.29352 47.486294,47.486294 0 0 1 -0.05379,0.29318 47.486294,47.486294 0 0 1 -0.05538,0.29309 47.486294,47.486294 0 0 1 -0.05732,0.29229 47.486294,47.486294 0 0 1 -0.05889,0.29219 47.486294,47.486294 0 0 1 -0.06104,0.29187 47.486294,47.486294 0 0 1 -0.06298,0.29105 47.486294,47.486294 0 0 1 -0.06457,0.29097 47.486294,47.486294 0 0 1 -0.06623,0.29082 47.486294,47.486294 0 0 1 -0.06818,0.29003 47.486294,47.486294 0 0 1 -0.07023,0.28974 47.486294,47.486294 0 0 1 -0.0717,0.28913 47.486294,47.486294 0 0 1 -0.07374,0.28883 47.486294,47.486294 0 0 1 -0.07588,0.28852 47.486294,47.486294 0 0 1 -0.07681,0.28812 47.486294,47.486294 0 0 1 -0.07921,0.28714 47.486294,47.486294 0 0 1 -0.08135,0.2868 47.486294,47.486294 0 0 1 -0.08274,0.28623 47.486294,47.486294 0 0 1 -0.08441,0.2861 47.486294,47.486294 0 0 1 -0.0858,0.28552 47.486294,47.486294 0 0 1 -0.0882,0.28454 47.486294,47.486294 0 0 1 -0.09014,0.28372 47.486294,47.486294 0 0 1 -0.09126,0.28382 47.486294,47.486294 0 0 1 -0.0934,0.2835 47.486294,47.486294 0 0 1 -0.09606,0.28183 47.486294,47.486294 0 0 1 -0.09673,0.28212 47.486294,47.486294 0 0 1 -0.09913,0.28112 47.486294,47.486294 0 0 1 -0.10051,0.28054 47.486294,47.486294 0 0 1 -0.101992,0.27994 47.486294,47.486294 0 0 1 -0.103664,0.2798 47.486294,47.486294 0 0 1 -0.105595,0.27844 47.486294,47.486294 0 0 1 -0.107637,0.27816 47.486294,47.486294 0 0 1 -0.109291,0.27691 47.486294,47.486294 0 0 1 -0.110408,0.27701 47.486294,47.486294 0 0 1 -0.112258,0.27623 47.486294,47.486294 0 0 1 -0.02886,0.0696 l 8.773216,3.63398 a 56.983555,56.983555 0 0 0 -9.32e-4,-43.61337 z" />
      <path
         id="path1911"
         style="fill:none;stroke:#000000;stroke-width:0.02;stroke-linejoin:bevel;stroke-miterlimit:4;stroke-dasharray:none"
         d="m 35.122969,190.36867 -8.773351,3.63405 a 47.486294,47.486294 0 0 1 0.09869,0.24113 47.486294,47.486294 0 0 1 0.112072,0.27631 47.486294,47.486294 0 0 1 0.109532,0.27698 47.486294,47.486294 0 0 1 0.108511,0.27817 47.486294,47.486294 0 0 1 0.106214,0.27837 47.486294,47.486294 0 0 1 0.104813,0.27891 47.486294,47.486294 0 0 1 0.102825,0.27976 47.486294,47.486294 0 0 1 0.101493,0.28033 47.486294,47.486294 0 0 1 0.09944,0.28114 47.486294,47.486294 0 0 1 0.09762,0.28151 47.486294,47.486294 0 0 1 0.0958,0.28187 47.486294,47.486294 0 0 1 0.09425,0.28292 47.486294,47.486294 0 0 1 0.09221,0.28374 47.486294,47.486294 0 0 1 0.0906,0.28365 47.486294,47.486294 0 0 1 0.08902,0.28465 47.486294,47.486294 0 0 1 0.08675,0.28484 47.486294,47.486294 0 0 1 0.08518,0.28588 47.486294,47.486294 0 0 1 0.08335,0.28623 47.486294,47.486294 0 0 1 0.08154,0.28659 47.486294,47.486294 0 0 1 0.08019,0.28716 47.486294,47.486294 0 0 1 0.07768,0.28779 47.486294,47.486294 0 0 1 0.07653,0.28787 47.486294,47.486294 0 0 1 0.07449,0.28871 47.486294,47.486294 0 0 1 0.07221,0.2889 47.486294,47.486294 0 0 1 0.07066,0.28992 47.486294,47.486294 0 0 1 0.069,0.28979 47.486294,47.486294 0 0 1 0.06699,0.29064 47.486294,47.486294 0 0 1 0.06538,0.29053 47.486294,47.486294 0 0 1 0.0638,0.29155 47.486294,47.486294 0 0 1 0.0617,0.29125 47.486294,47.486294 0 0 1 0.0597,0.29209 47.486294,47.486294 0 0 1 0.05785,0.29244 47.486294,47.486294 0 0 1 0.05603,0.29281 47.486294,47.486294 0 0 1 0.05439,0.2927 47.486294,47.486294 0 0 1 0.05286,0.29373 47.486294,47.486294 0 0 1 0.05053,0.29389 47.486294,47.486294 0 0 1 0.04845,0.29358 47.486294,47.486294 0 0 1 0.04687,0.29462 47.486294,47.486294 0 0 1 0.04526,0.29451 47.486294,47.486294 0 0 1 0.04342,0.29485 47.486294,47.486294 0 0 1 0.04092,0.2955 47.486294,47.486294 0 0 1 0.03999,0.29512 47.486294,47.486294 0 0 1 0.03745,0.29574 47.486294,47.486294 0 0 1 0.03565,0.29612 47.486294,47.486294 0 0 1 0.03402,0.29601 47.486294,47.486294 0 0 1 0.03217,0.29635 47.486294,47.486294 0 0 1 0.03035,0.29672 47.486294,47.486294 0 0 1 0.02825,0.29641 47.486294,47.486294 0 0 1 0.02689,0.29695 47.486294,47.486294 0 0 1 0.02459,0.29713 47.486294,47.486294 0 0 1 0.02229,0.2973 47.486294,47.486294 0 0 1 0.02115,0.29738 47.486294,47.486294 0 0 1 0.019,0.29704 47.486294,47.486294 0 0 1 0.01702,0.29792 47.486294,47.486294 0 0 1 0.01557,0.29731 47.486294,47.486294 0 0 1 0.01354,0.29814 47.486294,47.486294 0 0 1 0.01143,0.29783 47.486294,47.486294 0 0 1 0.0098,0.29771 47.486294,47.486294 0 0 1 0.008,0.29809 47.486294,47.486294 0 0 1 0.0059,0.29776 47.486294,47.486294 0 0 1 0.004,0.29812 47.486294,47.486294 0 0 1 0.0024,0.298 47.486294,47.486294 0 0 1 1.2e-4,0.29818 47.486294,47.486294 0 0 1 -0.0015,0.29806 47.486294,47.486294 0 0 1 -0.0032,0.29795 47.486294,47.486294 0 0 1 -0.0055,0.2981 47.486294,47.486294 0 0 1 -0.0071,0.29798 47.486294,47.486294 0 0 1 -0.0092,0.29769 47.486294,47.486294 0 0 1 -0.01055,0.29823 47.486294,47.486294 0 0 1 -0.01312,0.29772 47.486294,47.486294 0 0 1 -0.01431,0.29781 47.486294,47.486294 0 0 1 -0.01639,0.2975 47.486294,47.486294 0 0 1 -0.01899,0.29696 47.486294,47.486294 0 0 1 -0.01985,0.29774 47.486294,47.486294 0 0 1 -0.02245,0.29722 47.486294,47.486294 0 0 1 -0.02357,0.29731 47.486294,47.486294 0 0 1 -0.02617,0.2968 47.486294,47.486294 0 0 1 -0.02729,0.29689 47.486294,47.486294 0 0 1 -0.02943,0.29658 47.486294,47.486294 0 0 1 -0.03157,0.29623 47.486294,47.486294 0 0 1 -0.03315,0.29614 47.486294,47.486294 0 0 1 -0.03529,0.29582 47.486294,47.486294 0 0 1 -0.03661,0.29639 47.486294,47.486294 0 0 1 -0.03901,0.29539 47.486294,47.486294 0 0 1 -0.04115,0.29507 47.486294,47.486294 0 0 1 -0.04227,0.29516 47.486294,47.486294 0 0 1 -0.04467,0.29417 47.486294,47.486294 0 0 1 -0.04599,0.29473 47.486294,47.486294 0 0 1 -0.04813,0.29442 47.486294,47.486294 0 0 1 -0.05007,0.29362 47.486294,47.486294 0 0 1 -0.05165,0.29351 47.486294,47.486294 0 0 1 -0.05379,0.29319 47.486294,47.486294 0 0 1 -0.05538,0.29308 47.486294,47.486294 0 0 1 -0.05732,0.29229 47.486294,47.486294 0 0 1 -0.05889,0.29219 47.486294,47.486294 0 0 1 -0.06104,0.29187 47.486294,47.486294 0 0 1 -0.06298,0.29105 47.486294,47.486294 0 0 1 -0.06457,0.29097 47.486294,47.486294 0 0 1 -0.06623,0.29082 47.486294,47.486294 0 0 1 -0.06818,0.29003 47.486294,47.486294 0 0 1 -0.07023,0.28974 47.486294,47.486294 0 0 1 -0.0717,0.28913 47.486294,47.486294 0 0 1 -0.07375,0.28884 47.486294,47.486294 0 0 1 -0.07588,0.28851 47.486294,47.486294 0 0 1 -0.07681,0.28812 47.486294,47.486294 0 0 1 -0.07921,0.28714 47.486294,47.486294 0 0 1 -0.08135,0.28681 47.486294,47.486294 0 0 1 -0.08274,0.28623 47.486294,47.486294 0 0 1 -0.08441,0.2861 47.486294,47.486294 0 0 1 -0.0858,0.28551 47.486294,47.486294 0 0 1 -0.0882,0.28454 47.486294,47.486294 0 0 1 -0.09014,0.28373 47.486294,47.486294 0 0 1 -0.09126,0.28381 47.486294,47.486294 0 0 1 -0.0934,0.28351 47.486294,47.486294 0 0 1 -0.09606,0.28182 47.486294,47.486294 0 0 1 -0.09672,0.28212 47.486294,47.486294 0 0 1 -0.09913,0.28112 47.486294,47.486294 0 0 1 -0.10051,0.28054 47.486294,47.486294 0 0 1 -0.101991,0.27994 47.486294,47.486294 0 0 1 -0.103664,0.2798 47.486294,47.486294 0 0 1 -0.105596,0.27845 47.486294,47.486294 0 0 1 -0.107636,0.27815 47.486294,47.486294 0 0 1 -0.109292,0.27691 47.486294,47.486294 0 0 1 -0.110408,0.27701 47.486294,47.486294 0 0 1 -0.112257,0.27624 47.486294,47.486294 0 0 1 -0.02886,0.0696 l 8.773216,3.63399 a 56.983555,56.983555 0 0 0 -9.32e-4,-43.61337 z" />
      <path
         id="path1913"
         style="fill:none;stroke:#000000;stroke-width:0.02;stroke-linejoin:bevel;stroke-miterlimit:4;stroke-dasharray:none"
         d="m 51.929276,190.78417 -8.773351,3.63405 a 47.486294,47.486294 0 0 1 0.09869,0.24113 47.486294,47.486294 0 0 1 0.112072,0.27631 47.486294,47.486294 0 0 1 0.109532,0.27698 47.486294,47.486294 0 0 1 0.108511,0.27817 47.486294,47.486294 0 0 1 0.106214,0.27837 47.486294,47.486294 0 0 1 0.104813,0.27891 47.486294,47.486294 0 0 1 0.102825,0.27976 47.486294,47.486294 0 0 1 0.101493,0.28033 47.486294,47.486294 0 0 1 0.09944,0.28115 47.486294,47.486294 0 0 1 0.09762,0.2815 47.486294,47.486294 0 0 1 0.0958,0.28187 47.486294,47.486294 0 0 1 0.09425,0.28292 47.486294,47.486294 0 0 1 0.09221,0.28374 47.486294,47.486294 0 0 1 0.0906,0.28365 47.486294,47.486294 0 0 1 0.08902,0.28465 47.486294,47.486294 0 0 1 0.08675,0.28485 47.486294,47.486294 0 0 1 0.08518,0.28587 47.486294,47.486294 0 0 1 0.08335,0.28624 47.486294,47.486294 0 0 1 0.08154,0.28658 47.486294,47.486294 0 0 1 0.08019,0.28716 47.486294,47.486294 0 0 1 0.07768,0.2878 47.486294,47.486294 0 0 1 0.07653,0.28787 47.486294,47.486294 0 0 1 0.07448,0.28871 47.486294,47.486294 0 0 1 0.07221,0.28889 47.486294,47.486294 0 0 1 0.07066,0.28992 47.486294,47.486294 0 0 1 0.069,0.2898 47.486294,47.486294 0 0 1 0.06699,0.29064 47.486294,47.486294 0 0 1 0.06537,0.29052 47.486294,47.486294 0 0 1 0.0638,0.29157 47.486294,47.486294 0 0 1 0.0617,0.29123 47.486294,47.486294 0 0 1 0.05969,0.2921 47.486294,47.486294 0 0 1 0.05785,0.29245 47.486294,47.486294 0 0 1 0.05602,0.2928 47.486294,47.486294 0 0 1 0.05439,0.29269 47.486294,47.486294 0 0 1 0.05286,0.29373 47.486294,47.486294 0 0 1 0.05053,0.2939 47.486294,47.486294 0 0 1 0.04845,0.29358 47.486294,47.486294 0 0 1 0.04687,0.29462 47.486294,47.486294 0 0 1 0.04526,0.29451 47.486294,47.486294 0 0 1 0.04342,0.29484 47.486294,47.486294 0 0 1 0.04092,0.29551 47.486294,47.486294 0 0 1 0.03999,0.29512 47.486294,47.486294 0 0 1 0.03745,0.29574 47.486294,47.486294 0 0 1 0.03565,0.29612 47.486294,47.486294 0 0 1 0.03402,0.296 47.486294,47.486294 0 0 1 0.03217,0.29636 47.486294,47.486294 0 0 1 0.03035,0.29671 47.486294,47.486294 0 0 1 0.02826,0.29642 47.486294,47.486294 0 0 1 0.02688,0.29695 47.486294,47.486294 0 0 1 0.02459,0.29713 47.486294,47.486294 0 0 1 0.02229,0.2973 47.486294,47.486294 0 0 1 0.02115,0.29738 47.486294,47.486294 0 0 1 0.019,0.29705 47.486294,47.486294 0 0 1 0.01702,0.2979 47.486294,47.486294 0 0 1 0.01557,0.29732 47.486294,47.486294 0 0 1 0.01354,0.29814 47.486294,47.486294 0 0 1 0.01143,0.29783 47.486294,47.486294 0 0 1 0.0098,0.29771 47.486294,47.486294 0 0 1 0.008,0.29808 47.486294,47.486294 0 0 1 0.0059,0.29777 47.486294,47.486294 0 0 1 0.004,0.29812 47.486294,47.486294 0 0 1 0.0024,0.298 47.486294,47.486294 0 0 1 1.22e-4,0.29819 47.486294,47.486294 0 0 1 -0.0015,0.29805 47.486294,47.486294 0 0 1 -0.0032,0.29794 47.486294,47.486294 0 0 1 -0.0055,0.2981 47.486294,47.486294 0 0 1 -0.0071,0.29799 47.486294,47.486294 0 0 1 -0.0092,0.29769 47.486294,47.486294 0 0 1 -0.01055,0.29823 47.486294,47.486294 0 0 1 -0.01312,0.29772 47.486294,47.486294 0 0 1 -0.01431,0.2978 47.486294,47.486294 0 0 1 -0.01639,0.2975 47.486294,47.486294 0 0 1 -0.01899,0.29697 47.486294,47.486294 0 0 1 -0.01985,0.29774 47.486294,47.486294 0 0 1 -0.02245,0.29722 47.486294,47.486294 0 0 1 -0.02357,0.29731 47.486294,47.486294 0 0 1 -0.02617,0.2968 47.486294,47.486294 0 0 1 -0.0273,0.29689 47.486294,47.486294 0 0 1 -0.02943,0.29657 47.486294,47.486294 0 0 1 -0.03157,0.29625 47.486294,47.486294 0 0 1 -0.03315,0.29612 47.486294,47.486294 0 0 1 -0.03529,0.29583 47.486294,47.486294 0 0 1 -0.03661,0.29639 47.486294,47.486294 0 0 1 -0.03901,0.29539 47.486294,47.486294 0 0 1 -0.04115,0.29507 47.486294,47.486294 0 0 1 -0.04227,0.29517 47.486294,47.486294 0 0 1 -0.04468,0.29415 47.486294,47.486294 0 0 1 -0.04599,0.29474 47.486294,47.486294 0 0 1 -0.04813,0.29442 47.486294,47.486294 0 0 1 -0.05007,0.29361 47.486294,47.486294 0 0 1 -0.05165,0.29352 47.486294,47.486294 0 0 1 -0.05379,0.29318 47.486294,47.486294 0 0 1 -0.05538,0.29309 47.486294,47.486294 0 0 1 -0.05732,0.29229 47.486294,47.486294 0 0 1 -0.05889,0.29219 47.486294,47.486294 0 0 1 -0.06104,0.29187 47.486294,47.486294 0 0 1 -0.06297,0.29105 47.486294,47.486294 0 0 1 -0.06457,0.29097 47.486294,47.486294 0 0 1 -0.06623,0.29082 47.486294,47.486294 0 0 1 -0.06818,0.29003 47.486294,47.486294 0 0 1 -0.07023,0.28974 47.486294,47.486294 0 0 1 -0.0717,0.28913 47.486294,47.486294 0 0 1 -0.07374,0.28883 47.486294,47.486294 0 0 1 -0.07589,0.28852 47.486294,47.486294 0 0 1 -0.07681,0.28812 47.486294,47.486294 0 0 1 -0.07921,0.28714 47.486294,47.486294 0 0 1 -0.08135,0.2868 47.486294,47.486294 0 0 1 -0.08274,0.28623 47.486294,47.486294 0 0 1 -0.08441,0.2861 47.486294,47.486294 0 0 1 -0.08579,0.28553 47.486294,47.486294 0 0 1 -0.0882,0.28453 47.486294,47.486294 0 0 1 -0.09014,0.28372 47.486294,47.486294 0 0 1 -0.09126,0.28382 47.486294,47.486294 0 0 1 -0.0934,0.2835 47.486294,47.486294 0 0 1 -0.09606,0.28183 47.486294,47.486294 0 0 1 -0.09673,0.28212 47.486294,47.486294 0 0 1 -0.09913,0.28112 47.486294,47.486294 0 0 1 -0.10051,0.28054 47.486294,47.486294 0 0 1 -0.101992,0.27994 47.486294,47.486294 0 0 1 -0.103663,0.2798 47.486294,47.486294 0 0 1 -0.105596,0.27844 47.486294,47.486294 0 0 1 -0.107636,0.27816 47.486294,47.486294 0 0 1 -0.109292,0.27691 47.486294,47.486294 0 0 1 -0.110408,0.27701 47.486294,47.486294 0 0 1 -0.112257,0.27623 47.486294,47.486294 0 0 1 -0.02886,0.0697 l 8.773212,3.63398 a 56.983555,56.983555 0 0 0 -9.32e-4,-43.61338 z" />
      <path
         id="path1915"
         style="fill:none;stroke:#000000;stroke-width:0.02;stroke-linejoin:bevel;stroke-miterlimit:4;stroke-dasharray:none"
         d="m 68.314061,191.22963 -8.773351,3.63405 a 47.486294,47.486294 0 0 1 0.09869,0.24113 47.486294,47.486294 0 0 1 0.112072,0.27632 47.486294,47.486294 0 0 1 0.109532,0.27697 47.486294,47.486294 0 0 1 0.108515,0.27818 47.486294,47.486294 0 0 1 0.10621,0.27837 47.486294,47.486294 0 0 1 0.104813,0.27891 47.486294,47.486294 0 0 1 0.102829,0.27976 47.486294,47.486294 0 0 1 0.101489,0.28032 47.486294,47.486294 0 0 1 0.09944,0.28115 47.486294,47.486294 0 0 1 0.09762,0.2815 47.486294,47.486294 0 0 1 0.0958,0.28188 47.486294,47.486294 0 0 1 0.09425,0.28291 47.486294,47.486294 0 0 1 0.09221,0.28375 47.486294,47.486294 0 0 1 0.0906,0.28364 47.486294,47.486294 0 0 1 0.08902,0.28465 47.486294,47.486294 0 0 1 0.08675,0.28485 47.486294,47.486294 0 0 1 0.08518,0.28587 47.486294,47.486294 0 0 1 0.08335,0.28624 47.486294,47.486294 0 0 1 0.08154,0.28658 47.486294,47.486294 0 0 1 0.08018,0.28717 47.486294,47.486294 0 0 1 0.07768,0.28779 47.486294,47.486294 0 0 1 0.07653,0.28788 47.486294,47.486294 0 0 1 0.07449,0.28871 47.486294,47.486294 0 0 1 0.07221,0.28889 47.486294,47.486294 0 0 1 0.07066,0.28992 47.486294,47.486294 0 0 1 0.069,0.28979 47.486294,47.486294 0 0 1 0.06699,0.29065 47.486294,47.486294 0 0 1 0.06538,0.29053 47.486294,47.486294 0 0 1 0.0638,0.29155 47.486294,47.486294 0 0 1 0.0617,0.29124 47.486294,47.486294 0 0 1 0.0597,0.29209 47.486294,47.486294 0 0 1 0.05785,0.29245 47.486294,47.486294 0 0 1 0.05602,0.2928 47.486294,47.486294 0 0 1 0.05439,0.2927 47.486294,47.486294 0 0 1 0.05286,0.29373 47.486294,47.486294 0 0 1 0.05052,0.29389 47.486294,47.486294 0 0 1 0.04845,0.29358 47.486294,47.486294 0 0 1 0.04687,0.29462 47.486294,47.486294 0 0 1 0.04526,0.29451 47.486294,47.486294 0 0 1 0.04342,0.29485 47.486294,47.486294 0 0 1 0.04092,0.2955 47.486294,47.486294 0 0 1 0.04,0.29513 47.486294,47.486294 0 0 1 0.03745,0.29574 47.486294,47.486294 0 0 1 0.03565,0.29611 47.486294,47.486294 0 0 1 0.03401,0.29601 47.486294,47.486294 0 0 1 0.03217,0.29636 47.486294,47.486294 0 0 1 0.03034,0.29671 47.486294,47.486294 0 0 1 0.02826,0.29642 47.486294,47.486294 0 0 1 0.02689,0.29695 47.486294,47.486294 0 0 1 0.02458,0.29712 47.486294,47.486294 0 0 1 0.02229,0.2973 47.486294,47.486294 0 0 1 0.02115,0.29738 47.486294,47.486294 0 0 1 0.019,0.29705 47.486294,47.486294 0 0 1 0.01702,0.29791 47.486294,47.486294 0 0 1 0.01557,0.29731 47.486294,47.486294 0 0 1 0.01355,0.29815 47.486294,47.486294 0 0 1 0.01143,0.29782 47.486294,47.486294 0 0 1 0.0098,0.29771 47.486294,47.486294 0 0 1 0.008,0.29809 47.486294,47.486294 0 0 1 0.0059,0.29776 47.486294,47.486294 0 0 1 0.004,0.29813 47.486294,47.486294 0 0 1 0.0024,0.298 47.486294,47.486294 0 0 1 1.18e-4,0.29818 47.486294,47.486294 0 0 1 -0.0015,0.29806 47.486294,47.486294 0 0 1 -0.0032,0.29794 47.486294,47.486294 0 0 1 -0.0055,0.2981 47.486294,47.486294 0 0 1 -0.0071,0.29799 47.486294,47.486294 0 0 1 -0.0092,0.29768 47.486294,47.486294 0 0 1 -0.01055,0.29824 47.486294,47.486294 0 0 1 -0.01312,0.29771 47.486294,47.486294 0 0 1 -0.0143,0.29782 47.486294,47.486294 0 0 1 -0.01639,0.29749 47.486294,47.486294 0 0 1 -0.01899,0.29696 47.486294,47.486294 0 0 1 -0.01985,0.29774 47.486294,47.486294 0 0 1 -0.02245,0.29723 47.486294,47.486294 0 0 1 -0.02357,0.29731 47.486294,47.486294 0 0 1 -0.02617,0.29679 47.486294,47.486294 0 0 1 -0.02729,0.2969 47.486294,47.486294 0 0 1 -0.02943,0.29657 47.486294,47.486294 0 0 1 -0.03157,0.29624 47.486294,47.486294 0 0 1 -0.03315,0.29614 47.486294,47.486294 0 0 1 -0.0353,0.29581 47.486294,47.486294 0 0 1 -0.03661,0.29639 47.486294,47.486294 0 0 1 -0.03901,0.2954 47.486294,47.486294 0 0 1 -0.04115,0.29506 47.486294,47.486294 0 0 1 -0.04227,0.29517 47.486294,47.486294 0 0 1 -0.04467,0.29417 47.486294,47.486294 0 0 1 -0.04599,0.29473 47.486294,47.486294 0 0 1 -0.04813,0.29442 47.486294,47.486294 0 0 1 -0.05007,0.29361 47.486294,47.486294 0 0 1 -0.05165,0.29351 47.486294,47.486294 0 0 1 -0.05379,0.29319 47.486294,47.486294 0 0 1 -0.05537,0.29309 47.486294,47.486294 0 0 1 -0.05732,0.29229 47.486294,47.486294 0 0 1 -0.0589,0.29218 47.486294,47.486294 0 0 1 -0.06104,0.29187 47.486294,47.486294 0 0 1 -0.06298,0.29105 47.486294,47.486294 0 0 1 -0.06456,0.29098 47.486294,47.486294 0 0 1 -0.06624,0.29081 47.486294,47.486294 0 0 1 -0.06818,0.29003 47.486294,47.486294 0 0 1 -0.07023,0.28974 47.486294,47.486294 0 0 1 -0.0717,0.28913 47.486294,47.486294 0 0 1 -0.07375,0.28884 47.486294,47.486294 0 0 1 -0.07588,0.28851 47.486294,47.486294 0 0 1 -0.07681,0.28812 47.486294,47.486294 0 0 1 -0.07921,0.28714 47.486294,47.486294 0 0 1 -0.08135,0.28681 47.486294,47.486294 0 0 1 -0.08273,0.28624 47.486294,47.486294 0 0 1 -0.08441,0.28609 47.486294,47.486294 0 0 1 -0.08579,0.28552 47.486294,47.486294 0 0 1 -0.0882,0.28453 47.486294,47.486294 0 0 1 -0.09014,0.28373 47.486294,47.486294 0 0 1 -0.09126,0.28382 47.486294,47.486294 0 0 1 -0.0934,0.2835 47.486294,47.486294 0 0 1 -0.09606,0.28182 47.486294,47.486294 0 0 1 -0.09673,0.28212 47.486294,47.486294 0 0 1 -0.09913,0.28112 47.486294,47.486294 0 0 1 -0.10051,0.28054 47.486294,47.486294 0 0 1 -0.101992,0.27994 47.486294,47.486294 0 0 1 -0.103663,0.2798 47.486294,47.486294 0 0 1 -0.105596,0.27845 47.486294,47.486294 0 0 1 -0.107636,0.27815 47.486294,47.486294 0 0 1 -0.109292,0.27691 47.486294,47.486294 0 0 1 -0.110408,0.27701 47.486294,47.486294 0 0 1 -0.112257,0.27624 47.486294,47.486294 0 0 1 -0.02886,0.0696 l 8.773215,3.63399 a 56.983555,56.983555 0 0 0 -9.35e-4,-43.61338 z" />
      <path
         id="path1917"
         style="fill:none;stroke:#000000;stroke-width:0.02;stroke-linejoin:bevel;stroke-miterlimit:4;stroke-dasharray:none"
         d="m 16.044849,139.68057 -8.7733506,3.63405 a 47.486294,47.486294 0 0 1 0.09869,0.24113 47.486294,47.486294 0 0 1 0.112072,0.27631 47.486294,47.486294 0 0 1 0.109533,0.27698 47.486294,47.486294 0 0 1 0.10851,0.27817 47.486294,47.486294 0 0 1 0.106214,0.27837 47.486294,47.486294 0 0 1 0.104813,0.27891 47.486294,47.486294 0 0 1 0.102825,0.27976 47.486294,47.486294 0 0 1 0.101493,0.28033 47.486294,47.486294 0 0 1 0.09944,0.28114 47.486294,47.486294 0 0 1 0.09762,0.28151 47.486294,47.486294 0 0 1 0.0958,0.28187 47.486294,47.486294 0 0 1 0.09425,0.28292 47.486294,47.486294 0 0 1 0.09221,0.28374 47.486294,47.486294 0 0 1 0.09061,0.28365 47.486294,47.486294 0 0 1 0.08902,0.28465 47.486294,47.486294 0 0 1 0.08675,0.28484 47.486294,47.486294 0 0 1 0.08518,0.28588 47.486294,47.486294 0 0 1 0.08336,0.28624 47.486294,47.486294 0 0 1 0.08154,0.28658 47.486294,47.486294 0 0 1 0.08019,0.28716 47.486294,47.486294 0 0 1 0.07768,0.28779 47.486294,47.486294 0 0 1 0.07653,0.28788 47.486294,47.486294 0 0 1 0.07448,0.2887 47.486294,47.486294 0 0 1 0.07221,0.2889 47.486294,47.486294 0 0 1 0.07066,0.28992 47.486294,47.486294 0 0 1 0.069,0.28979 47.486294,47.486294 0 0 1 0.067,0.29065 47.486294,47.486294 0 0 1 0.06537,0.29052 47.486294,47.486294 0 0 1 0.0638,0.29156 47.486294,47.486294 0 0 1 0.0617,0.29124 47.486294,47.486294 0 0 1 0.0597,0.29209 47.486294,47.486294 0 0 1 0.05785,0.29245 47.486294,47.486294 0 0 1 0.05602,0.2928 47.486294,47.486294 0 0 1 0.05439,0.2927 47.486294,47.486294 0 0 1 0.05286,0.29373 47.486294,47.486294 0 0 1 0.05053,0.29389 47.486294,47.486294 0 0 1 0.04845,0.29358 47.486294,47.486294 0 0 1 0.04687,0.29462 47.486294,47.486294 0 0 1 0.04526,0.29451 47.486294,47.486294 0 0 1 0.04342,0.29485 47.486294,47.486294 0 0 1 0.04092,0.2955 47.486294,47.486294 0 0 1 0.03999,0.29512 47.486294,47.486294 0 0 1 0.03745,0.29574 47.486294,47.486294 0 0 1 0.03565,0.29612 47.486294,47.486294 0 0 1 0.03402,0.29601 47.486294,47.486294 0 0 1 0.03217,0.29635 47.486294,47.486294 0 0 1 0.03035,0.29672 47.486294,47.486294 0 0 1 0.02826,0.29642 47.486294,47.486294 0 0 1 0.02688,0.29694 47.486294,47.486294 0 0 1 0.02459,0.29713 47.486294,47.486294 0 0 1 0.02229,0.2973 47.486294,47.486294 0 0 1 0.02115,0.29738 47.486294,47.486294 0 0 1 0.019,0.29705 47.486294,47.486294 0 0 1 0.01702,0.29791 47.486294,47.486294 0 0 1 0.01557,0.29731 47.486294,47.486294 0 0 1 0.01355,0.29815 47.486294,47.486294 0 0 1 0.01143,0.29782 47.486294,47.486294 0 0 1 0.0098,0.29771 47.486294,47.486294 0 0 1 0.008,0.29809 47.486294,47.486294 0 0 1 0.0059,0.29776 47.486294,47.486294 0 0 1 0.004,0.29812 47.486294,47.486294 0 0 1 0.0024,0.298 47.486294,47.486294 0 0 1 1.23e-4,0.29819 47.486294,47.486294 0 0 1 -0.0015,0.29805 47.486294,47.486294 0 0 1 -0.0032,0.29795 47.486294,47.486294 0 0 1 -0.0055,0.2981 47.486294,47.486294 0 0 1 -0.0071,0.29799 47.486294,47.486294 0 0 1 -0.0092,0.29768 47.486294,47.486294 0 0 1 -0.01055,0.29823 47.486294,47.486294 0 0 1 -0.01312,0.29772 47.486294,47.486294 0 0 1 -0.01431,0.29781 47.486294,47.486294 0 0 1 -0.01639,0.2975 47.486294,47.486294 0 0 1 -0.01899,0.29696 47.486294,47.486294 0 0 1 -0.01985,0.29774 47.486294,47.486294 0 0 1 -0.02245,0.29723 47.486294,47.486294 0 0 1 -0.02357,0.29731 47.486294,47.486294 0 0 1 -0.02617,0.29679 47.486294,47.486294 0 0 1 -0.02729,0.2969 47.486294,47.486294 0 0 1 -0.02943,0.29657 47.486294,47.486294 0 0 1 -0.03157,0.29624 47.486294,47.486294 0 0 1 -0.03315,0.29613 47.486294,47.486294 0 0 1 -0.03529,0.29582 47.486294,47.486294 0 0 1 -0.03661,0.29639 47.486294,47.486294 0 0 1 -0.03901,0.2954 47.486294,47.486294 0 0 1 -0.04115,0.29507 47.486294,47.486294 0 0 1 -0.04227,0.29516 47.486294,47.486294 0 0 1 -0.04468,0.29416 47.486294,47.486294 0 0 1 -0.04599,0.29473 47.486294,47.486294 0 0 1 -0.04813,0.29442 47.486294,47.486294 0 0 1 -0.05007,0.29362 47.486294,47.486294 0 0 1 -0.05165,0.29352 47.486294,47.486294 0 0 1 -0.05379,0.29318 47.486294,47.486294 0 0 1 -0.05538,0.29308 47.486294,47.486294 0 0 1 -0.05732,0.29229 47.486294,47.486294 0 0 1 -0.05889,0.29219 47.486294,47.486294 0 0 1 -0.06104,0.29187 47.486294,47.486294 0 0 1 -0.06298,0.29105 47.486294,47.486294 0 0 1 -0.06457,0.29097 47.486294,47.486294 0 0 1 -0.06623,0.29082 47.486294,47.486294 0 0 1 -0.06818,0.29003 47.486294,47.486294 0 0 1 -0.07023,0.28974 47.486294,47.486294 0 0 1 -0.0717,0.28913 47.486294,47.486294 0 0 1 -0.07375,0.28884 47.486294,47.486294 0 0 1 -0.07588,0.28851 47.486294,47.486294 0 0 1 -0.07681,0.28813 47.486294,47.486294 0 0 1 -0.07921,0.28713 47.486294,47.486294 0 0 1 -0.08135,0.28681 47.486294,47.486294 0 0 1 -0.08274,0.28623 47.486294,47.486294 0 0 1 -0.08441,0.2861 47.486294,47.486294 0 0 1 -0.08579,0.28552 47.486294,47.486294 0 0 1 -0.0882,0.28453 47.486294,47.486294 0 0 1 -0.09014,0.28373 47.486294,47.486294 0 0 1 -0.09126,0.28381 47.486294,47.486294 0 0 1 -0.0934,0.28351 47.486294,47.486294 0 0 1 -0.09606,0.28182 47.486294,47.486294 0 0 1 -0.09673,0.28212 47.486294,47.486294 0 0 1 -0.09913,0.28112 47.486294,47.486294 0 0 1 -0.100511,0.28054 47.486294,47.486294 0 0 1 -0.101991,0.27994 47.486294,47.486294 0 0 1 -0.103665,0.2798 47.486294,47.486294 0 0 1 -0.105594,0.27845 47.486294,47.486294 0 0 1 -0.107637,0.27815 47.486294,47.486294 0 0 1 -0.109291,0.27691 47.486294,47.486294 0 0 1 -0.110408,0.27701 47.486294,47.486294 0 0 1 -0.112258,0.27624 47.486294,47.486294 0 0 1 -0.02886,0.0696 l 8.7732106,3.63398 a 56.983555,56.983555 0 0 0 -8.14e-4,-43.6134 z" />
      <path
         id="path1919"
         style="fill:none;stroke:#000000;stroke-width:0.02;stroke-linejoin:bevel;stroke-miterlimit:4;stroke-dasharray:none"
         d="m 33.187182,139.03155 -8.77335,3.63405 a 47.486294,47.486294 0 0 1 0.09869,0.24113 47.486294,47.486294 0 0 1 0.112072,0.27632 47.486294,47.486294 0 0 1 0.109533,0.27697 47.486294,47.486294 0 0 1 0.10851,0.27817 47.486294,47.486294 0 0 1 0.106214,0.27838 47.486294,47.486294 0 0 1 0.104813,0.27891 47.486294,47.486294 0 0 1 0.102825,0.27975 47.486294,47.486294 0 0 1 0.101493,0.28033 47.486294,47.486294 0 0 1 0.09944,0.28115 47.486294,47.486294 0 0 1 0.09762,0.2815 47.486294,47.486294 0 0 1 0.0958,0.28188 47.486294,47.486294 0 0 1 0.09425,0.2829 47.486294,47.486294 0 0 1 0.09222,0.28375 47.486294,47.486294 0 0 1 0.0906,0.28365 47.486294,47.486294 0 0 1 0.08902,0.28465 47.486294,47.486294 0 0 1 0.08675,0.28485 47.486294,47.486294 0 0 1 0.08519,0.28587 47.486294,47.486294 0 0 1 0.08335,0.28623 47.486294,47.486294 0 0 1 0.08154,0.28659 47.486294,47.486294 0 0 1 0.08018,0.28717 47.486294,47.486294 0 0 1 0.07768,0.28779 47.486294,47.486294 0 0 1 0.07653,0.28787 47.486294,47.486294 0 0 1 0.07448,0.28871 47.486294,47.486294 0 0 1 0.07221,0.28889 47.486294,47.486294 0 0 1 0.07066,0.28992 47.486294,47.486294 0 0 1 0.069,0.2898 47.486294,47.486294 0 0 1 0.06699,0.29064 47.486294,47.486294 0 0 1 0.06538,0.29052 47.486294,47.486294 0 0 1 0.0638,0.29156 47.486294,47.486294 0 0 1 0.0617,0.29125 47.486294,47.486294 0 0 1 0.05969,0.29209 47.486294,47.486294 0 0 1 0.05785,0.29244 47.486294,47.486294 0 0 1 0.05602,0.29281 47.486294,47.486294 0 0 1 0.05439,0.2927 47.486294,47.486294 0 0 1 0.05286,0.29373 47.486294,47.486294 0 0 1 0.05053,0.2939 47.486294,47.486294 0 0 1 0.04845,0.29357 47.486294,47.486294 0 0 1 0.04687,0.29462 47.486294,47.486294 0 0 1 0.04526,0.29451 47.486294,47.486294 0 0 1 0.04342,0.29485 47.486294,47.486294 0 0 1 0.04092,0.2955 47.486294,47.486294 0 0 1 0.03999,0.29513 47.486294,47.486294 0 0 1 0.03745,0.29574 47.486294,47.486294 0 0 1 0.03565,0.29611 47.486294,47.486294 0 0 1 0.03402,0.29601 47.486294,47.486294 0 0 1 0.03217,0.29636 47.486294,47.486294 0 0 1 0.03035,0.29671 47.486294,47.486294 0 0 1 0.02825,0.29641 47.486294,47.486294 0 0 1 0.02689,0.29696 47.486294,47.486294 0 0 1 0.02459,0.29712 47.486294,47.486294 0 0 1 0.02229,0.29731 47.486294,47.486294 0 0 1 0.02115,0.29738 47.486294,47.486294 0 0 1 0.019,0.29704 47.486294,47.486294 0 0 1 0.01702,0.29791 47.486294,47.486294 0 0 1 0.01557,0.29731 47.486294,47.486294 0 0 1 0.01354,0.29815 47.486294,47.486294 0 0 1 0.01143,0.29782 47.486294,47.486294 0 0 1 0.0098,0.29772 47.486294,47.486294 0 0 1 0.008,0.29808 47.486294,47.486294 0 0 1 0.0059,0.29777 47.486294,47.486294 0 0 1 0.004,0.29811 47.486294,47.486294 0 0 1 0.0024,0.298 47.486294,47.486294 0 0 1 1.2e-4,0.29818 47.486294,47.486294 0 0 1 -0.0015,0.29806 47.486294,47.486294 0 0 1 -0.0032,0.29795 47.486294,47.486294 0 0 1 -0.0055,0.2981 47.486294,47.486294 0 0 1 -0.0071,0.29798 47.486294,47.486294 0 0 1 -0.0092,0.29769 47.486294,47.486294 0 0 1 -0.01055,0.29823 47.486294,47.486294 0 0 1 -0.01312,0.29773 47.486294,47.486294 0 0 1 -0.01431,0.2978 47.486294,47.486294 0 0 1 -0.01639,0.29749 47.486294,47.486294 0 0 1 -0.01899,0.29697 47.486294,47.486294 0 0 1 -0.01985,0.29774 47.486294,47.486294 0 0 1 -0.02245,0.29722 47.486294,47.486294 0 0 1 -0.02357,0.29731 47.486294,47.486294 0 0 1 -0.02617,0.2968 47.486294,47.486294 0 0 1 -0.02729,0.29689 47.486294,47.486294 0 0 1 -0.02943,0.29658 47.486294,47.486294 0 0 1 -0.03157,0.29623 47.486294,47.486294 0 0 1 -0.03315,0.29614 47.486294,47.486294 0 0 1 -0.03529,0.29582 47.486294,47.486294 0 0 1 -0.03661,0.2964 47.486294,47.486294 0 0 1 -0.03901,0.29538 47.486294,47.486294 0 0 1 -0.04115,0.29508 47.486294,47.486294 0 0 1 -0.04227,0.29515 47.486294,47.486294 0 0 1 -0.04467,0.29417 47.486294,47.486294 0 0 1 -0.04599,0.29474 47.486294,47.486294 0 0 1 -0.04813,0.29442 47.486294,47.486294 0 0 1 -0.05007,0.29361 47.486294,47.486294 0 0 1 -0.05166,0.29351 47.486294,47.486294 0 0 1 -0.05379,0.29319 47.486294,47.486294 0 0 1 -0.05538,0.29308 47.486294,47.486294 0 0 1 -0.05732,0.2923 47.486294,47.486294 0 0 1 -0.0589,0.29218 47.486294,47.486294 0 0 1 -0.06104,0.29187 47.486294,47.486294 0 0 1 -0.06298,0.29106 47.486294,47.486294 0 0 1 -0.06457,0.29096 47.486294,47.486294 0 0 1 -0.06623,0.29083 47.486294,47.486294 0 0 1 -0.06818,0.29003 47.486294,47.486294 0 0 1 -0.07023,0.28973 47.486294,47.486294 0 0 1 -0.0717,0.28913 47.486294,47.486294 0 0 1 -0.07375,0.28884 47.486294,47.486294 0 0 1 -0.07588,0.28851 47.486294,47.486294 0 0 1 -0.07681,0.28813 47.486294,47.486294 0 0 1 -0.07921,0.28714 47.486294,47.486294 0 0 1 -0.08135,0.2868 47.486294,47.486294 0 0 1 -0.08274,0.28623 47.486294,47.486294 0 0 1 -0.08441,0.2861 47.486294,47.486294 0 0 1 -0.0858,0.28552 47.486294,47.486294 0 0 1 -0.0882,0.28454 47.486294,47.486294 0 0 1 -0.09014,0.28372 47.486294,47.486294 0 0 1 -0.09126,0.28382 47.486294,47.486294 0 0 1 -0.0934,0.2835 47.486294,47.486294 0 0 1 -0.09606,0.28182 47.486294,47.486294 0 0 1 -0.09673,0.28211 47.486294,47.486294 0 0 1 -0.09913,0.28114 47.486294,47.486294 0 0 1 -0.10051,0.28054 47.486294,47.486294 0 0 1 -0.101992,0.27993 47.486294,47.486294 0 0 1 -0.103663,0.2798 47.486294,47.486294 0 0 1 -0.105596,0.27845 47.486294,47.486294 0 0 1 -0.107636,0.27815 47.486294,47.486294 0 0 1 -0.109292,0.27692 47.486294,47.486294 0 0 1 -0.110408,0.277 47.486294,47.486294 0 0 1 -0.112257,0.27624 47.486294,47.486294 0 0 1 -0.02886,0.0697 l 8.773216,3.63398 a 56.983555,56.983555 0 0 0 -9.32e-4,-43.61337 z" />
      <path
         id="path1921"
         style="fill:none;stroke:#000000;stroke-width:0.02;stroke-linejoin:bevel;stroke-miterlimit:4;stroke-dasharray:none"
         d="m 47.107844,138.33562 -8.773351,3.63406 a 47.486294,47.486294 0 0 1 0.09869,0.24112 47.486294,47.486294 0 0 1 0.112072,0.27632 47.486294,47.486294 0 0 1 0.109533,0.27698 47.486294,47.486294 0 0 1 0.108514,0.27817 47.486294,47.486294 0 0 1 0.10621,0.27837 47.486294,47.486294 0 0 1 0.104813,0.27891 47.486294,47.486294 0 0 1 0.102829,0.27976 47.486294,47.486294 0 0 1 0.101489,0.28032 47.486294,47.486294 0 0 1 0.09944,0.28115 47.486294,47.486294 0 0 1 0.09762,0.2815 47.486294,47.486294 0 0 1 0.0958,0.28188 47.486294,47.486294 0 0 1 0.09425,0.28292 47.486294,47.486294 0 0 1 0.09222,0.28374 47.486294,47.486294 0 0 1 0.0906,0.28364 47.486294,47.486294 0 0 1 0.08902,0.28466 47.486294,47.486294 0 0 1 0.08675,0.28484 47.486294,47.486294 0 0 1 0.08518,0.28587 47.486294,47.486294 0 0 1 0.08335,0.28624 47.486294,47.486294 0 0 1 0.08154,0.28659 47.486294,47.486294 0 0 1 0.08019,0.28716 47.486294,47.486294 0 0 1 0.07767,0.28779 47.486294,47.486294 0 0 1 0.07653,0.28788 47.486294,47.486294 0 0 1 0.07449,0.28871 47.486294,47.486294 0 0 1 0.07221,0.28889 47.486294,47.486294 0 0 1 0.07066,0.28992 47.486294,47.486294 0 0 1 0.069,0.28979 47.486294,47.486294 0 0 1 0.067,0.29065 47.486294,47.486294 0 0 1 0.06538,0.29052 47.486294,47.486294 0 0 1 0.0638,0.29156 47.486294,47.486294 0 0 1 0.0617,0.29124 47.486294,47.486294 0 0 1 0.0597,0.29209 47.486294,47.486294 0 0 1 0.05785,0.29245 47.486294,47.486294 0 0 1 0.05602,0.2928 47.486294,47.486294 0 0 1 0.05439,0.29269 47.486294,47.486294 0 0 1 0.05286,0.29373 47.486294,47.486294 0 0 1 0.05053,0.2939 47.486294,47.486294 0 0 1 0.04845,0.29358 47.486294,47.486294 0 0 1 0.04687,0.29462 47.486294,47.486294 0 0 1 0.04526,0.29451 47.486294,47.486294 0 0 1 0.04342,0.29484 47.486294,47.486294 0 0 1 0.04092,0.29551 47.486294,47.486294 0 0 1 0.04,0.29513 47.486294,47.486294 0 0 1 0.03745,0.29574 47.486294,47.486294 0 0 1 0.03565,0.29611 47.486294,47.486294 0 0 1 0.03402,0.296 47.486294,47.486294 0 0 1 0.03217,0.29637 47.486294,47.486294 0 0 1 0.03034,0.2967 47.486294,47.486294 0 0 1 0.02826,0.29642 47.486294,47.486294 0 0 1 0.02689,0.29696 47.486294,47.486294 0 0 1 0.02458,0.29712 47.486294,47.486294 0 0 1 0.02229,0.2973 47.486294,47.486294 0 0 1 0.02115,0.29738 47.486294,47.486294 0 0 1 0.019,0.29705 47.486294,47.486294 0 0 1 0.01702,0.29791 47.486294,47.486294 0 0 1 0.01557,0.29731 47.486294,47.486294 0 0 1 0.01355,0.29815 47.486294,47.486294 0 0 1 0.01143,0.29782 47.486294,47.486294 0 0 1 0.0098,0.29771 47.486294,47.486294 0 0 1 0.008,0.29809 47.486294,47.486294 0 0 1 0.0059,0.29776 47.486294,47.486294 0 0 1 0.004,0.29813 47.486294,47.486294 0 0 1 0.0024,0.298 47.486294,47.486294 0 0 1 1.19e-4,0.29818 47.486294,47.486294 0 0 1 -0.0015,0.29806 47.486294,47.486294 0 0 1 -0.0032,0.29793 47.486294,47.486294 0 0 1 -0.0055,0.2981 47.486294,47.486294 0 0 1 -0.0071,0.298 47.486294,47.486294 0 0 1 -0.0092,0.29768 47.486294,47.486294 0 0 1 -0.01055,0.29824 47.486294,47.486294 0 0 1 -0.01313,0.29771 47.486294,47.486294 0 0 1 -0.0143,0.29782 47.486294,47.486294 0 0 1 -0.01639,0.29748 47.486294,47.486294 0 0 1 -0.01899,0.29697 47.486294,47.486294 0 0 1 -0.01985,0.29774 47.486294,47.486294 0 0 1 -0.02245,0.29722 47.486294,47.486294 0 0 1 -0.02357,0.29731 47.486294,47.486294 0 0 1 -0.02617,0.2968 47.486294,47.486294 0 0 1 -0.02729,0.2969 47.486294,47.486294 0 0 1 -0.02943,0.29657 47.486294,47.486294 0 0 1 -0.03157,0.29624 47.486294,47.486294 0 0 1 -0.03315,0.29613 47.486294,47.486294 0 0 1 -0.0353,0.29582 47.486294,47.486294 0 0 1 -0.03661,0.29639 47.486294,47.486294 0 0 1 -0.03901,0.29539 47.486294,47.486294 0 0 1 -0.04115,0.29507 47.486294,47.486294 0 0 1 -0.04227,0.29517 47.486294,47.486294 0 0 1 -0.04467,0.29416 47.486294,47.486294 0 0 1 -0.04599,0.29474 47.486294,47.486294 0 0 1 -0.04814,0.29442 47.486294,47.486294 0 0 1 -0.05007,0.2936 47.486294,47.486294 0 0 1 -0.05165,0.29352 47.486294,47.486294 0 0 1 -0.05379,0.29319 47.486294,47.486294 0 0 1 -0.05537,0.29309 47.486294,47.486294 0 0 1 -0.05732,0.29229 47.486294,47.486294 0 0 1 -0.0589,0.29218 47.486294,47.486294 0 0 1 -0.06104,0.29187 47.486294,47.486294 0 0 1 -0.06298,0.29105 47.486294,47.486294 0 0 1 -0.06456,0.29098 47.486294,47.486294 0 0 1 -0.06624,0.29081 47.486294,47.486294 0 0 1 -0.06818,0.29003 47.486294,47.486294 0 0 1 -0.07023,0.28974 47.486294,47.486294 0 0 1 -0.0717,0.28913 47.486294,47.486294 0 0 1 -0.07374,0.28883 47.486294,47.486294 0 0 1 -0.07589,0.28852 47.486294,47.486294 0 0 1 -0.07681,0.28812 47.486294,47.486294 0 0 1 -0.07921,0.28714 47.486294,47.486294 0 0 1 -0.08135,0.2868 47.486294,47.486294 0 0 1 -0.08274,0.28624 47.486294,47.486294 0 0 1 -0.08441,0.28609 47.486294,47.486294 0 0 1 -0.08579,0.28553 47.486294,47.486294 0 0 1 -0.0882,0.28453 47.486294,47.486294 0 0 1 -0.09014,0.28372 47.486294,47.486294 0 0 1 -0.09126,0.28383 47.486294,47.486294 0 0 1 -0.0934,0.28349 47.486294,47.486294 0 0 1 -0.09606,0.28183 47.486294,47.486294 0 0 1 -0.09672,0.28212 47.486294,47.486294 0 0 1 -0.09913,0.28112 47.486294,47.486294 0 0 1 -0.100511,0.28054 47.486294,47.486294 0 0 1 -0.101991,0.27994 47.486294,47.486294 0 0 1 -0.103664,0.2798 47.486294,47.486294 0 0 1 -0.105596,0.27844 47.486294,47.486294 0 0 1 -0.107636,0.27816 47.486294,47.486294 0 0 1 -0.109291,0.27691 47.486294,47.486294 0 0 1 -0.110409,0.27701 47.486294,47.486294 0 0 1 -0.112257,0.27623 47.486294,47.486294 0 0 1 -0.02886,0.0696 l 8.773216,3.63399 a 56.983555,56.983555 0 0 0 -9.36e-4,-43.61339 z" />
      <path
         id="path1923"
         style="fill:none;stroke:#000000;stroke-width:0.02;stroke-linejoin:bevel;stroke-miterlimit:4;stroke-dasharray:none"
         d="m 61.845245,138.67377 -8.773351,3.63405 a 47.486294,47.486294 0 0 1 0.09869,0.24113 47.486294,47.486294 0 0 1 0.112072,0.27631 47.486294,47.486294 0 0 1 0.109533,0.27698 47.486294,47.486294 0 0 1 0.10851,0.27817 47.486294,47.486294 0 0 1 0.106214,0.27837 47.486294,47.486294 0 0 1 0.104813,0.27891 47.486294,47.486294 0 0 1 0.102825,0.27976 47.486294,47.486294 0 0 1 0.101493,0.28033 47.486294,47.486294 0 0 1 0.09944,0.28115 47.486294,47.486294 0 0 1 0.09762,0.2815 47.486294,47.486294 0 0 1 0.0958,0.28187 47.486294,47.486294 0 0 1 0.09425,0.28292 47.486294,47.486294 0 0 1 0.09221,0.28374 47.486294,47.486294 0 0 1 0.09061,0.28365 47.486294,47.486294 0 0 1 0.08902,0.28465 47.486294,47.486294 0 0 1 0.08675,0.28485 47.486294,47.486294 0 0 1 0.08518,0.28587 47.486294,47.486294 0 0 1 0.08335,0.28624 47.486294,47.486294 0 0 1 0.08154,0.28658 47.486294,47.486294 0 0 1 0.08019,0.28716 47.486294,47.486294 0 0 1 0.07768,0.2878 47.486294,47.486294 0 0 1 0.07653,0.28787 47.486294,47.486294 0 0 1 0.07448,0.28871 47.486294,47.486294 0 0 1 0.07221,0.28889 47.486294,47.486294 0 0 1 0.07066,0.28992 47.486294,47.486294 0 0 1 0.069,0.28979 47.486294,47.486294 0 0 1 0.067,0.29065 47.486294,47.486294 0 0 1 0.06537,0.29052 47.486294,47.486294 0 0 1 0.06381,0.29157 47.486294,47.486294 0 0 1 0.0617,0.29123 47.486294,47.486294 0 0 1 0.0597,0.29209 47.486294,47.486294 0 0 1 0.05785,0.29245 47.486294,47.486294 0 0 1 0.05602,0.2928 47.486294,47.486294 0 0 1 0.05439,0.2927 47.486294,47.486294 0 0 1 0.05286,0.29373 47.486294,47.486294 0 0 1 0.05052,0.2939 47.486294,47.486294 0 0 1 0.04845,0.29357 47.486294,47.486294 0 0 1 0.04687,0.29462 47.486294,47.486294 0 0 1 0.04526,0.29451 47.486294,47.486294 0 0 1 0.04342,0.29485 47.486294,47.486294 0 0 1 0.04092,0.2955 47.486294,47.486294 0 0 1 0.03999,0.29512 47.486294,47.486294 0 0 1 0.03745,0.29575 47.486294,47.486294 0 0 1 0.03565,0.29611 47.486294,47.486294 0 0 1 0.03402,0.29601 47.486294,47.486294 0 0 1 0.03217,0.29636 47.486294,47.486294 0 0 1 0.03035,0.29671 47.486294,47.486294 0 0 1 0.02826,0.29642 47.486294,47.486294 0 0 1 0.02689,0.29695 47.486294,47.486294 0 0 1 0.02458,0.29712 47.486294,47.486294 0 0 1 0.02229,0.2973 47.486294,47.486294 0 0 1 0.02115,0.29739 47.486294,47.486294 0 0 1 0.019,0.29705 47.486294,47.486294 0 0 1 0.01702,0.2979 47.486294,47.486294 0 0 1 0.01557,0.29731 47.486294,47.486294 0 0 1 0.01355,0.29815 47.486294,47.486294 0 0 1 0.01143,0.29782 47.486294,47.486294 0 0 1 0.0098,0.29771 47.486294,47.486294 0 0 1 0.008,0.29809 47.486294,47.486294 0 0 1 0.0059,0.29777 47.486294,47.486294 0 0 1 0.004,0.29811 47.486294,47.486294 0 0 1 0.0024,0.29801 47.486294,47.486294 0 0 1 1.18e-4,0.29818 47.486294,47.486294 0 0 1 -0.0015,0.29806 47.486294,47.486294 0 0 1 -0.0032,0.29794 47.486294,47.486294 0 0 1 -0.0055,0.2981 47.486294,47.486294 0 0 1 -0.0071,0.29799 47.486294,47.486294 0 0 1 -0.0092,0.29768 47.486294,47.486294 0 0 1 -0.01055,0.29823 47.486294,47.486294 0 0 1 -0.01312,0.29773 47.486294,47.486294 0 0 1 -0.01431,0.2978 47.486294,47.486294 0 0 1 -0.01639,0.2975 47.486294,47.486294 0 0 1 -0.01899,0.29696 47.486294,47.486294 0 0 1 -0.01985,0.29774 47.486294,47.486294 0 0 1 -0.02245,0.29723 47.486294,47.486294 0 0 1 -0.02357,0.29731 47.486294,47.486294 0 0 1 -0.02617,0.2968 47.486294,47.486294 0 0 1 -0.02729,0.29689 47.486294,47.486294 0 0 1 -0.02943,0.29657 47.486294,47.486294 0 0 1 -0.03157,0.29624 47.486294,47.486294 0 0 1 -0.03315,0.29613 47.486294,47.486294 0 0 1 -0.03529,0.29582 47.486294,47.486294 0 0 1 -0.03661,0.2964 47.486294,47.486294 0 0 1 -0.03901,0.29539 47.486294,47.486294 0 0 1 -0.04115,0.29507 47.486294,47.486294 0 0 1 -0.04227,0.29516 47.486294,47.486294 0 0 1 -0.04467,0.29417 47.486294,47.486294 0 0 1 -0.04599,0.29473 47.486294,47.486294 0 0 1 -0.04814,0.29442 47.486294,47.486294 0 0 1 -0.05007,0.29361 47.486294,47.486294 0 0 1 -0.05165,0.29352 47.486294,47.486294 0 0 1 -0.05379,0.29318 47.486294,47.486294 0 0 1 -0.05537,0.29309 47.486294,47.486294 0 0 1 -0.05732,0.29229 47.486294,47.486294 0 0 1 -0.05889,0.29218 47.486294,47.486294 0 0 1 -0.06104,0.29187 47.486294,47.486294 0 0 1 -0.06298,0.29106 47.486294,47.486294 0 0 1 -0.06457,0.29096 47.486294,47.486294 0 0 1 -0.06623,0.29083 47.486294,47.486294 0 0 1 -0.06818,0.29002 47.486294,47.486294 0 0 1 -0.07022,0.28974 47.486294,47.486294 0 0 1 -0.0717,0.28913 47.486294,47.486294 0 0 1 -0.07375,0.28884 47.486294,47.486294 0 0 1 -0.07588,0.28851 47.486294,47.486294 0 0 1 -0.07681,0.28813 47.486294,47.486294 0 0 1 -0.07921,0.28714 47.486294,47.486294 0 0 1 -0.08135,0.2868 47.486294,47.486294 0 0 1 -0.08273,0.28624 47.486294,47.486294 0 0 1 -0.08441,0.28609 47.486294,47.486294 0 0 1 -0.08579,0.28552 47.486294,47.486294 0 0 1 -0.0882,0.28454 47.486294,47.486294 0 0 1 -0.09014,0.28372 47.486294,47.486294 0 0 1 -0.09126,0.28382 47.486294,47.486294 0 0 1 -0.0934,0.2835 47.486294,47.486294 0 0 1 -0.09606,0.28182 47.486294,47.486294 0 0 1 -0.09673,0.28212 47.486294,47.486294 0 0 1 -0.09913,0.28113 47.486294,47.486294 0 0 1 -0.100511,0.28053 47.486294,47.486294 0 0 1 -0.101991,0.27994 47.486294,47.486294 0 0 1 -0.103664,0.2798 47.486294,47.486294 0 0 1 -0.105595,0.27845 47.486294,47.486294 0 0 1 -0.107637,0.27815 47.486294,47.486294 0 0 1 -0.109291,0.27691 47.486294,47.486294 0 0 1 -0.110408,0.27701 47.486294,47.486294 0 0 1 -0.112257,0.27624 47.486294,47.486294 0 0 1 -0.02886,0.0696 l 8.773212,3.63397 a 56.983555,56.983555 0 0 0 -9.31e-4,-43.61337 z" />
      <path
         id="path1929"
         style="fill:none;stroke:#000000;stroke-width:0.02;stroke-linejoin:bevel;stroke-miterlimit:4;stroke-dasharray:none"
         d="m 66.204746,251.14232 a 56.982161,56.982161 0 0 0 56.937604,-56.98205 56.982161,56.982161 0 0 0 -55.570244,-56.965 l -0.1142,9.49658 a 47.485133,47.485133 0 0 1 0.19223,0.005 47.485133,47.485133 0 0 1 0.29817,0.0103 47.485133,47.485133 0 0 1 0.29766,0.0124 47.485133,47.485133 0 0 1 0.29766,0.0139 47.485133,47.485133 0 0 1 0.29765,0.016 47.485133,47.485133 0 0 1 0.29766,0.0176 47.485133,47.485133 0 0 1 0.29714,0.0196 47.485133,47.485133 0 0 1 0.29766,0.0217 47.485133,47.485133 0 0 1 0.29713,0.0232 47.485133,47.485133 0 0 1 0.29663,0.0253 47.485133,47.485133 0 0 1 0.29714,0.0269 47.485133,47.485133 0 0 1 0.29662,0.0289 47.485133,47.485133 0 0 1 0.29611,0.031 47.485133,47.485133 0 0 1 0.29662,0.0326 47.485133,47.485133 0 0 1 0.2961,0.0346 47.485133,47.485133 0 0 1 0.29559,0.0362 47.485133,47.485133 0 0 1 0.29559,0.0382 47.485133,47.485133 0 0 1 0.29559,0.0403 47.485133,47.485133 0 0 1 0.29507,0.0419 47.485133,47.485133 0 0 1 0.29456,0.0439 47.485133,47.485133 0 0 1 0.29456,0.0455 47.485133,47.485133 0 0 1 0.29455,0.0475 47.485133,47.485133 0 0 1 0.29352,0.0496 47.485133,47.485133 0 0 1 0.29404,0.0512 47.485133,47.485133 0 0 1 0.29301,0.0527 47.485133,47.485133 0 0 1 0.293,0.0553 47.485133,47.485133 0 0 1 0.29249,0.0563 47.485133,47.485133 0 0 1 0.29249,0.0589 47.485133,47.485133 0 0 1 0.29197,0.0599 47.485133,47.485133 0 0 1 0.29146,0.0625 47.485133,47.485133 0 0 1 0.29094,0.0641 47.485133,47.485133 0 0 1 0.29094,0.0656 47.485133,47.485133 0 0 1 0.2899,0.0677 47.485133,47.485133 0 0 1 0.2899,0.0698 47.485133,47.485133 0 0 1 0.28939,0.0713 47.485133,47.485133 0 0 1 0.28887,0.0729 47.485133,47.485133 0 0 1 0.28888,0.0749 47.485133,47.485133 0 0 1 0.28783,0.077 47.485133,47.485133 0 0 1 0.28732,0.0786 47.485133,47.485133 0 0 1 0.28732,0.0806 47.485133,47.485133 0 0 1 0.28629,0.0822 47.485133,47.485133 0 0 1 0.28629,0.0837 47.485133,47.485133 0 0 1 0.28525,0.0858 47.485133,47.485133 0 0 1 0.28474,0.0873 47.485133,47.485133 0 0 1 0.28474,0.0894 47.485133,47.485133 0 0 1 0.2837,0.0915 47.485133,47.485133 0 0 1 0.28319,0.0925 47.485133,47.485133 0 0 1 0.28267,0.0951 47.485133,47.485133 0 0 1 0.28163,0.0961 47.485133,47.485133 0 0 1 0.28164,0.0982 47.485133,47.485133 0 0 1 0.2806,0.10025 47.485133,47.485133 0 0 1 0.28009,0.10181 47.485133,47.485133 0 0 1 0.27957,0.10335 47.485133,47.485133 0 0 1 0.27905,0.10542 47.485133,47.485133 0 0 1 0.27802,0.10697 47.485133,47.485133 0 0 1 0.2775,0.10852 47.485133,47.485133 0 0 1 0.27699,0.11059 47.485133,47.485133 0 0 1 0.27595,0.11213 47.485133,47.485133 0 0 1 0.27544,0.11421 47.485133,47.485133 0 0 1 0.27492,0.11575 47.485133,47.485133 0 0 1 0.27388,0.11731 47.485133,47.485133 0 0 1 0.27337,0.11886 47.485133,47.485133 0 0 1 0.27233,0.12092 47.485133,47.485133 0 0 1 0.27182,0.12247 47.485133,47.485133 0 0 1 0.27079,0.12454 47.485133,47.485133 0 0 1 0.27026,0.12557 47.485133,47.485133 0 0 1 0.26924,0.12765 47.485133,47.485133 0 0 1 0.26872,0.1297 47.485133,47.485133 0 0 1 0.26768,0.13074 47.485133,47.485133 0 0 1 0.26665,0.13281 47.485133,47.485133 0 0 1 0.26613,0.13436 47.485133,47.485133 0 0 1 0.26511,0.13591 47.485133,47.485133 0 0 1 0.26458,0.13798 47.485133,47.485133 0 0 1 0.26355,0.13901 47.485133,47.485133 0 0 1 0.26251,0.14107 47.485133,47.485133 0 0 1 0.26149,0.14263 47.485133,47.485133 0 0 1 0.26096,0.14418 47.485133,47.485133 0 0 1 0.25993,0.14624 47.485133,47.485133 0 0 1 0.2589,0.14728 47.485133,47.485133 0 0 1 0.25787,0.14935 47.485133,47.485133 0 0 1 0.25735,0.15089 47.485133,47.485133 0 0 1 0.25631,0.15193 47.485133,47.485133 0 0 1 0.25528,0.15399 47.485133,47.485133 0 0 1 0.25374,0.15607 47.485133,47.485133 0 0 1 0.25373,0.15709 47.485133,47.485133 0 0 1 0.25218,0.15865 47.485133,47.485133 0 0 1 0.25115,0.1602 47.485133,47.485133 0 0 1 0.25011,0.16226 47.485133,47.485133 0 0 1 0.24908,0.1633 47.485133,47.485133 0 0 1 0.24856,0.16485 47.485133,47.485133 0 0 1 0.24702,0.16691 47.485133,47.485133 0 0 1 0.24598,0.16795 47.485133,47.485133 0 0 1 0.24494,0.17001 47.485133,47.485133 0 0 1 0.24391,0.17106 47.485133,47.485133 0 0 1 0.24288,0.17259 47.485133,47.485133 0 0 1 0.24185,0.17467 47.485133,47.485133 0 0 1 0.24081,0.1757 47.485133,47.485133 0 0 1 0.23978,0.17725 47.485133,47.485133 0 0 1 0.23823,0.1788 47.485133,47.485133 0 0 1 0.23719,0.18035 47.485133,47.485133 0 0 1 0.23617,0.1819 47.485133,47.485133 0 0 1 0.23512,0.18294 47.485133,47.485133 0 0 1 0.2341,0.185 47.485133,47.485133 0 0 1 0.23254,0.18603 47.485133,47.485133 0 0 1 0.23151,0.18759 47.485133,47.485133 0 0 1 0.23048,0.18913 47.485133,47.485133 0 0 1 0.22944,0.19069 47.485133,47.485133 0 0 1 0.2279,0.19172 47.485133,47.485133 0 0 1 0.22685,0.19379 47.485133,47.485133 0 0 1 0.22531,0.19482 47.485133,47.485133 0 0 1 0.22428,0.19585 47.485133,47.485133 0 0 1 0.22324,0.19792 47.485133,47.485133 0 0 1 0.22221,0.19896 47.485133,47.485133 0 0 1 0.22014,0.2005 47.485133,47.485133 0 0 1 0.21963,0.20154 47.485133,47.485133 0 0 1 0.21807,0.2036 47.485133,47.485133 0 0 1 0.21653,0.20412 47.485133,47.485133 0 0 1 0.21549,0.20619 47.485133,47.485133 0 0 1 0.21445,0.20723 47.485133,47.485133 0 0 1 0.21291,0.20877 47.485133,47.485133 0 0 1 0.21136,0.20981 47.485133,47.485133 0 0 1 0.21032,0.21135 47.485133,47.485133 0 0 1 0.209284,0.21239 47.485133,47.485133 0 0 1 0.20722,0.21394 47.485133,47.485133 0 0 1 0.20619,0.21498 47.485133,47.485133 0 0 1 0.20516,0.21652 47.485133,47.485133 0 0 1 0.2036,0.21808 47.485133,47.485133 0 0 1 0.20206,0.21859 47.485133,47.485133 0 0 1 0.2005,0.22066 47.485133,47.485133 0 0 1 0.19947,0.22117 47.485133,47.485133 0 0 1 0.19792,0.22324 47.485133,47.485133 0 0 1 0.19689,0.22376 47.485133,47.485133 0 0 1 0.19534,0.22531 47.485133,47.485133 0 0 1 0.19378,0.22634 47.485133,47.485133 0 0 1 0.19224,0.2279 47.485133,47.485133 0 0 1 0.19069,0.22892 47.485133,47.485133 0 0 1 0.18965,0.22996 47.485133,47.485133 0 0 1 0.1881,0.23151 47.485133,47.485133 0 0 1 0.18655,0.23203 47.485133,47.485133 0 0 1 0.185,0.23358 47.485133,47.485133 0 0 1 0.18345,0.23513 47.485133,47.485133 0 0 1 0.18242,0.23564 47.485133,47.485133 0 0 1 0.18035,0.2372 47.485133,47.485133 0 0 1 0.17932,0.23822 47.485133,47.485133 0 0 1 0.17777,0.23927 47.485133,47.485133 0 0 1 0.17621,0.24029 47.485133,47.485133 0 0 1 0.17467,0.24185 47.485133,47.485133 0 0 1 0.17312,0.24236 47.485133,47.485133 0 0 1 0.17156,0.24391 47.485133,47.485133 0 0 1 0.17002,0.24443 47.485133,47.485133 0 0 1 0.16846,0.24598 47.485133,47.485133 0 0 1 0.16743,0.24701 47.485133,47.485133 0 0 1 0.16537,0.24805 47.485133,47.485133 0 0 1 0.16381,0.24856 47.485133,47.485133 0 0 1 0.16227,0.25012 47.485133,47.485133 0 0 1 0.16071,0.25115 47.485133,47.485133 0 0 1 0.15917,0.25166 47.485133,47.485133 0 0 1 0.15761,0.25322 47.485133,47.485133 0 0 1 0.15606,0.25373 47.485133,47.485133 0 0 1 0.15451,0.25528 47.485133,47.485133 0 0 1 0.15245,0.2558 47.485133,47.485133 0 0 1 0.15141,0.25683 47.485133,47.485133 0 0 1 0.14935,0.25786 47.485133,47.485133 0 0 1 0.14831,0.2589 47.485133,47.485133 0 0 1 0.14624,0.25942 47.485133,47.485133 0 0 1 0.1447,0.26045 47.485133,47.485133 0 0 1 0.14314,0.26148 47.485133,47.485133 0 0 1 0.14107,0.26252 47.485133,47.485133 0 0 1 0.14005,0.26355 47.485133,47.485133 0 0 1 0.13798,0.26406 47.485133,47.485133 0 0 1 0.13642,0.2651 47.485133,47.485133 0 0 1 0.13488,0.26562 47.485133,47.485133 0 0 1 0.1328,0.26665 47.485133,47.485133 0 0 1 0.13178,0.26769 47.485133,47.485133 0 0 1 0.12971,0.2682 47.485133,47.485133 0 0 1 0.12764,0.26923 47.485133,47.485133 0 0 1 0.12661,0.26975 47.485133,47.485133 0 0 1 0.12454,0.27078 47.485133,47.485133 0 0 1 0.12299,0.27182 47.485133,47.485133 0 0 1 0.12144,0.27182 47.485133,47.485133 0 0 1 0.11937,0.27337 47.485133,47.485133 0 0 1 0.11782,0.27388 47.485133,47.485133 0 0 1 0.11627,0.27441 47.485133,47.485133 0 0 1 0.11421,0.27491 47.485133,47.485133 0 0 1 0.11265,0.27596 47.485133,47.485133 0 0 1 0.11111,0.27698 47.485133,47.485133 0 0 1 0.10903,0.27699 47.485133,47.485133 0 0 1 0.10749,0.27802 47.485133,47.485133 0 0 1 0.10594,0.27905 47.485133,47.485133 0 0 1 0.10387,0.27905 47.485133,47.485133 0 0 1 0.10232,0.28009 47.485133,47.485133 0 0 1 0.10025,0.2806 47.485133,47.485133 0 0 1 0.0987,0.28112 47.485133,47.485133 0 0 1 0.0966,0.28215 47.485133,47.485133 0 0 1 0.0951,0.28267 47.485133,47.485133 0 0 1 0.0935,0.28267 47.485133,47.485133 0 0 1 0.0915,0.28371 47.485133,47.485133 0 0 1 0.0899,0.28422 47.485133,47.485133 0 0 1 0.0879,0.28474 47.485133,47.485133 0 0 1 0.0863,0.28525 47.485133,47.485133 0 0 1 0.0842,0.28577 47.485133,47.485133 0 0 1 0.0827,0.28681 47.485133,47.485133 0 0 1 0.0811,0.2868 47.485133,47.485133 0 0 1 0.0791,0.28732 47.485133,47.485133 0 0 1 0.077,0.28784 47.485133,47.485133 0 0 1 0.0755,0.28835 47.485133,47.485133 0 0 1 0.0734,0.28887 47.485133,47.485133 0 0 1 0.0718,0.28939 47.485133,47.485133 0 0 1 0.0703,0.28939 47.485133,47.485133 0 0 1 0.0682,0.29042 47.485133,47.485133 0 0 1 0.0656,0.29042 47.485133,47.485133 0 0 1 0.0646,0.29094 47.485133,47.485133 0 0 1 0.0625,0.29146 47.485133,47.485133 0 0 1 0.061,0.29197 47.485133,47.485133 0 0 1 0.0589,0.29197 47.485133,47.485133 0 0 1 0.0574,0.29249 47.485133,47.485133 0 0 1 0.0558,0.293 47.485133,47.485133 0 0 1 0.0527,0.29301 47.485133,47.485133 0 0 1 0.0522,0.29404 47.485133,47.485133 0 0 1 0.0496,0.29352 47.485133,47.485133 0 0 1 0.0481,0.29404 47.485133,47.485133 0 0 1 0.0465,0.29455 47.485133,47.485133 0 0 1 0.0434,0.29508 47.485133,47.485133 0 0 1 0.0429,0.29507 47.485133,47.485133 0 0 1 0.0403,0.29507 47.485133,47.485133 0 0 1 0.0393,0.29559 47.485133,47.485133 0 0 1 0.0367,0.29559 47.485133,47.485133 0 0 1 0.0351,0.29611 47.485133,47.485133 0 0 1 0.0331,0.2961 47.485133,47.485133 0 0 1 0.0315,0.29662 47.485133,47.485133 0 0 1 0.0284,0.29663 47.485133,47.485133 0 0 1 0.0279,0.29662 47.485133,47.485133 0 0 1 0.0258,0.29714 47.485133,47.485133 0 0 1 0.0238,0.29714 47.485133,47.485133 0 0 1 0.0217,0.29714 47.485133,47.485133 0 0 1 0.0207,0.29714 47.485133,47.485133 0 0 1 0.0181,0.29766 47.485133,47.485133 0 0 1 0.016,0.29765 47.485133,47.485133 0 0 1 0.015,0.29766 47.485133,47.485133 0 0 1 0.0124,0.29765 47.485133,47.485133 0 0 1 0.0109,0.29818 47.485133,47.485133 0 0 1 0.009,0.29765 47.485133,47.485133 0 0 1 0.007,0.29818 47.485133,47.485133 0 0 1 0.005,0.29817 47.485133,47.485133 0 0 1 0.003,0.29766 47.485133,47.485133 0 0 1 0.002,0.29817 47.485133,47.485133 0 0 1 0,0.0749 47.485133,47.485133 0 0 1 -0.001,0.29765 47.485133,47.485133 0 0 1 -0.003,0.29818 47.485133,47.485133 0 0 1 -0.005,0.29817 47.485133,47.485133 0 0 1 -0.007,0.29766 47.485133,47.485133 0 0 1 -0.008,0.29817 47.485133,47.485133 0 0 1 -0.01,0.29766 47.485133,47.485133 0 0 1 -0.0124,0.29817 47.485133,47.485133 0 0 1 -0.0145,0.29766 47.485133,47.485133 0 0 1 -0.0155,0.29765 47.485133,47.485133 0 0 1 -0.0181,0.29766 47.485133,47.485133 0 0 1 -0.0191,0.29714 47.485133,47.485133 0 0 1 -0.0217,0.29714 47.485133,47.485133 0 0 1 -0.0238,0.29714 47.485133,47.485133 0 0 1 -0.0248,0.29714 47.485133,47.485133 0 0 1 -0.0274,0.29662 47.485133,47.485133 0 0 1 -0.0289,0.29714 47.485133,47.485133 0 0 1 -0.0305,0.29611 47.485133,47.485133 0 0 1 -0.0331,0.29662 47.485133,47.485133 0 0 1 -0.0346,0.29559 47.485133,47.485133 0 0 1 -0.0362,0.2961 47.485133,47.485133 0 0 1 -0.0382,0.29559 47.485133,47.485133 0 0 1 -0.0398,0.29507 47.485133,47.485133 0 0 1 -0.0424,0.29508 47.485133,47.485133 0 0 1 -0.0439,0.29507 47.485133,47.485133 0 0 1 -0.0455,0.29455 47.485133,47.485133 0 0 1 -0.047,0.29404 47.485133,47.485133 0 0 1 -0.0496,0.29404 47.485133,47.485133 0 0 1 -0.0512,0.29352 47.485133,47.485133 0 0 1 -0.0532,0.29353 47.485133,47.485133 0 0 1 -0.0548,0.293 47.485133,47.485133 0 0 1 -0.0563,0.29249 47.485133,47.485133 0 0 1 -0.0589,0.29249 47.485133,47.485133 0 0 1 -0.0605,0.29145 47.485133,47.485133 0 0 1 -0.062,0.29198 47.485133,47.485133 0 0 1 -0.0641,0.29093 47.485133,47.485133 0 0 1 -0.0662,0.29043 47.485133,47.485133 0 0 1 -0.0677,0.29042 47.485133,47.485133 0 0 1 -0.0687,0.2899 47.485133,47.485133 0 0 1 -0.0713,0.28939 47.485133,47.485133 0 0 1 -0.0734,0.28887 47.485133,47.485133 0 0 1 -0.0749,0.28836 47.485133,47.485133 0 0 1 -0.077,0.28835 47.485133,47.485133 0 0 1 -0.0786,0.28732 47.485133,47.485133 0 0 1 -0.0801,0.2868 47.485133,47.485133 0 0 1 -0.0827,0.28681 47.485133,47.485133 0 0 1 -0.0837,0.28577 47.485133,47.485133 0 0 1 -0.0863,0.28577 47.485133,47.485133 0 0 1 -0.0868,0.28474 47.485133,47.485133 0 0 1 -0.0894,0.28422 47.485133,47.485133 0 0 1 -0.0909,0.2837 47.485133,47.485133 0 0 1 -0.093,0.28319 47.485133,47.485133 0 0 1 -0.0946,0.28267 47.485133,47.485133 0 0 1 -0.0966,0.28215 47.485133,47.485133 0 0 1 -0.0982,0.28164 47.485133,47.485133 0 0 1 -0.0997,0.2806 47.485133,47.485133 0 0 1 -0.1018,0.28009 47.485133,47.485133 0 0 1 -0.10387,0.27957 47.485133,47.485133 0 0 1 -0.1049,0.27905 47.485133,47.485133 0 0 1 -0.10698,0.27802 47.485133,47.485133 0 0 1 -0.10903,0.2775 47.485133,47.485133 0 0 1 -0.11059,0.27699 47.485133,47.485133 0 0 1 -0.11214,0.27595 47.485133,47.485133 0 0 1 -0.11369,0.27544 47.485133,47.485133 0 0 1 -0.11575,0.27491 47.485133,47.485133 0 0 1 -0.11731,0.27389 47.485133,47.485133 0 0 1 -0.11937,0.27285 47.485133,47.485133 0 0 1 -0.12092,0.27285 47.485133,47.485133 0 0 1 -0.12247,0.2713 47.485133,47.485133 0 0 1 -0.12403,0.2713 47.485133,47.485133 0 0 1 -0.12609,0.27027 47.485133,47.485133 0 0 1 -0.12764,0.26924 47.485133,47.485133 0 0 1 -0.12919,0.2682 47.485133,47.485133 0 0 1 -0.13126,0.26768 47.485133,47.485133 0 0 1 -0.13229,0.26717 47.485133,47.485133 0 0 1 -0.13436,0.26613 47.485133,47.485133 0 0 1 -0.13642,0.2651 47.485133,47.485133 0 0 1 -0.13746,0.26459 47.485133,47.485133 0 0 1 -0.13953,0.26303 47.485133,47.485133 0 0 1 -0.14108,0.26303 47.485133,47.485133 0 0 1 -0.14262,0.26148 47.485133,47.485133 0 0 1 -0.14418,0.26097 47.485133,47.485133 0 0 1 -0.14573,0.25993 47.485133,47.485133 0 0 1 -0.14779,0.2589 47.485133,47.485133 0 0 1 -0.14883,0.25787 47.485133,47.485133 0 0 1 -0.1509,0.25735 47.485133,47.485133 0 0 1 -0.15244,0.25579 47.485133,47.485133 0 0 1 -0.154,0.25529 47.485133,47.485133 0 0 1 -0.15554,0.25424 47.485133,47.485133 0 0 1 -0.1571,0.25322 47.485133,47.485133 0 0 1 -0.15916,0.25218 47.485133,47.485133 0 0 1 -0.1602,0.25166 47.485133,47.485133 0 0 1 -0.16175,0.25012 47.485133,47.485133 0 0 1 -0.16381,0.24908 47.485133,47.485133 0 0 1 -0.16485,0.24804 47.485133,47.485133 0 0 1 -0.1664,0.24754 47.485133,47.485133 0 0 1 -0.16846,0.24598 47.485133,47.485133 0 0 1 -0.1695,0.24494 47.485133,47.485133 0 0 1 -0.17157,0.24391 47.485133,47.485133 0 0 1 -0.1726,0.24288 47.485133,47.485133 0 0 1 -0.17415,0.24185 47.485133,47.485133 0 0 1 -0.1757,0.24081 47.485133,47.485133 0 0 1 -0.17725,0.23926 47.485133,47.485133 0 0 1 -0.1788,0.23875 47.485133,47.485133 0 0 1 -0.18035,0.23719 47.485133,47.485133 0 0 1 -0.1819,0.23616 47.485133,47.485133 0 0 1 -0.18345,0.23513 47.485133,47.485133 0 0 1 -0.18449,0.2341 47.485133,47.485133 0 0 1 -0.18655,0.23254 47.485133,47.485133 0 0 1 -0.18758,0.23151 47.485133,47.485133 0 0 1 -0.18914,0.23048 47.485133,47.485133 0 0 1 -0.19017,0.22944 47.485133,47.485133 0 0 1 -0.19224,0.22789 47.485133,47.485133 0 0 1 -0.19327,0.22686 47.485133,47.485133 0 0 1 -0.19481,0.22531 47.485133,47.485133 0 0 1 -0.19637,0.22428 47.485133,47.485133 0 0 1 -0.19741,0.22324 47.485133,47.485133 0 0 1 -0.19947,0.22169 47.485133,47.485133 0 0 1 -0.2005,0.22066 47.485133,47.485133 0 0 1 -0.20154,0.21963 47.485133,47.485133 0 0 1 -0.20309,0.21807 47.485133,47.485133 0 0 1 -0.20464,0.21652 47.485133,47.485133 0 0 1 -0.20619,0.21549 47.485133,47.485133 0 0 1 -0.20722,0.21446 47.485133,47.485133 0 0 1 -0.208254,0.21291 47.485133,47.485133 0 0 1 -0.21032,0.21135 47.485133,47.485133 0 0 1 -0.21084,0.21033 47.485133,47.485133 0 0 1 -0.21291,0.20877 47.485133,47.485133 0 0 1 -0.21394,0.20774 47.485133,47.485133 0 0 1 -0.21497,0.20619 47.485133,47.485133 0 0 1 -0.21652,0.20515 47.485133,47.485133 0 0 1 -0.21756,0.20309 47.485133,47.485133 0 0 1 -0.21911,0.20257 47.485133,47.485133 0 0 1 -0.22014,0.20051 47.485133,47.485133 0 0 1 -0.2217,0.19947 47.485133,47.485133 0 0 1 -0.22272,0.19792 47.485133,47.485133 0 0 1 -0.22428,0.19689 47.485133,47.485133 0 0 1 -0.2253,0.19482 47.485133,47.485133 0 0 1 -0.22635,0.19379 47.485133,47.485133 0 0 1 -0.22738,0.19223 47.485133,47.485133 0 0 1 -0.22892,0.1912 47.485133,47.485133 0 0 1 -0.23048,0.18966 47.485133,47.485133 0 0 1 -0.23099,0.18758 47.485133,47.485133 0 0 1 -0.23255,0.18655 47.485133,47.485133 0 0 1 -0.23357,0.18552 47.485133,47.485133 0 0 1 -0.23461,0.18345 47.485133,47.485133 0 0 1 -0.23617,0.18191 47.485133,47.485133 0 0 1 -0.23719,0.18086 47.485133,47.485133 0 0 1 -0.23823,0.17932 47.485133,47.485133 0 0 1 -0.23926,0.17777 47.485133,47.485133 0 0 1 -0.24029,0.17621 47.485133,47.485133 0 0 1 -0.24133,0.17467 47.485133,47.485133 0 0 1 -0.24288,0.17312 47.485133,47.485133 0 0 1 -0.2434,0.17156 47.485133,47.485133 0 0 1 -0.24494,0.17002 47.485133,47.485133 0 0 1 -0.24599,0.16846 47.485133,47.485133 0 0 1 -0.24649,0.16692 47.485133,47.485133 0 0 1 -0.24805,0.16536 47.485133,47.485133 0 0 1 -0.24908,0.16433 47.485133,47.485133 0 0 1 -0.25011,0.16227 47.485133,47.485133 0 0 1 -0.25064,0.16071 47.485133,47.485133 0 0 1 -0.25217,0.15916 47.485133,47.485133 0 0 1 -0.25322,0.15762 47.485133,47.485133 0 0 1 -0.25373,0.15606 47.485133,47.485133 0 0 1 -0.25477,0.15399 47.485133,47.485133 0 0 1 -0.25631,0.15297 47.485133,47.485133 0 0 1 -0.25683,0.15141 47.485133,47.485133 0 0 1 -0.25787,0.14935 47.485133,47.485133 0 0 1 -0.25838,0.14779 47.485133,47.485133 0 0 1 -0.25993,0.14624 47.485133,47.485133 0 0 1 -0.26045,0.1447 47.485133,47.485133 0 0 1 -0.26148,0.14314 47.485133,47.485133 0 0 1 -0.26252,0.14159 47.485133,47.485133 0 0 1 -0.26303,0.13953 47.485133,47.485133 0 0 1 -0.26407,0.13849 47.485133,47.485133 0 0 1 -0.2651,0.13643 47.485133,47.485133 0 0 1 -0.26613,0.13436 47.485133,47.485133 0 0 1 -0.26665,0.13332 47.485133,47.485133 0 0 1 -0.26717,0.13126 47.485133,47.485133 0 0 1 -0.26872,0.12971 47.485133,47.485133 0 0 1 -0.26872,0.12816 47.485133,47.485133 0 0 1 -0.27026,0.12661 47.485133,47.485133 0 0 1 -0.27079,0.12453 47.485133,47.485133 0 0 1 -0.2713,0.12299 47.485133,47.485133 0 0 1 -0.27234,0.12144 47.485133,47.485133 0 0 1 -0.27285,0.11938 47.485133,47.485133 0 0 1 -0.27388,0.11782 47.485133,47.485133 0 0 1 -0.2744,0.11627 47.485133,47.485133 0 0 1 -0.27544,0.1142 47.485133,47.485133 0 0 1 -0.27595,0.11266 47.485133,47.485133 0 0 1 -0.27647,0.11111 47.485133,47.485133 0 0 1 -0.2775,0.10903 47.485133,47.485133 0 0 1 -0.27802,0.10749 47.485133,47.485133 0 0 1 -0.27854,0.10542 47.485133,47.485133 0 0 1 -0.27957,0.10387 47.485133,47.485133 0 0 1 -0.28008,0.10232 47.485133,47.485133 0 0 1 -0.28061,0.10077 47.485133,47.485133 0 0 1 -0.28112,0.0987 47.485133,47.485133 0 0 1 -0.28215,0.0966 47.485133,47.485133 0 0 1 -0.28215,0.0951 47.485133,47.485133 0 0 1 -0.28319,0.0935 47.485133,47.485133 0 0 1 -0.2837,0.0915 47.485133,47.485133 0 0 1 -0.28422,0.0899 47.485133,47.485133 0 0 1 -0.28474,0.0879 47.485133,47.485133 0 0 1 -0.28526,0.0863 47.485133,47.485133 0 0 1 -0.28577,0.0837 47.485133,47.485133 0 0 1 -0.28628,0.0827 47.485133,47.485133 0 0 1 -0.28681,0.0806 47.485133,47.485133 0 0 1 -0.28783,0.0796 47.485133,47.485133 0 0 1 -0.28784,0.0775 47.485133,47.485133 0 0 1 -0.28836,0.0749 47.485133,47.485133 0 0 1 -0.28887,0.0734 47.485133,47.485133 0 0 1 -0.28887,0.0718 47.485133,47.485133 0 0 1 -0.2899,0.0703 47.485133,47.485133 0 0 1 -0.29043,0.0677 47.485133,47.485133 0 0 1 -0.29042,0.0672 47.485133,47.485133 0 0 1 -0.29094,0.0646 47.485133,47.485133 0 0 1 -0.29145,0.062 47.485133,47.485133 0 0 1 -0.29197,0.0615 47.485133,47.485133 0 0 1 -0.29197,0.0584 47.485133,47.485133 0 0 1 -0.29249,0.0568 47.485133,47.485133 0 0 1 -0.29301,0.0553 47.485133,47.485133 0 0 1 -0.293,0.0537 47.485133,47.485133 0 0 1 -0.29353,0.0517 47.485133,47.485133 0 0 1 -0.29404,0.0496 47.485133,47.485133 0 0 1 -0.29403,0.0481 47.485133,47.485133 0 0 1 -0.29456,0.046 47.485133,47.485133 0 0 1 -0.29456,0.0444 47.485133,47.485133 0 0 1 -0.29507,0.0424 47.485133,47.485133 0 0 1 -0.29559,0.0408 47.485133,47.485133 0 0 1 -0.29559,0.0388 47.485133,47.485133 0 0 1 -0.29558,0.0367 47.485133,47.485133 0 0 1 -0.29611,0.0351 47.485133,47.485133 0 0 1 -0.29611,0.0331 47.485133,47.485133 0 0 1 -0.2961,0.031 47.485133,47.485133 0 0 1 -0.29663,0.0295 47.485133,47.485133 0 0 1 -0.29713,0.0279 47.485133,47.485133 0 0 1 -0.29663,0.0253 47.485133,47.485133 0 0 1 -0.29714,0.0238 47.485133,47.485133 0 0 1 -0.29714,0.0222 47.485133,47.485133 0 0 1 -0.29765,0.0201 47.485133,47.485133 0 0 1 -0.29766,0.0181 47.485133,47.485133 0 0 1 -0.29765,0.0165 47.485133,47.485133 0 0 1 -0.29766,0.0145 47.485133,47.485133 0 0 1 -0.29766,0.0124 47.485133,47.485133 0 0 1 -0.29765,0.0108 47.485133,47.485133 0 0 1 -0.29818,0.009 47.485133,47.485133 0 0 1 -0.29765,0.007 47.485133,47.485133 0 0 1 -0.29818,0.005 47.485133,47.485133 0 0 1 -0.29817,0.003 47.485133,47.485133 0 0 1 -0.21342,0.002 z" />
      <path
         id="path1934"
         style="fill:none;stroke:#000000;stroke-width:0.02;stroke-linejoin:bevel;stroke-miterlimit:4;stroke-dasharray:none"
         d="m 104.72879,137.61134 -0.11421,9.49865 a 47.485133,47.485133 0 0 1 0.0848,-5.2e-4 l -5.2e-4,-10e-4 a 47.485133,47.485133 0 0 1 0.0744,0 47.485133,47.485133 0 0 1 0.29817,10e-4 47.485133,47.485133 0 0 1 0.29817,0.003 47.485133,47.485133 0 0 1 0.29766,0.005 47.485133,47.485133 0 0 1 0.29817,0.007 47.485133,47.485133 0 0 1 0.29817,0.008 47.485133,47.485133 0 0 1 0.29766,0.0103 47.485133,47.485133 0 0 1 0.29766,0.0124 47.485133,47.485133 0 0 1 0.29765,0.014 47.485133,47.485133 0 0 1 0.29766,0.016 47.485133,47.485133 0 0 1 0.29766,0.0176 47.485133,47.485133 0 0 1 0.29765,0.0196 47.485133,47.485133 0 0 1 0.29714,0.0217 47.485133,47.485133 0 0 1 0.29714,0.0232 47.485133,47.485133 0 0 1 0.29714,0.0253 47.485133,47.485133 0 0 1 0.29662,0.0269 47.485133,47.485133 0 0 1 0.29663,0.0289 47.485133,47.485133 0 0 1 0.29662,0.031 47.485133,47.485133 0 0 1 0.29611,0.0326 47.485133,47.485133 0 0 1 0.2961,0.0346 47.485133,47.485133 0 0 1 0.29559,0.0362 47.485133,47.485133 0 0 1 0.29559,0.0382 47.485133,47.485133 0 0 1 0.29559,0.0403 47.485133,47.485133 0 0 1 0.29507,0.0419 47.485133,47.485133 0 0 1 0.29507,0.0439 47.485133,47.485133 0 0 1 0.29456,0.0455 47.485133,47.485133 0 0 1 0.29404,0.0475 47.485133,47.485133 0 0 1 0.29404,0.0496 47.485133,47.485133 0 0 1 0.29352,0.0512 47.485133,47.485133 0 0 1 0.29352,0.0527 47.485133,47.485133 0 0 1 0.29249,0.0548 47.485133,47.485133 0 0 1 0.29301,0.0568 47.485133,47.485133 0 0 1 0.29197,0.0589 47.485133,47.485133 0 0 1 0.29197,0.06 47.485133,47.485133 0 0 1 0.29145,0.062 47.485133,47.485133 0 0 1 0.29094,0.0646 47.485133,47.485133 0 0 1 0.29094,0.0651 47.485133,47.485133 0 0 1 0.29042,0.0677 47.485133,47.485133 0 0 1 0.28991,0.0703 47.485133,47.485133 0 0 1 0.28939,0.0713 47.485133,47.485133 0 0 1 0.28887,0.0729 47.485133,47.485133 0 0 1 0.28835,0.0749 47.485133,47.485133 0 0 1 0.28784,0.077 47.485133,47.485133 0 0 1 0.28784,0.0785 47.485133,47.485133 0 0 1 0.2868,0.0801 47.485133,47.485133 0 0 1 0.28629,0.0822 47.485133,47.485133 0 0 1 0.28629,0.0842 47.485133,47.485133 0 0 1 0.28525,0.0858 47.485133,47.485133 0 0 1 0.28525,0.0873 47.485133,47.485133 0 0 1 0.28423,0.0894 47.485133,47.485133 0 0 1 0.2837,0.0915 47.485133,47.485133 0 0 1 0.28318,0.0925 47.485133,47.485133 0 0 1 0.28267,0.0951 47.485133,47.485133 0 0 1 0.28216,0.0961 47.485133,47.485133 0 0 1 0.28112,0.0982 47.485133,47.485133 0 0 1 0.28112,0.10025 47.485133,47.485133 0 0 1 0.28008,0.1018 47.485133,47.485133 0 0 1 0.27957,0.10336 47.485133,47.485133 0 0 1 0.27854,0.10541 47.485133,47.485133 0 0 1 0.27853,0.10697 47.485133,47.485133 0 0 1 0.27751,0.10853 47.485133,47.485133 0 0 1 0.27647,0.11058 47.485133,47.485133 0 0 1 0.27646,0.11214 47.485133,47.485133 0 0 1 0.27544,0.1142 47.485133,47.485133 0 0 1 0.2744,0.11524 47.485133,47.485133 0 0 1 0.27389,0.11783 47.485133,47.485133 0 0 1 0.27337,0.11885 47.485133,47.485133 0 0 1 0.27233,0.12092 47.485133,47.485133 0 0 1 0.27182,0.12248 47.485133,47.485133 0 0 1 0.27078,0.12454 47.485133,47.485133 0 0 1 0.27027,0.12557 47.485133,47.485133 0 0 1 0.26924,0.12764 47.485133,47.485133 0 0 1 0.26871,0.12919 47.485133,47.485133 0 0 1 0.26769,0.13126 47.485133,47.485133 0 0 1 0.26716,0.13281 47.485133,47.485133 0 0 1 0.26562,0.13436 47.485133,47.485133 0 0 1 0.26562,0.13591 47.485133,47.485133 0 0 1 0.26406,0.13746 47.485133,47.485133 0 0 1 0.26355,0.13952 47.485133,47.485133 0 0 1 0.26252,0.14108 47.485133,47.485133 0 0 1 0.262,0.14263 47.485133,47.485133 0 0 1 0.26045,0.14417 47.485133,47.485133 0 0 1 0.25993,0.14573 47.485133,47.485133 0 0 1 0.2589,0.1478 47.485133,47.485133 0 0 1 0.25838,0.14934 47.485133,47.485133 0 0 1 0.25683,0.15038 47.485133,47.485133 0 0 1 0.25632,0.15244 47.485133,47.485133 0 0 1 0.25528,0.154 47.485133,47.485133 0 0 1 0.25425,0.15555 47.485133,47.485133 0 0 1 0.25322,0.15761 47.485133,47.485133 0 0 1 0.25217,0.15865 47.485133,47.485133 0 0 1 0.25115,0.16019 47.485133,47.485133 0 0 1 0.25012,0.16175 47.485133,47.485133 0 0 1 0.24959,0.16382 47.485133,47.485133 0 0 1 0.24805,0.16484 47.485133,47.485133 0 0 1 0.24701,0.16692 47.485133,47.485133 0 0 1 0.24598,0.16795 47.485133,47.485133 0 0 1 0.24547,0.16949 47.485133,47.485133 0 0 1 0.24391,0.17157 47.485133,47.485133 0 0 1 0.24288,0.1726 47.485133,47.485133 0 0 1 0.24184,0.17415 47.485133,47.485133 0 0 1 0.2403,0.17622 47.485133,47.485133 0 0 1 0.23978,0.17725 47.485133,47.485133 0 0 1 0.23823,0.1788 47.485133,47.485133 0 0 1 0.23771,0.18035 47.485133,47.485133 0 0 1 0.23616,0.18138 47.485133,47.485133 0 0 1 0.23513,0.18345 47.485133,47.485133 0 0 1 0.23358,0.185 47.485133,47.485133 0 0 1 0.23306,0.18604 47.485133,47.485133 0 0 1 0.23151,0.18759 47.485133,47.485133 0 0 1 0.23047,0.18913 47.485133,47.485133 0 0 1 0.22893,0.19069 47.485133,47.485133 0 0 1 0.22789,0.19172 47.485133,47.485133 0 0 1 0.22686,0.19378 47.485133,47.485133 0 0 1 0.22583,0.19482 47.485133,47.485133 0 0 1 0.22427,0.19586 47.485133,47.485133 0 0 1 0.22325,0.19792 47.485133,47.485133 0 0 1 0.22169,0.19895 47.485133,47.485133 0 0 1 0.22066,0.20051 47.485133,47.485133 0 0 1 0.21911,0.20153 47.485133,47.485133 0 0 1 0.21807,0.20361 47.485133,47.485133 0 0 1 0.21704,0.20412 47.485133,47.485133 0 0 1 0.21549,0.20619 47.485133,47.485133 0 0 1 0.21394,0.20722 47.485133,47.485133 0 0 1 0.21291,0.20878 47.485133,47.485133 0 0 1 0.21187,0.2098 47.485133,47.485133 0 0 1 0.21032,0.21136 47.485133,47.485133 0 0 1 0.20878,0.21239 47.485133,47.485133 0 0 1 0.20774,0.21394 47.485133,47.485133 0 0 1 0.20619,0.21497 47.485133,47.485133 0 0 1 0.20463,0.21653 47.485133,47.485133 0 0 1 0.20361,0.21756 47.485133,47.485133 0 0 1 0.20205,0.21911 47.485133,47.485133 0 0 1 0.20103,0.22065 47.485133,47.485133 0 0 1 0.19947,0.22118 47.485133,47.485133 0 0 1 0.19792,0.22272 47.485133,47.485133 0 0 1 0.19637,0.22428 47.485133,47.485133 0 0 1 0.19533,0.22531 47.485133,47.485133 0 0 1 0.19379,0.22634 47.485133,47.485133 0 0 1 0.19224,0.22789 47.485133,47.485133 0 0 1 0.1912,0.22893 47.485133,47.485133 0 0 1 0.18913,0.22996 47.485133,47.485133 0 0 1 0.18811,0.23099 47.485133,47.485133 0 0 1 0.18655,0.23255 47.485133,47.485133 0 0 1 0.185,0.23358 47.485133,47.485133 0 0 1 0.18397,0.23512 47.485133,47.485133 0 0 1 0.1819,0.23565 47.485133,47.485133 0 0 1 0.18087,0.23719 47.485133,47.485133 0 0 1 0.1788,0.23823 47.485133,47.485133 0 0 1 0.17777,0.23926 47.485133,47.485133 0 0 1 0.17621,0.2403 47.485133,47.485133 0 0 1 0.17467,0.24133 47.485133,47.485133 0 0 1 0.17311,0.24288 47.485133,47.485133 0 0 1 0.17157,0.24391 47.485133,47.485133 0 0 1 0.17053,0.24443 47.485133,47.485133 0 0 1 0.16847,0.24598 47.485133,47.485133 0 0 1 0.16691,0.24701 47.485133,47.485133 0 0 1 0.16537,0.24753 47.485133,47.485133 0 0 1 0.16381,0.24908 47.485133,47.485133 0 0 1 0.16227,0.25012 47.485133,47.485133 0 0 1 0.16071,0.25114 47.485133,47.485133 0 0 1 0.15916,0.25167 47.485133,47.485133 0 0 1 0.15761,0.25321 47.485133,47.485133 0 0 1 0.15607,0.25373 47.485133,47.485133 0 0 1 0.15451,0.25529 47.485133,47.485133 0 0 1 0.15296,0.25579 47.485133,47.485133 0 0 1 0.1509,0.25684 47.485133,47.485133 0 0 1 0.14986,0.25786 47.485133,47.485133 0 0 1 0.14779,0.2589 47.485133,47.485133 0 0 1 0.14625,0.25941 47.485133,47.485133 0 0 1 0.14469,0.26045 47.485133,47.485133 0 0 1 0.14315,0.26149 47.485133,47.485133 0 0 1 0.14107,0.26251 47.485133,47.485133 0 0 1 0.14004,0.26355 47.485133,47.485133 0 0 1 0.13798,0.26407 47.485133,47.485133 0 0 1 0.13643,0.26458 47.485133,47.485133 0 0 1 0.13487,0.26614 47.485133,47.485133 0 0 1 0.13333,0.26665 47.485133,47.485133 0 0 1 0.13126,0.26768 47.485133,47.485133 0 0 1 0.1297,0.2682 47.485133,47.485133 0 0 1 0.12816,0.26924 47.485133,47.485133 0 0 1 0.12609,0.26975 47.485133,47.485133 0 0 1 0.12506,0.27078 47.485133,47.485133 0 0 1 0.12299,0.2713 47.485133,47.485133 0 0 1 0.12092,0.27234 47.485133,47.485133 0 0 1 0.11989,0.27337 47.485133,47.485133 0 0 1 0.11782,0.27336 47.485133,47.485133 0 0 1 0.11576,0.27492 47.485133,47.485133 0 0 1 0.11472,0.27492 47.485133,47.485133 0 0 1 0.11266,0.27595 47.485133,47.485133 0 0 1 0.11058,0.27699 47.485133,47.485133 0 0 1 0.10956,0.27698 47.485133,47.485133 0 0 1 0.10697,0.27803 47.485133,47.485133 0 0 1 0.10593,0.27905 47.485133,47.485133 0 0 1 0.10387,0.27905 47.485133,47.485133 0 0 1 0.10232,0.28009 47.485133,47.485133 0 0 1 0.10026,0.2806 47.485133,47.485133 0 0 1 0.0987,0.28112 47.485133,47.485133 0 0 1 0.0971,0.28215 47.485133,47.485133 0 0 1 0.0951,0.28215 47.485133,47.485133 0 0 1 0.093,0.28319 47.485133,47.485133 0 0 1 0.092,0.28371 47.485133,47.485133 0 0 1 0.0894,0.28422 47.485133,47.485133 0 0 1 0.0884,0.28473 47.485133,47.485133 0 0 1 0.0858,0.28526 47.485133,47.485133 0 0 1 0.0847,0.28577 47.485133,47.485133 0 0 1 0.0827,0.2868 47.485133,47.485133 0 0 1 0.0806,0.28681 47.485133,47.485133 0 0 1 0.0791,0.28732 47.485133,47.485133 0 0 1 0.077,0.28783 47.485133,47.485133 0 0 1 0.0754,0.28836 47.485133,47.485133 0 0 1 0.0739,0.28887 47.485133,47.485133 0 0 1 0.0713,0.28939 47.485133,47.485133 0 0 1 0.0703,0.28939 47.485133,47.485133 0 0 1 0.0682,0.29042 47.485133,47.485133 0 0 1 0.0656,0.29042 47.485133,47.485133 0 0 1 0.0646,0.29094 47.485133,47.485133 0 0 1 0.0625,0.29145 47.485133,47.485133 0 0 1 0.061,0.29197 47.485133,47.485133 0 0 1 0.0589,0.29198 47.485133,47.485133 0 0 1 0.0574,0.29249 47.485133,47.485133 0 0 1 0.0553,0.293 47.485133,47.485133 0 0 1 0.0538,0.29301 47.485133,47.485133 0 0 1 0.0517,0.29352 47.485133,47.485133 0 0 1 0.0496,0.29404 47.485133,47.485133 0 0 1 0.0486,0.29404 47.485133,47.485133 0 0 1 0.046,0.29455 47.485133,47.485133 0 0 1 0.0439,0.29507 47.485133,47.485133 0 0 1 0.0429,0.29456 47.485133,47.485133 0 0 1 0.0398,0.29559 47.485133,47.485133 0 0 1 0.0393,0.29559 47.485133,47.485133 0 0 1 0.0367,0.29559 47.485133,47.485133 0 0 1 0.0351,0.2961 47.485133,47.485133 0 0 1 0.0331,0.29611 47.485133,47.485133 0 0 1 0.0315,0.29662 47.485133,47.485133 0 0 1 0.0289,0.29662 47.485133,47.485133 0 0 1 0.0274,0.29663 47.485133,47.485133 0 0 1 0.0258,0.29714 47.485133,47.485133 0 0 1 0.0238,0.29714 47.485133,47.485133 0 0 1 0.0217,0.29714 47.485133,47.485133 0 0 1 0.0202,0.29713 47.485133,47.485133 0 0 1 0.0186,0.29766 47.485133,47.485133 0 0 1 0.016,0.29766 47.485133,47.485133 0 0 1 0.015,0.29765 47.485133,47.485133 0 0 1 0.0124,0.29766 47.485133,47.485133 0 0 1 0.0114,0.29817 47.485133,47.485133 0 0 1 0.009,0.29766 47.485133,47.485133 0 0 1 0.007,0.29817 47.485133,47.485133 0 0 1 0.005,0.29766 47.485133,47.485133 0 0 1 0.004,0.29817 47.485133,47.485133 0 0 1 0.001,0.29817 47.485133,47.485133 0 0 1 5.2e-4,0.0744 47.485133,47.485133 0 0 1 -0.001,0.29817 47.485133,47.485133 0 0 1 -0.003,0.29817 47.485133,47.485133 0 0 1 -0.005,0.29818 47.485133,47.485133 0 0 1 -0.006,0.29765 47.485133,47.485133 0 0 1 -0.009,0.29818 47.485133,47.485133 0 0 1 -0.01,0.29765 47.485133,47.485133 0 0 1 -0.0124,0.29818 47.485133,47.485133 0 0 1 -0.0139,0.29765 47.485133,47.485133 0 0 1 -0.016,0.29766 47.485133,47.485133 0 0 1 -0.0176,0.29714 47.485133,47.485133 0 0 1 -0.0196,0.29766 47.485133,47.485133 0 0 1 -0.0217,0.29713 47.485133,47.485133 0 0 1 -0.0232,0.29714 47.485133,47.485133 0 0 1 -0.0253,0.29714 47.485133,47.485133 0 0 1 -0.0269,0.29663 47.485133,47.485133 0 0 1 -0.0295,0.29662 47.485133,47.485133 0 0 1 -0.0305,0.29662 47.485133,47.485133 0 0 1 -0.0325,0.29611 47.485133,47.485133 0 0 1 -0.0346,0.2961 47.485133,47.485133 0 0 1 -0.0367,0.29611 47.485133,47.485133 0 0 1 -0.0382,0.29559 47.485133,47.485133 0 0 1 -0.0398,0.29507 47.485133,47.485133 0 0 1 -0.0419,0.29507 47.485133,47.485133 0 0 1 -0.0439,0.29508 47.485133,47.485133 0 0 1 -0.046,0.29455 47.485133,47.485133 0 0 1 -0.047,0.29404 47.485133,47.485133 0 0 1 -0.0496,0.29404 47.485133,47.485133 0 0 1 -0.0512,0.29352 47.485133,47.485133 0 0 1 -0.0532,0.29352 47.485133,47.485133 0 0 1 -0.0548,0.29301 47.485133,47.485133 0 0 1 -0.0568,0.29249 47.485133,47.485133 0 0 1 -0.0584,0.29249 47.485133,47.485133 0 0 1 -0.0605,0.29145 47.485133,47.485133 0 0 1 -0.062,0.29146 47.485133,47.485133 0 0 1 -0.0641,0.29145 47.485133,47.485133 0 0 1 -0.0661,0.29042 47.485133,47.485133 0 0 1 -0.0677,0.29042 47.485133,47.485133 0 0 1 -0.0693,0.28991 47.485133,47.485133 0 0 1 -0.0713,0.28939 47.485133,47.485133 0 0 1 -0.0734,0.28887 47.485133,47.485133 0 0 1 -0.0749,0.28835 47.485133,47.485133 0 0 1 -0.0765,0.28836 47.485133,47.485133 0 0 1 -0.0785,0.28732 47.485133,47.485133 0 0 1 -0.0806,0.2868 47.485133,47.485133 0 0 1 -0.0822,0.28681 47.485133,47.485133 0 0 1 -0.0837,0.28577 47.485133,47.485133 0 0 1 -0.0858,0.28577 47.485133,47.485133 0 0 1 -0.0878,0.28474 47.485133,47.485133 0 0 1 -0.0894,0.28422 47.485133,47.485133 0 0 1 -0.0909,0.2837 47.485133,47.485133 0 0 1 -0.093,0.28319 47.485133,47.485133 0 0 1 -0.0946,0.28267 47.485133,47.485133 0 0 1 -0.0966,0.28215 47.485133,47.485133 0 0 1 -0.0982,0.28164 47.485133,47.485133 0 0 1 -0.0997,0.2806 47.485133,47.485133 0 0 1 -0.1018,0.28009 47.485133,47.485133 0 0 1 -0.10335,0.27957 47.485133,47.485133 0 0 1 -0.10542,0.27905 47.485133,47.485133 0 0 1 -0.10697,0.27802 47.485133,47.485133 0 0 1 -0.10904,0.2775 47.485133,47.485133 0 0 1 -0.11007,0.27698 47.485133,47.485133 0 0 1 -0.11214,0.27596 47.485133,47.485133 0 0 1 -0.1142,0.27543 47.485133,47.485133 0 0 1 -0.11576,0.2744 47.485133,47.485133 0 0 1 -0.1173,0.27441 47.485133,47.485133 0 0 1 -0.11938,0.27285 47.485133,47.485133 0 0 1 -0.1204,0.27285 47.485133,47.485133 0 0 1 -0.12299,0.2713 47.485133,47.485133 0 0 1 -0.12403,0.2713 47.485133,47.485133 0 0 1 -0.12609,0.26975 47.485133,47.485133 0 0 1 -0.12764,0.26975 47.485133,47.485133 0 0 1 -0.12919,0.2682 47.485133,47.485133 0 0 1 -0.13074,0.26769 47.485133,47.485133 0 0 1 -0.13281,0.26716 47.485133,47.485133 0 0 1 -0.13436,0.26614 47.485133,47.485133 0 0 1 -0.1359,0.2651 47.485133,47.485133 0 0 1 -0.13798,0.26407 47.485133,47.485133 0 0 1 -0.13901,0.26355 47.485133,47.485133 0 0 1 -0.14108,0.26251 47.485133,47.485133 0 0 1 -0.14262,0.262 47.485133,47.485133 0 0 1 -0.1447,0.26097 47.485133,47.485133 0 0 1 -0.14573,0.25993 47.485133,47.485133 0 0 1 -0.14727,0.2589 47.485133,47.485133 0 0 1 -0.14935,0.25786 47.485133,47.485133 0 0 1 -0.15089,0.25735 47.485133,47.485133 0 0 1 -0.15245,0.2558 47.485133,47.485133 0 0 1 -0.154,0.25528 47.485133,47.485133 0 0 1 -0.15554,0.25425 47.485133,47.485133 0 0 1 -0.1571,0.25322 47.485133,47.485133 0 0 1 -0.15864,0.25218 47.485133,47.485133 0 0 1 -0.16072,0.25114 47.485133,47.485133 0 0 1 -0.16175,0.25063 47.485133,47.485133 0 0 1 -0.16329,0.24908 47.485133,47.485133 0 0 1 -0.16537,0.24805 47.485133,47.485133 0 0 1 -0.16639,0.24702 47.485133,47.485133 0 0 1 -0.16847,0.24649 47.485133,47.485133 0 0 1 -0.1695,0.24495 47.485133,47.485133 0 0 1 -0.17105,0.24391 47.485133,47.485133 0 0 1 -0.17311,0.24288 47.485133,47.485133 0 0 1 -0.17415,0.24185 47.485133,47.485133 0 0 1 -0.1757,0.24081 47.485133,47.485133 0 0 1 -0.17725,0.23926 47.485133,47.485133 0 0 1 -0.1788,0.23874 47.485133,47.485133 0 0 1 -0.18036,0.2372 47.485133,47.485133 0 0 1 -0.1819,0.23616 47.485133,47.485133 0 0 1 -0.18293,0.23513 47.485133,47.485133 0 0 1 -0.185,0.23409 47.485133,47.485133 0 0 1 -0.18604,0.23255 47.485133,47.485133 0 0 1 -0.18758,0.23151 47.485133,47.485133 0 0 1 -0.18914,0.23047 47.485133,47.485133 0 0 1 -0.19068,0.22893 47.485133,47.485133 0 0 1 -0.19224,0.22841 47.485133,47.485133 0 0 1 -0.19327,0.22634 47.485133,47.485133 0 0 1 -0.19482,0.22583 47.485133,47.485133 0 0 1 -0.19637,0.22428 47.485133,47.485133 0 0 1 -0.19741,0.22324 47.485133,47.485133 0 0 1 -0.19895,0.22169 47.485133,47.485133 0 0 1 -0.2005,0.22066 47.485133,47.485133 0 0 1 -0.20206,0.21911 47.485133,47.485133 0 0 1 -0.20309,0.21807 47.485133,47.485133 0 0 1 -0.20464,0.21704 47.485133,47.485133 0 0 1 -0.20567,0.21549 47.485133,47.485133 0 0 1 -0.20722,0.21394 47.485133,47.485133 0 0 1 -0.20877,0.21291 47.485133,47.485133 0 0 1 -0.20981,0.21187 47.485133,47.485133 0 0 1 -0.21136,0.21033 47.485133,47.485133 0 0 1 -0.21239,0.20877 47.485133,47.485133 0 0 1 -0.21394,0.20774 47.485133,47.485133 0 0 1 -0.21549,0.20619 47.485133,47.485133 0 0 1 -0.21652,0.20463 47.485133,47.485133 0 0 1 -0.21756,0.20361 47.485133,47.485133 0 0 1 -0.21911,0.20205 47.485133,47.485133 0 0 1 -0.22014,0.20103 47.485133,47.485133 0 0 1 -0.22169,0.19947 47.485133,47.485133 0 0 1 -0.22273,0.19792 47.485133,47.485133 0 0 1 -0.22375,0.19637 47.485133,47.485133 0 0 1 -0.22531,0.19534 47.485133,47.485133 0 0 1 -0.22635,0.19378 47.485133,47.485133 0 0 1 -0.22789,0.19224 47.485133,47.485133 0 0 1 -0.22893,0.1912 47.485133,47.485133 0 0 1 -0.22996,0.18914 47.485133,47.485133 0 0 1 -0.23151,0.1881 47.485133,47.485133 0 0 1 -0.23254,0.18655 47.485133,47.485133 0 0 1 -0.23358,0.18552 47.485133,47.485133 0 0 1 -0.23461,0.18345 47.485133,47.485133 0 0 1 -0.23616,0.1819 47.485133,47.485133 0 0 1 -0.23668,0.18087 47.485133,47.485133 0 0 1 -0.23823,0.17932 47.485133,47.485133 0 0 1 -0.23926,0.17776 47.485133,47.485133 0 0 1 -0.24081,0.1757 47.485133,47.485133 0 0 1 -0.24133,0.17467 47.485133,47.485133 0 0 1 -0.24236,0.17363 47.485133,47.485133 0 0 1 -0.24391,0.17157 47.485133,47.485133 0 0 1 -0.24495,0.17001 47.485133,47.485133 0 0 1 -0.24546,0.16847 47.485133,47.485133 0 0 1 -0.24702,0.16691 47.485133,47.485133 0 0 1 -0.24804,0.16537 47.485133,47.485133 0 0 1 -0.24909,0.16381 47.485133,47.485133 0 0 1 -0.24959,0.16278 47.485133,47.485133 0 0 1 -0.25115,0.16072 47.485133,47.485133 0 0 1 -0.25218,0.15916 47.485133,47.485133 0 0 1 -0.2527,0.15761 47.485133,47.485133 0 0 1 -0.25425,0.15555 47.485133,47.485133 0 0 1 -0.25476,0.15451 47.485133,47.485133 0 0 1 -0.2558,0.15296 47.485133,47.485133 0 0 1 -0.25683,0.1509 47.485133,47.485133 0 0 1 -0.25787,0.14986 47.485133,47.485133 0 0 1 -0.2589,0.1478 47.485133,47.485133 0 0 1 -0.25941,0.14624 47.485133,47.485133 0 0 1 -0.26097,0.14469 47.485133,47.485133 0 0 1 -0.26148,0.14315 47.485133,47.485133 0 0 1 -0.262,0.14159 47.485133,47.485133 0 0 1 -0.26355,0.13953 47.485133,47.485133 0 0 1 -0.26407,0.13797 47.485133,47.485133 0 0 1 -0.2651,0.13643 47.485133,47.485133 0 0 1 -0.26561,0.13487 47.485133,47.485133 0 0 1 -0.26665,0.13333 47.485133,47.485133 0 0 1 -0.26769,0.13126 47.485133,47.485133 0 0 1 -0.2682,0.12971 47.485133,47.485133 0 0 1 -0.26923,0.12815 47.485133,47.485133 0 0 1 -0.27027,0.12661 47.485133,47.485133 0 0 1 -0.27027,0.12454 47.485133,47.485133 0 0 1 -0.27182,0.12299 47.485133,47.485133 0 0 1 -0.27233,0.12092 47.485133,47.485133 0 0 1 -0.27285,0.11989 47.485133,47.485133 0 0 1 -0.27389,0.11782 47.485133,47.485133 0 0 1 -0.2744,0.11576 47.485133,47.485133 0 0 1 -0.27543,0.11472 47.485133,47.485133 0 0 1 -0.27596,0.11266 47.485133,47.485133 0 0 1 -0.27647,0.1111 47.485133,47.485133 0 0 1 -0.2775,0.10904 47.485133,47.485133 0 0 1 -0.27802,0.10749 47.485133,47.485133 0 0 1 -0.27853,0.10542 47.485133,47.485133 0 0 1 -0.27957,0.10387 47.485133,47.485133 0 0 1 -0.27957,0.10231 47.485133,47.485133 0 0 1 -0.2806,0.10026 47.485133,47.485133 0 0 1 -0.28164,0.0987 47.485133,47.485133 0 0 1 -0.28164,0.0971 47.485133,47.485133 0 0 1 -0.28267,0.0951 47.485133,47.485133 0 0 1 -0.28319,0.0935 47.485133,47.485133 0 0 1 -0.28318,0.0915 47.485133,47.485133 0 0 1 -0.28422,0.0899 47.485133,47.485133 0 0 1 -0.28474,0.0879 47.485133,47.485133 0 0 1 -0.28577,0.0863 47.485133,47.485133 0 0 1 -0.28577,0.0842 47.485133,47.485133 0 0 1 -0.28629,0.0827 47.485133,47.485133 0 0 1 -0.2868,0.0806 47.485133,47.485133 0 0 1 -0.28732,0.0791 47.485133,47.485133 0 0 1 -0.28784,0.0775 47.485133,47.485133 0 0 1 -0.28836,0.0754 47.485133,47.485133 0 0 1 -0.28887,0.0734 47.485133,47.485133 0 0 1 -0.28938,0.0718 47.485133,47.485133 0 0 1 -0.28991,0.0698 47.485133,47.485133 0 0 1 -0.2899,0.0682 47.485133,47.485133 0 0 1 -0.29094,0.0667 47.485133,47.485133 0 0 1 -0.29094,0.0641 47.485133,47.485133 0 0 1 -0.29146,0.063 47.485133,47.485133 0 0 1 -0.29145,0.0605 47.485133,47.485133 0 0 1 -0.29249,0.0594 47.485133,47.485133 0 0 1 -0.29249,0.0568 47.485133,47.485133 0 0 1 -0.29249,0.0553 47.485133,47.485133 0 0 1 -0.29352,0.0537 47.485133,47.485133 0 0 1 -0.29352,0.0517 47.485133,47.485133 0 0 1 -0.29352,0.0496 47.485133,47.485133 0 0 1 -0.29456,0.0481 47.485133,47.485133 0 0 1 -0.29456,0.046 47.485133,47.485133 0 0 1 -0.29455,0.0444 47.485133,47.485133 0 0 1 -0.29507,0.0424 47.485133,47.485133 0 0 1 -0.29508,0.0408 47.485133,47.485133 0 0 1 -0.29558,0.0382 47.485133,47.485133 0 0 1 -0.29611,0.0372 47.485133,47.485133 0 0 1 -0.29559,0.0346 47.485133,47.485133 0 0 1 -0.29662,0.0336 47.485133,47.485133 0 0 1 -0.29611,0.031 47.485133,47.485133 0 0 1 -0.29662,0.0289 47.485133,47.485133 0 0 1 -0.29663,0.0274 47.485133,47.485133 0 0 1 -0.29713,0.0258 47.485133,47.485133 0 0 1 -0.29714,0.0238 47.485133,47.485133 0 0 1 -0.29714,0.0222 47.485133,47.485133 0 0 1 -0.29766,0.0202 47.485133,47.485133 0 0 1 -0.29714,0.0181 47.485133,47.485133 0 0 1 -0.29765,0.0165 47.485133,47.485133 0 0 1 -0.29766,0.0145 47.485133,47.485133 0 0 1 -0.29817,0.0124 47.485133,47.485133 0 0 1 -0.29766,0.0109 47.485133,47.485133 0 0 1 -0.29817,0.009 47.485133,47.485133 0 0 1 -0.29766,0.007 47.485133,47.485133 0 0 1 -0.29817,0.005 47.485133,47.485133 0 0 1 -0.29818,0.003 47.485133,47.485133 0 0 1 -0.29765,0.002 47.485133,47.485133 0 0 1 -0.0749,0 47.485133,47.485133 0 0 1 -0.29817,-0.001 47.485133,47.485133 0 0 1 -0.29766,-0.003 47.485133,47.485133 0 0 1 -0.29817,-0.005 47.485133,47.485133 0 0 1 -0.29818,-0.006 47.485133,47.485133 0 0 1 -0.10542,-0.003 l -0.1142,9.49658 a 56.982161,56.982161 0 0 0 1.4118,0.0176 56.982161,56.982161 0 0 0 56.98205,-56.98256 56.982161,56.982161 0 0 0 -56.98205,-56.98206 56.982161,56.982161 0 0 0 -0.0444,0 z" />
    </g>
  </g>
</svg>
