<?xml version="1.0" encoding="UTF-8" standalone="no"?>
<svg
   xmlns:dc="http://purl.org/dc/elements/1.1/"
   xmlns:cc="http://creativecommons.org/ns#"
   xmlns:rdf="http://www.w3.org/1999/02/22-rdf-syntax-ns#"
   xmlns:svg="http://www.w3.org/2000/svg"
   xmlns="http://www.w3.org/2000/svg"
   xmlns:sodipodi="http://sodipodi.sourceforge.net/DTD/sodipodi-0.dtd"
   xmlns:inkscape="http://www.inkscape.org/namespaces/inkscape"
   height="455.30mm"
   viewBox="0.0 0.0 721.90 455.30"
   width="721.90mm"
   version="1.1"
   id="svg29"
   sodipodi:docname="marble_thrower_box.svg"
   inkscape:version="1.0.2-2 (e86c870879, 2021-01-15)">
  <defs
     id="defs33" />
  <sodipodi:namedview
     pagecolor="#ffffff"
     bordercolor="#666666"
     borderopacity="1"
     objecttolerance="10"
     gridtolerance="10"
     guidetolerance="10"
     inkscape:pageopacity="0"
     inkscape:pageshadow="2"
     inkscape:window-width="2560"
     inkscape:window-height="1417"
     id="namedview31"
     showgrid="false"
     inkscape:zoom="1"
     inkscape:cx="771.03332"
     inkscape:cy="812.96305"
     inkscape:window-x="1912"
     inkscape:window-y="-8"
     inkscape:window-maximized="1"
     inkscape:current-layer="svg29"
     inkscape:document-rotation="0"
     showguides="false" />
  <!--
ClosedBox - Fully closed box


This box is more of a building block than a finished item.
Use a vector graphics program (like Inkscape) to add holes or adjust the base
plate.

See BasedBox for variant with a base.


Created with Boxes.py (https://festi.info/boxes.py)
Creation date: 2021-04-20 07:15:34
Command line (remove spaces between dashes): boxes ClosedBox - -FingerJoint_angle=90.0 - -FingerJoint_style=rectangular - -FingerJoint_surroundingspaces=2.0 - -FingerJoint_edge_width=1.0 - -FingerJoint_finger=2.0 - -FingerJoint_play=0.0 - -FingerJoint_space=2.0 - -FingerJoint_width=1.0 - -x=350 - -y=300 - -h=60 - -outside=0 - -outside=1 - -thickness=3.0 - -format=svg - -tabs=0.0 - -debug=0 - -reference=100 - -burn=0.1
Url: http://festi.info/ClosedBox?FingerJoint_angle=90.0&FingerJoint_style=rectangular&FingerJoint_surroundingspaces=2.0&FingerJoint_edge_width=1.0&FingerJoint_finger=2.0&FingerJoint_play=0.0&FingerJoint_space=2.0&FingerJoint_width=1.0&x=350&y=300&h=60&outside=0&outside=1&thickness=3.0&format=svg&tabs=0.0&debug=0&reference=100&burn=0.1&render=1
SettingsUrl: http://festi.info/ClosedBox?FingerJoint_angle=90.0&FingerJoint_style=rectangular&FingerJoint_surroundingspaces=2.0&FingerJoint_edge_width=1.0&FingerJoint_finger=2.0&FingerJoint_play=0.0&FingerJoint_space=2.0&FingerJoint_width=1.0&x=350&y=300&h=60&outside=0&outside=1&thickness=3.0&format=svg&tabs=0.0&debug=0&reference=100&burn=0.1
-->
  <title
     id="title2">ClosedBox</title>
  <metadata
     id="metadata4">
    <rdf:RDF>
      <cc:Work>
        <dc:title>ClosedBox</dc:title>
        <dc:date>2021-04-20 07:15:34</dc:date>
        <dc:source>http://festi.info/ClosedBox?FingerJoint_angle=90.0&amp;FingerJoint_style=rectangular&amp;FingerJoint_surroundingspaces=2.0&amp;FingerJoint_edge_width=1.0&amp;FingerJoint_finger=2.0&amp;FingerJoint_play=0.0&amp;FingerJoint_space=2.0&amp;FingerJoint_width=1.0&amp;x=350&amp;y=300&amp;h=60&amp;outside=0&amp;outside=1&amp;thickness=3.0&amp;format=svg&amp;tabs=0.0&amp;debug=0&amp;reference=100&amp;burn=0.1&amp;render=1</dc:source>
        <dc:description>Fully closed box

This box is more of a building block than a finished item.
Use a vector graphics program (like Inkscape) to add holes or adjust the base
plate.

See BasedBox for variant with a base.

Created with Boxes.py (https://festi.info/boxes.py)
Command line: boxes ClosedBox --FingerJoint_angle=90.0 --FingerJoint_style=rectangular --FingerJoint_surroundingspaces=2.0 --FingerJoint_edge_width=1.0 --FingerJoint_finger=2.0 --FingerJoint_play=0.0 --FingerJoint_space=2.0 --FingerJoint_width=1.0 --x=350 --y=300 --h=60 --outside=0 --outside=1 --thickness=3.0 --format=svg --tabs=0.0 --debug=0 --reference=100 --burn=0.1
Url: http://festi.info/ClosedBox?FingerJoint_angle=90.0&amp;FingerJoint_style=rectangular&amp;FingerJoint_surroundingspaces=2.0&amp;FingerJoint_edge_width=1.0&amp;FingerJoint_finger=2.0&amp;FingerJoint_play=0.0&amp;FingerJoint_space=2.0&amp;FingerJoint_width=1.0&amp;x=350&amp;y=300&amp;h=60&amp;outside=0&amp;outside=1&amp;thickness=3.0&amp;format=svg&amp;tabs=0.0&amp;debug=0&amp;reference=100&amp;burn=0.1&amp;render=1
SettingsUrl: http://festi.info/ClosedBox?FingerJoint_angle=90.0&amp;FingerJoint_style=rectangular&amp;FingerJoint_surroundingspaces=2.0&amp;FingerJoint_edge_width=1.0&amp;FingerJoint_finger=2.0&amp;FingerJoint_play=0.0&amp;FingerJoint_space=2.0&amp;FingerJoint_width=1.0&amp;x=350&amp;y=300&amp;h=60&amp;outside=0&amp;outside=1&amp;thickness=3.0&amp;format=svg&amp;tabs=0.0&amp;debug=0&amp;reference=100&amp;burn=0.1
</dc:description>
        <dc:format>image/svg+xml</dc:format>
        <dc:type
           rdf:resource="http://purl.org/dc/dcmitype/StillImage" />
      </cc:Work>
    </rdf:RDF>
  </metadata>
  <rect
     style="fill:none;stroke:#000000;stroke-width:0.02;stroke-miterlimit:4;stroke-dasharray:none;stroke-opacity:1"
     id="rect911"
     width="7.9734221"
     height="7.9734221"
     x="323.49576"
     y="36.20887" />
  <circle
     style="fill:none;stroke:#000000;stroke-width:0.02;stroke-opacity:1;stroke-miterlimit:4;stroke-dasharray:none"
     id="path917"
     cx="335.24966"
     cy="246.66545"
     r="2.5" />
  <circle
     style="fill:none;stroke:#000000;stroke-width:0.02;stroke-opacity:1;stroke-miterlimit:4;stroke-dasharray:none"
     id="path917-6"
     cx="335.24963"
     cy="262.81616"
     r="2.5" />
  <circle
     style="fill:none;stroke:#000000;stroke-width:0.02;stroke-opacity:1;stroke-miterlimit:4;stroke-dasharray:none"
     id="path917-7"
     cx="335.24966"
     cy="279.4563"
     r="2.5" />
  <circle
     style="fill:none;stroke:#000000;stroke-width:0.02;stroke-miterlimit:4;stroke-dasharray:none;stroke-opacity:1"
     id="path979"
     cx="327.41901"
     cy="65.58168"
     r="2.9900334" />
  <circle
     style="fill:none;stroke:#000000;stroke-width:0.02;stroke-linejoin:bevel;stroke-miterlimit:4;stroke-dasharray:none;stroke-opacity:1"
     id="path860"
     cx="166.52362"
     cy="159.67181"
     r="134.99001" />
  <circle
     style="fill:none;stroke:#000000;stroke-width:0.02;stroke-linejoin:bevel;stroke-miterlimit:4;stroke-dasharray:none;stroke-opacity:1"
     id="circle862"
     cx="166.52362"
     cy="159.67181"
     r="2.4993553" />
  <rect
     style="fill:none;stroke:#000000;stroke-width:0.02;stroke-linejoin:bevel;stroke-miterlimit:4;stroke-dasharray:none;stroke-opacity:1"
     id="rect864"
     width="6.9625134"
     height="11.979342"
     x="80.419922"
     y="173.51367" />
  <rect
     style="fill:none;stroke:#000000;stroke-width:0.02;stroke-linejoin:bevel;stroke-miterlimit:4;stroke-dasharray:none;stroke-opacity:1"
     id="rect866"
     width="3.1637039"
     height="9.7736626"
     x="61.940536"
     y="154.78217" />
  <rect
     style="fill:none;stroke:#000000;stroke-width:0.02;stroke-linejoin:bevel;stroke-miterlimit:4;stroke-dasharray:none;stroke-opacity:1"
     id="rect870"
     width="32.980022"
     height="12.980021"
     x="229.08684"
     y="123.46437" />
  <rect
     style="fill:none;stroke:#000000;stroke-width:0.02;stroke-linejoin:bevel;stroke-miterlimit:4;stroke-dasharray:none;stroke-opacity:1"
     id="rect872"
     width="3.9917378"
     height="8.9917383"
     x="325.23962"
     y="80.478897" />
  <circle
     style="fill:none;stroke:#000000;stroke-width:0.02;stroke-linejoin:bevel;stroke-miterlimit:4;stroke-dasharray:none;stroke-opacity:1"
     id="circle853"
     cx="166.52362"
     cy="159.67181"
     r="0.00045451487" />
  <g
     id="panel5038"
     transform="translate(-48.947918,-43.391667)"
     style="stroke-width:0.02;stroke-miterlimit:4;stroke-dasharray:none">
    <path
       style="fill:none;stroke:#000000;stroke-width:0.02;stroke-miterlimit:4;stroke-dasharray:none"
       d="m 59,363 h 6.1909 v -3 h 6.17 v 3 h 6.1058 v -3 h 6.17 v 3 h 6.1059 v -3 h 6.17 v 3 h 6.1054 v -3 h 6.17 v 3 h 6.106 v -3 h 6.17 v 3 h 6.106 v -3 h 6.17 v 3 h 6.106 v -3 h 6.17 v 3 h 6.106 v -3 h 6.17 v 3 h 6.106 v -3 h 6.17 v 3 h 6.106 v -3 h 6.17 v 3 h 6.105 v -3 h 6.17 v 3 h 6.106 v -3 h 6.17 v 3 h 6.106 v -3 h 6.17 v 3 h 6.106 v -3 h 6.17 v 3 h 6.106 v -3 h 6.17 v 3 h 6.106 v -3 h 6.17 v 3 h 6.106 v -3 h 6.17 v 3 h 6.106 v -3 h 6.17 v 3 h 6.105 v -3 h 6.17 v 3 h 6.106 v -3 h 6.17 v 3 h 6.106 v -3 h 6.17 v 3 h 6.106 v -3 h 6.17 v 3 h 6.106 v -3 h 6.17 v 3 h 6.106 v -3 h 6.17 v 3 h 6.106 v -3 h 6.17 v 3 h 6.105 v -3 h 6.17 v 3 h 6.106 v -3 h 6.17 v 3 h 6.106 v -3 h 6.17 v 3 H 409"
       id="path882" />
    <path
       style="fill:none;stroke:#000000;stroke-width:0.02;stroke-miterlimit:4;stroke-dasharray:none"
       d="m 409,363 v 3.685 h -3 v 5.83 h 3 v 6.77 h -3 v 5.83 h 3 v 6.77 h -3 v 5.83 h 3 v 6.77 h -3 v 5.83 h 3 V 414"
       id="path884" />
    <path
       style="fill:none;stroke:#000000;stroke-width:0.02;stroke-miterlimit:4;stroke-dasharray:none"
       d="m 409,414 h -6.191 v 3 h -6.17 v -3 h -6.106 v 3 h -6.17 v -3 h -6.106 v 3 h -6.17 v -3 h -6.105 v 3 h -6.17 v -3 h -6.106 v 3 h -6.17 v -3 h -6.106 v 3 h -6.17 v -3 h -6.106 v 3 h -6.17 v -3 h -6.106 v 3 h -6.17 v -3 h -6.106 v 3 h -6.17 v -3 h -6.106 v 3 h -6.17 v -3 h -6.105 v 3 h -6.17 v -3 h -6.106 v 3 h -6.17 v -3 h -6.106 v 3 h -6.17 v -3 h -6.106 v 3 h -6.17 v -3 h -6.106 v 3 h -6.17 v -3 h -6.106 v 3 h -6.17 v -3 h -6.106 v 3 h -6.17 v -3 h -6.106 v 3 h -6.17 v -3 h -6.105 v 3 h -6.17 v -3 h -6.106 v 3 h -6.17 v -3 h -6.106 v 3 h -6.17 v -3 h -6.106 v 3 h -6.17 v -3 h -6.106 v 3 h -6.17 v -3 h -6.106 v 3 h -6.17 v -3 h -6.106 v 3 h -6.17 v -3 h -6.1054 v 3 h -6.17 v -3 h -6.1059 v 3 h -6.17 v -3 h -6.1058 v 3 h -6.17 v -3 H 59"
       id="path886" />
    <path
       style="fill:none;stroke:#000000;stroke-width:0.02;stroke-miterlimit:4;stroke-dasharray:none"
       d="m 59,414 v -3.685 h 3 v -5.83 h -3 v -6.77 h 3 v -5.83 h -3 v -6.77 h 3 v -5.83 h -3 v -6.77 h 3 v -5.83 H 59 V 363"
       id="path888" />
  </g>
  <g
     id="panel8408"
     transform="rotate(90,205.90904,521.35069)"
     style="stroke-width:0.02;stroke-miterlimit:4;stroke-dasharray:none">
    <path
       style="fill:none;stroke:#000000;stroke-width:0.02;stroke-miterlimit:4;stroke-dasharray:none"
       d="m 4,62 h 3.515 v -3 h 6.17 v 3 h 6.43 v -3 h 6.17 v 3 h 6.43 v -3 h 6.17 v 3 h 6.43 v -3 h 6.17 v 3 H 55"
       id="path921" />
    <path
       style="fill:none;stroke:#000000;stroke-width:0.02;stroke-miterlimit:4;stroke-dasharray:none"
       d="m 55,62 v 3.155 h 3 v 6.17 h -3 v 6.07 h 3 v 6.17 h -3 v 6.07 h 3 v 6.17 h -3 v 6.07 h 3 v 6.17 h -3 v 6.07 h 3 v 6.17 h -3 v 6.07 h 3 v 6.17 h -3 v 6.07 h 3 v 6.17 h -3 v 6.07 h 3 v 6.17 h -3 v 6.07 h 3 v 6.17 h -3 v 6.07 h 3 v 6.17 h -3 v 6.07 h 3 v 6.17 h -3 v 6.07 h 3 v 6.17 h -3 v 6.07 h 3 v 6.17 h -3 v 6.07 h 3 v 6.17 h -3 v 6.07 h 3 v 6.17 h -3 v 6.07 h 3 v 6.17 h -3 v 6.07 h 3 v 6.17 h -3 v 6.07 h 3 v 6.17 h -3 v 6.07 h 3 v 6.17 h -3 v 6.07 h 3 v 6.17 h -3 v 6.07 h 3 v 6.17 h -3 v 6.07 h 3 v 6.17 h -3 v 6.07 h 3 v 6.17 h -3 v 6.07 h 3 v 6.17 H 55 V 356"
       id="path923" />
    <path
       style="fill:none;stroke:#000000;stroke-width:0.02;stroke-miterlimit:4;stroke-dasharray:none"
       d="m 55,356 h -3.515 v 3 h -6.17 v -3 h -6.43 v 3 h -6.17 v -3 h -6.43 v 3 h -6.17 v -3 h -6.43 v 3 h -6.17 v -3 H 4"
       id="path925" />
    <path
       style="fill:none;stroke:#000000;stroke-width:0.02;stroke-miterlimit:4;stroke-dasharray:none"
       d="m 4,356 v -3.155 H 1 v -6.17 h 3 v -6.07 H 1 v -6.17 h 3 v -6.07 H 1 v -6.17 h 3 v -6.07 H 1 v -6.17 h 3 v -6.07 H 1 v -6.17 h 3 v -6.07 H 1 v -6.17 h 3 v -6.07 H 1 v -6.17 h 3 v -6.07 H 1 v -6.17 h 3 v -6.07 H 1 v -6.17 h 3 v -6.07 H 1 v -6.17 h 3 v -6.07 H 1 v -6.17 h 3 v -6.07 H 1 v -6.17 h 3 v -6.07 H 1 v -6.17 h 3 v -6.07 H 1 v -6.17 h 3 v -6.07 H 1 v -6.17 h 3 v -6.07 H 1 v -6.17 h 3 v -6.07 H 1 v -6.17 h 3 v -6.07 H 1 v -6.17 h 3 v -6.07 H 1 v -6.17 h 3 v -6.07 H 1 v -6.17 h 3 v -6.07 H 1 v -6.17 h 3 v -6.07 H 1 v -6.17 h 3 v -6.07 H 1 v -6.17 h 3 v -6.07 H 1 v -6.17 H 4 V 62"
       id="path927" />
  </g>
  <g
     id="panel527"
     transform="translate(-49.094456,-49.360506)"
     style="stroke-width:0.02;stroke-miterlimit:4;stroke-dasharray:none">
    <path
       style="fill:none;stroke:#000000;stroke-width:0.02;stroke-miterlimit:4;stroke-dasharray:none"
       d="m 59,59 h 6.3609 v 3 h 5.83 v -3 h 6.4458 v 3 h 5.83 v -3 h 6.4459 v 3 h 5.83 v -3 h 6.4454 v 3 h 5.83 v -3 h 6.446 v 3 h 5.83 v -3 h 6.446 v 3 h 5.83 v -3 h 6.446 v 3 h 5.83 v -3 h 6.446 v 3 h 5.83 v -3 h 6.446 v 3 h 5.83 v -3 h 6.446 v 3 h 5.83 v -3 h 6.445 v 3 h 5.83 v -3 h 6.446 v 3 h 5.83 v -3 h 6.446 v 3 h 5.83 v -3 h 6.446 v 3 h 5.83 v -3 h 6.446 v 3 h 5.83 v -3 h 6.446 v 3 h 5.83 v -3 h 6.446 v 3 h 5.83 v -3 h 6.446 v 3 h 5.83 v -3 h 6.445 v 3 h 5.83 v -3 h 6.446 v 3 h 5.83 v -3 h 6.446 v 3 h 5.83 v -3 h 6.446 v 3 h 5.83 v -3 h 6.446 v 3 h 5.83 v -3 h 6.446 v 3 h 5.83 v -3 h 6.446 v 3 h 5.83 v -3 h 6.445 v 3 h 5.83 v -3 h 6.446 v 3 h 5.83 v -3 h 6.446 v 3 h 5.83 V 59 H 409"
       id="path969" />
    <path
       style="fill:none;stroke:#000000;stroke-width:0.02;stroke-miterlimit:4;stroke-dasharray:none"
       d="m 409,59 v 6.325 h -3 v 5.83 h 3 v 6.41 h -3 v 5.83 h 3 v 6.41 h -3 v 5.83 h 3 v 6.41 h -3 v 5.83 h 3 v 6.41 h -3 v 5.83 h 3 v 6.41 h -3 v 5.83 h 3 v 6.41 h -3 v 5.83 h 3 v 6.41 h -3 v 5.83 h 3 v 6.41 h -3 v 5.83 h 3 v 6.41 h -3 v 5.83 h 3 v 6.41 h -3 v 5.83 h 3 v 6.41 h -3 v 5.83 h 3 v 6.41 h -3 v 5.83 h 3 v 6.41 h -3 v 5.83 h 3 v 6.41 h -3 v 5.83 h 3 v 6.41 h -3 v 5.83 h 3 v 6.41 h -3 v 5.83 h 3 v 6.41 h -3 v 5.83 h 3 v 6.41 h -3 v 5.83 h 3 v 6.41 h -3 v 5.83 h 3 v 6.41 h -3 v 5.83 h 3 v 6.41 h -3 v 5.83 h 3 v 6.41 h -3 v 5.83 h 3 v 6.41 h -3 v 5.83 h 3 V 359"
       id="path971" />
    <path
       style="fill:none;stroke:#000000;stroke-width:0.02;stroke-miterlimit:4;stroke-dasharray:none"
       d="m 409,359 h -6.361 v -3 h -5.83 v 3 h -6.446 v -3 h -5.83 v 3 h -6.446 v -3 h -5.83 v 3 h -6.445 v -3 h -5.83 v 3 h -6.446 v -3 h -5.83 v 3 h -6.446 v -3 h -5.83 v 3 h -6.446 v -3 h -5.83 v 3 h -6.446 v -3 h -5.83 v 3 h -6.446 v -3 h -5.83 v 3 h -6.446 v -3 h -5.83 v 3 h -6.445 v -3 h -5.83 v 3 h -6.446 v -3 h -5.83 v 3 h -6.446 v -3 h -5.83 v 3 h -6.446 v -3 h -5.83 v 3 h -6.446 v -3 h -5.83 v 3 h -6.446 v -3 h -5.83 v 3 h -6.446 v -3 h -5.83 v 3 h -6.446 v -3 h -5.83 v 3 h -6.445 v -3 h -5.83 v 3 h -6.446 v -3 h -5.83 v 3 h -6.446 v -3 h -5.83 v 3 h -6.446 v -3 h -5.83 v 3 h -6.446 v -3 h -5.83 v 3 h -6.446 v -3 h -5.83 v 3 h -6.446 v -3 h -5.83 v 3 h -6.4454 v -3 h -5.83 v 3 h -6.4459 v -3 h -5.83 v 3 h -6.4458 v -3 h -5.83 v 3 H 59"
       id="path973" />
    <path
       style="fill:none;stroke:#000000;stroke-width:0.02;stroke-miterlimit:4;stroke-dasharray:none"
       d="m 59,359 v -6.325 h 3 v -5.83 h -3 v -6.41 h 3 v -5.83 h -3 v -6.41 h 3 v -5.83 h -3 v -6.41 h 3 v -5.83 h -3 v -6.41 h 3 v -5.83 h -3 v -6.41 h 3 v -5.83 h -3 v -6.41 h 3 v -5.83 h -3 v -6.41 h 3 v -5.83 h -3 v -6.41 h 3 v -5.83 h -3 v -6.41 h 3 v -5.83 h -3 v -6.41 h 3 v -5.83 h -3 v -6.41 h 3 v -5.83 h -3 v -6.41 h 3 v -5.83 h -3 v -6.41 h 3 v -5.83 h -3 v -6.41 h 3 v -5.83 h -3 v -6.41 h 3 v -5.83 h -3 v -6.41 h 3 v -5.83 h -3 v -6.41 h 3 v -5.83 h -3 v -6.41 h 3 v -5.83 h -3 v -6.41 h 3 v -5.83 h -3 v -6.41 h 3 v -5.83 h -3 v -6.41 h 3 v -5.83 h -3 v -6.41 h 3 v -5.83 h -3 v -6.41 h 3 v -5.83 H 59 V 59"
       id="path975" />
  </g>
  <g
     id="panel8049"
     transform="rotate(90,378.87481,347.77008)"
     style="stroke-width:0.02;stroke-miterlimit:4;stroke-dasharray:none">
    <path
       style="fill:none;stroke:#000000;stroke-width:0.02;stroke-miterlimit:4;stroke-dasharray:none"
       d="m 413,62 h 3.515 v -3 h 6.17 v 3 h 6.43 v -3 h 6.17 v 3 h 6.43 v -3 h 6.17 v 3 h 6.43 v -3 h 6.17 v 3 H 464"
       id="path978" />
    <path
       style="fill:none;stroke:#000000;stroke-width:0.02;stroke-miterlimit:4;stroke-dasharray:none"
       d="m 464,62 v 3.155 h 3 v 6.17 h -3 v 6.07 h 3 v 6.17 h -3 v 6.07 h 3 v 6.17 h -3 v 6.07 h 3 v 6.17 h -3 v 6.07 h 3 v 6.17 h -3 v 6.07 h 3 v 6.17 h -3 v 6.07 h 3 v 6.17 h -3 v 6.07 h 3 v 6.17 h -3 v 6.07 h 3 v 6.17 h -3 v 6.07 h 3 v 6.17 h -3 v 6.07 h 3 v 6.17 h -3 v 6.07 h 3 v 6.17 h -3 v 6.07 h 3 v 6.17 h -3 v 6.07 h 3 v 6.17 h -3 v 6.07 h 3 v 6.17 h -3 v 6.07 h 3 v 6.17 h -3 v 6.07 h 3 v 6.17 h -3 v 6.07 h 3 v 6.17 h -3 v 6.07 h 3 v 6.17 h -3 v 6.07 h 3 v 6.17 h -3 v 6.07 h 3 v 6.17 h -3 v 6.07 h 3 v 6.17 h -3 v 6.07 h 3 v 6.17 h -3 v 6.07 h 3 v 6.17 h -3 V 356"
       id="path980" />
    <path
       style="fill:none;stroke:#000000;stroke-width:0.02;stroke-miterlimit:4;stroke-dasharray:none"
       d="m 464,356 h -3.515 v 3 h -6.17 v -3 h -6.43 v 3 h -6.17 v -3 h -6.43 v 3 h -6.17 v -3 h -6.43 v 3 h -6.17 v -3 H 413"
       id="path982" />
    <path
       style="fill:none;stroke:#000000;stroke-width:0.02;stroke-miterlimit:4;stroke-dasharray:none"
       d="m 413,356 v -3.155 h -3 v -6.17 h 3 v -6.07 h -3 v -6.17 h 3 v -6.07 h -3 v -6.17 h 3 v -6.07 h -3 v -6.17 h 3 v -6.07 h -3 v -6.17 h 3 v -6.07 h -3 v -6.17 h 3 v -6.07 h -3 v -6.17 h 3 v -6.07 h -3 v -6.17 h 3 v -6.07 h -3 v -6.17 h 3 v -6.07 h -3 v -6.17 h 3 v -6.07 h -3 v -6.17 h 3 v -6.07 h -3 v -6.17 h 3 v -6.07 h -3 v -6.17 h 3 v -6.07 h -3 v -6.17 h 3 v -6.07 h -3 v -6.17 h 3 v -6.07 h -3 v -6.17 h 3 v -6.07 h -3 v -6.17 h 3 v -6.07 h -3 v -6.17 h 3 v -6.07 h -3 v -6.17 h 3 v -6.07 h -3 v -6.17 h 3 v -6.07 h -3 v -6.17 h 3 v -6.07 h -3 v -6.17 h 3 v -6.07 h -3 v -6.17 h 3 v -6.07 h -3 v -6.17 h 3 V 62"
       id="path984" />
  </g>
  <g
     id="panel7778"
     transform="translate(-104.98884,-50.604732)"
     style="stroke-width:0.02;stroke-miterlimit:4;stroke-dasharray:none">
    <path
       style="fill:none;stroke:#000000;stroke-width:0.02;stroke-miterlimit:4;stroke-dasharray:none"
       d="m 468,59 h 6.361 v 3 h 5.83 v -3 h 6.446 v 3 h 5.83 v -3 h 6.446 v 3 h 5.83 v -3 h 6.445 v 3 h 5.83 v -3 h 6.446 v 3 h 5.83 v -3 h 6.446 v 3 h 5.83 v -3 h 6.446 v 3 h 5.83 v -3 h 6.446 v 3 h 5.83 v -3 h 6.446 v 3 h 5.83 v -3 h 6.446 v 3 h 5.83 v -3 h 6.445 v 3 h 5.83 v -3 h 6.446 v 3 h 5.83 v -3 h 6.446 v 3 h 5.83 v -3 h 6.446 v 3 h 5.83 v -3 h 6.446 v 3 h 5.83 v -3 h 6.446 v 3 h 5.83 v -3 h 6.446 v 3 h 5.83 v -3 h 6.446 v 3 h 5.83 v -3 h 6.445 v 3 h 5.83 v -3 h 6.446 v 3 h 5.83 v -3 h 6.446 v 3 h 5.83 v -3 h 6.446 v 3 h 5.83 v -3 h 6.446 v 3 h 5.83 v -3 h 6.446 v 3 h 5.83 v -3 h 6.446 v 3 h 5.83 v -3 h 6.445 v 3 h 5.83 v -3 h 6.446 v 3 h 5.83 v -3 h 6.446 v 3 h 5.83 V 59 H 818"
       id="path987" />
    <path
       style="fill:none;stroke:#000000;stroke-width:0.02;stroke-miterlimit:4;stroke-dasharray:none"
       d="m 818,59 v 6.325 h -3 v 5.83 h 3 v 6.41 h -3 v 5.83 h 3 v 6.41 h -3 v 5.83 h 3 v 6.41 h -3 v 5.83 h 3 v 6.41 h -3 v 5.83 h 3 v 6.41 h -3 v 5.83 h 3 v 6.41 h -3 v 5.83 h 3 v 6.41 h -3 v 5.83 h 3 v 6.41 h -3 v 5.83 h 3 v 6.41 h -3 v 5.83 h 3 v 6.41 h -3 v 5.83 h 3 v 6.41 h -3 v 5.83 h 3 v 6.41 h -3 v 5.83 h 3 v 6.41 h -3 v 5.83 h 3 v 6.41 h -3 v 5.83 h 3 v 6.41 h -3 v 5.83 h 3 v 6.41 h -3 v 5.83 h 3 v 6.41 h -3 v 5.83 h 3 v 6.41 h -3 v 5.83 h 3 v 6.41 h -3 v 5.83 h 3 v 6.41 h -3 v 5.83 h 3 v 6.41 h -3 v 5.83 h 3 v 6.41 h -3 v 5.83 h 3 v 6.41 h -3 v 5.83 h 3 V 359"
       id="path989" />
    <path
       style="fill:none;stroke:#000000;stroke-width:0.02;stroke-miterlimit:4;stroke-dasharray:none"
       d="m 818,359 h -6.361 v -3 h -5.83 v 3 h -6.446 v -3 h -5.83 v 3 h -6.446 v -3 h -5.83 v 3 h -6.445 v -3 h -5.83 v 3 h -6.446 v -3 h -5.83 v 3 h -6.446 v -3 h -5.83 v 3 h -6.446 v -3 h -5.83 v 3 h -6.446 v -3 h -5.83 v 3 h -6.446 v -3 h -5.83 v 3 h -6.446 v -3 h -5.83 v 3 h -6.445 v -3 h -5.83 v 3 h -6.446 v -3 h -5.83 v 3 h -6.446 v -3 h -5.83 v 3 h -6.446 v -3 h -5.83 v 3 h -6.446 v -3 h -5.83 v 3 h -6.446 v -3 h -5.83 v 3 h -6.446 v -3 h -5.83 v 3 h -6.446 v -3 h -5.83 v 3 h -6.445 v -3 h -5.83 v 3 h -6.446 v -3 h -5.83 v 3 h -6.446 v -3 h -5.83 v 3 h -6.446 v -3 h -5.83 v 3 h -6.446 v -3 h -5.83 v 3 h -6.446 v -3 h -5.83 v 3 h -6.446 v -3 h -5.83 v 3 h -6.445 v -3 h -5.83 v 3 h -6.446 v -3 h -5.83 v 3 h -6.446 v -3 h -5.83 v 3 H 468"
       id="path991" />
    <path
       style="fill:none;stroke:#000000;stroke-width:0.02;stroke-miterlimit:4;stroke-dasharray:none"
       d="m 468,359 v -6.325 h 3 v -5.83 h -3 v -6.41 h 3 v -5.83 h -3 v -6.41 h 3 v -5.83 h -3 v -6.41 h 3 v -5.83 h -3 v -6.41 h 3 v -5.83 h -3 v -6.41 h 3 v -5.83 h -3 v -6.41 h 3 v -5.83 h -3 v -6.41 h 3 v -5.83 h -3 v -6.41 h 3 v -5.83 h -3 v -6.41 h 3 v -5.83 h -3 v -6.41 h 3 v -5.83 h -3 v -6.41 h 3 v -5.83 h -3 v -6.41 h 3 v -5.83 h -3 v -6.41 h 3 v -5.83 h -3 v -6.41 h 3 v -5.83 h -3 v -6.41 h 3 v -5.83 h -3 v -6.41 h 3 v -5.83 h -3 v -6.41 h 3 v -5.83 h -3 v -6.41 h 3 v -5.83 h -3 v -6.41 h 3 v -5.83 h -3 v -6.41 h 3 v -5.83 h -3 v -6.41 h 3 v -5.83 h -3 v -6.41 h 3 v -5.83 h -3 v -6.41 h 3 v -5.83 h -3 V 59"
       id="path993" />
  </g>
  <g
     id="panel4213"
     transform="translate(-50.149501,376.41875)"
     style="stroke-width:0.02;stroke-miterlimit:4;stroke-dasharray:none">
    <path
       style="fill:none;stroke:#000000;stroke-width:0.02;stroke-miterlimit:4;stroke-dasharray:none"
       d="m 59,4 h 6.1909 V 1 h 6.17 v 3 h 6.1058 V 1 h 6.17 v 3 h 6.1059 V 1 h 6.17 v 3 h 6.1054 V 1 h 6.17 v 3 h 6.106 V 1 h 6.17 v 3 h 6.106 V 1 h 6.17 v 3 h 6.106 V 1 h 6.17 v 3 h 6.106 V 1 h 6.17 v 3 h 6.106 V 1 h 6.17 v 3 h 6.106 V 1 h 6.17 v 3 h 6.105 V 1 h 6.17 v 3 h 6.106 V 1 h 6.17 v 3 h 6.106 V 1 h 6.17 v 3 h 6.106 V 1 h 6.17 v 3 h 6.106 V 1 h 6.17 v 3 h 6.106 V 1 h 6.17 v 3 h 6.106 V 1 h 6.17 v 3 h 6.106 V 1 h 6.17 v 3 h 6.105 V 1 h 6.17 v 3 h 6.106 V 1 h 6.17 v 3 h 6.106 V 1 h 6.17 v 3 h 6.106 V 1 h 6.17 v 3 h 6.106 V 1 h 6.17 v 3 h 6.106 V 1 h 6.17 v 3 h 6.106 V 1 h 6.17 v 3 h 6.105 V 1 h 6.17 v 3 h 6.106 V 1 h 6.17 v 3 h 6.106 V 1 h 6.17 V 4 H 409"
       id="path996" />
    <path
       style="fill:none;stroke:#000000;stroke-width:0.02;stroke-miterlimit:4;stroke-dasharray:none"
       d="m 409,4 v 3.685 h -3 v 5.83 h 3 v 6.77 h -3 v 5.83 h 3 v 6.77 h -3 v 5.83 h 3 v 6.77 h -3 v 5.83 h 3 V 55"
       id="path998" />
    <path
       style="fill:none;stroke:#000000;stroke-width:0.02;stroke-miterlimit:4;stroke-dasharray:none"
       d="m 409,55 h -6.191 v 3 h -6.17 v -3 h -6.106 v 3 h -6.17 v -3 h -6.106 v 3 h -6.17 v -3 h -6.105 v 3 h -6.17 v -3 h -6.106 v 3 h -6.17 v -3 h -6.106 v 3 h -6.17 v -3 h -6.106 v 3 h -6.17 v -3 h -6.106 v 3 h -6.17 v -3 h -6.106 v 3 h -6.17 v -3 h -6.106 v 3 h -6.17 v -3 h -6.105 v 3 h -6.17 v -3 h -6.106 v 3 h -6.17 v -3 h -6.106 v 3 h -6.17 v -3 h -6.106 v 3 h -6.17 v -3 h -6.106 v 3 h -6.17 v -3 h -6.106 v 3 h -6.17 v -3 h -6.106 v 3 h -6.17 v -3 h -6.106 v 3 h -6.17 v -3 h -6.105 v 3 h -6.17 v -3 h -6.106 v 3 h -6.17 v -3 h -6.106 v 3 h -6.17 v -3 h -6.106 v 3 h -6.17 v -3 h -6.106 v 3 h -6.17 v -3 h -6.106 v 3 h -6.17 v -3 h -6.106 v 3 h -6.17 v -3 h -6.1054 v 3 h -6.17 v -3 h -6.1059 v 3 h -6.17 v -3 h -6.1058 v 3 h -6.17 V 55 H 59"
       id="path1000" />
    <path
       style="fill:none;stroke:#000000;stroke-width:0.02;stroke-miterlimit:4;stroke-dasharray:none"
       d="m 59,55 v -3.685 h 3 v -5.83 h -3 v -6.77 h 3 v -5.83 h -3 v -6.77 h 3 v -5.83 h -3 v -6.77 h 3 V 7.685 H 59 V 4"
       id="path1002" />
  </g>
</svg>
